<svg xmlns="http://www.w3.org/2000/svg" version="1.1" xmlns:xlink="http://www.w3.org/1999/xlink" xmlns:svgjs="http://svgjs.com/svgjs" width="250" height="250"><svg version="1.1" id="SvgjsSvg1000" xmlns="http://www.w3.org/2000/svg" xmlns:xlink="http://www.w3.org/1999/xlink" x="0px" y="0px" viewBox="0 0 250 250" style="enable-background:new 0 0 250 250;" xml:space="preserve">
<style type="text/css">
	.st0{fill:#785846;}
	.st1{fill:#E5602E;}
	.st2{fill:#008183;}
	.st3{fill:#E85F97;}
	.st4{fill:#8A6133;}
	.st5{fill:#FFCA2B;}
	.st6{fill:#52AB47;}
	.st7{fill:#D1C6C3;}
	.st8{fill:#C5CCD7;}
	.st9{fill:#FFFFFF;}
	.st10{fill:#E5602E;stroke:#2A2E33;stroke-width:5;stroke-miterlimit:10;}
	.st11{fill:#E5602E;stroke:#FFFFFF;stroke-width:5;stroke-miterlimit:10;}
</style>
<g>
	<path class="st0" d="M206.5,107.2c0,28.1,0,56.2,0,84.3c0,6.7-4,10.7-10.7,10.7c-1.3,0-2.8-0.4-3.8,0.2c-1.1,0.7-0.3,2.3-0.5,3.6
		c-0.7,4.5-4.7,8-9.3,8.1c-1.4,0-2.9,0.1-4.3,0c-0.9,0-1.3,0.3-1.2,1.2c0.1,2.4-0.3,4.6-1.7,6.5c-1.9,2.7-4.5,4.1-7.8,4.2
		c-1.3,0.1-2.6,0.1-3.8,0c-1.2-0.1-1.6,0.4-1.5,1.5c0.2,3.6-1.2,6.5-4.1,8.6c-1.4,1-3.1,1.6-4.8,1.7c-0.8,0-1.6,0.1-2.5,0.1
		c-33.7,0-67.5,0-101.2,0c-5.1,0-8.6-2.1-10.2-6.3c-0.5-1.3-0.7-2.7-0.7-4.1c0-56.5,0-112.9,0-169.4c0-6.2,4.2-10.3,10.3-10.3
		c1,0,2-0.1,2.9,0c1.5,0.2,1.8-0.5,1.7-1.8c-0.2-2.5,0.6-4.6,2.2-6.5c1.9-2.3,4.3-3.5,7.3-3.6c0.2,0,0.3,0,0.5,0
		c1.5,0,3.2,0.5,4.4-0.2c1.2-0.7,0.4-2.6,0.7-4c0.9-4.4,4.8-7.6,9.4-7.8c1.3,0,2.6-0.1,3.8,0c1.2,0.1,1.5-0.4,1.4-1.5
		c-0.2-2.7,0.6-5.1,2.4-7.1c2.1-2.4,4.8-3.3,7.9-3.3c28.9,0,57.8,0,86.6,0c5.4,0,10.8,0,16.1,0c6.4,0,10.5,4.1,10.5,10.5
		C206.5,50.8,206.5,79,206.5,107.2z M173,38.4c0.1,0.1,0.2,0.2,0.3,0.3c0,0.6,0.3,0.9,0.6,1.4c1.3,1.6,2.2,3.4,2.2,5.6
		c0,53,0,106.1,0,159.1c0,1.3,0.2,2.5,0,3.8c-0.1,0.8,0.3,2,1,1.7c1.6-0.5,3.1,0.1,4.6-0.2c3.6-0.6,5.4-1.3,5.4-5.9
		c0-56.1,0-112.1,0-168.2c0-1-0.1-1.9,0.2-2.9c0.2-0.7,0-1.3-0.8-1.6c-0.3-1.9-2.1-3.3-4.3-3.3c-34.9,0-69.9,0-104.8,0
		c-3.8,0-6.5,3.6-5.5,7.2c0.1,0.5,0.5,0.4,0.9,0.5c0.3,0.5,0.8,0.7,1.3,0.5c0.9-0.3,1.8-0.2,2.7-0.2c28.5,0,57,0,85.5,0
		c3.6,0,7,0,10.1,2.1C172.7,38.4,172.9,38.4,173,38.4z M156.1,231.3L156.1,231.3c0.9-0.1,1.1-0.8,1.2-1.5c0.2-1.4,0.3-2.7,0.3-4.1
		c0-55.2,0-110.3,0-165.5c0-0.7,0.2-1.4,0.1-2.1c-0.2-1.8-0.5-3.6-2.1-4.8c-1.9-1.5-4.3-1.6-6.4-1.6c-30.2-0.1-60.5-0.1-90.7-0.1
		c-3.4,0-6.9-0.1-10.2,0.4c-1.3,0.2-3-0.3-3.6,1.5l0,0c-0.1,0.1-0.2,0.2-0.3,0.4c-0.1,0.1-0.2,0.2-0.3,0.3c-0.9-0.1-1.4,0.3-1.6,1.2
		c-0.4,1.3-0.2,2.5,0,3.8c0.4,2.1-0.6,4.1-0.6,6.2c0,53.4,0,106.8-0.1,160.1c0,2.2,0.7,4,1.2,5.9c0.2,0.6,0.6,1.1,1.3,1.5
		c1.4,0.8,3,1,4.5,1c34.3,0,68.7,0,103,0c0.4,0,0.7,0,1.1,0c0.6,0,1-0.2,1-0.9c0.1-0.1,0.2-0.1,0.3-0.1
		C155.7,233.3,156,232.4,156.1,231.3z M172.1,130.8C172.1,130.8,172.1,130.8,172.1,130.8c0-28.1-0.1-56.2,0-84.3
		c0-3.4-2.6-6.1-6.1-6.1c-25.8,0.1-51.6,0.1-77.4,0.1c-8.4,0-16.9,0-25.3,0c-2.3,0-4,0.9-5.1,2.8c-0.7,1.3-0.7,2.8-0.3,4.2
		c0.3,0.9,1.4,0.3,2.1,0.3c30.6,0,61.2,0,91.8,0c5.7,0,9.8,4.2,9.8,9.9c0,15.1,0,30.1,0,45.2c0,38.7,0,77.4,0,116.1
		c0,2.4,0,2.4,2.4,2.4c0.8,0,1.6,0,2.5,0c3.4,0,5.6-2.2,5.6-5.7C172.1,187.5,172.1,159.1,172.1,130.8z M201.7,107.2
		C201.7,107.2,201.7,107.2,201.7,107.2c0-27.3,0-54.7,0-82c0-1.2,0-2.4,0-3.5c0-1.4-0.5-2.5-1.6-3.5c-1.3-1.2-2.7-1.4-4.4-1.4
		c-33.1,0-66.1,0-99.2,0c-1.4,0-2.9-0.1-4.3,0c-2.4,0.2-3.9,1.5-4.5,3.7C87,23.5,87.4,24,90.4,24c19.6,0,39.1,0,58.7,0
		c10.9,0,21.7,0,32.6,0c3.2,0,5.9,1.3,7.9,4c1.6,2.1,1.9,4.4,1.9,6.9c0,52.7,0,105.3,0,158c0,4.6,0,4.5,4.5,4.6
		c2.9,0.1,5.8-1.9,5.8-5.8C201.7,163.6,201.7,135.4,201.7,107.2z"></path>
	<path class="st1" d="M154.3,232.8c-0.1,0-0.2,0-0.3,0.1c-1.1,0.4-2.2,0.3-3.3,0.3c-33.8,0-67.7,0-101.5,0c-0.6,0-1.2,0-1.8,0
		c-0.7,0-1.3-0.3-1.9-0.7c-1.7-1.3-2.3-2.9-2.3-5c0-56.1,0-112.2,0-168.3c0-1.8,0-3.5,1.1-5c0.1-0.1,0.2-0.2,0.3-0.3
		c0.1-0.1,0.2-0.2,0.3-0.4c0,0,0,0,0,0c1.3-0.4,2.5-1,4-1c34.2,0,68.5,0,102.7,0c3.8,0,5.7,2.2,5.7,5.8c0,55.8,0,111.7,0,167.5
		c0,1.9,0,3.8-1,5.5c0,0,0,0,0,0C155.5,231.8,154.9,232.3,154.3,232.8z M129.1,213.2c0.4-0.1,0.7-0.2,0.9-0.6c0.3,0,0.5,0,0.6,0.3
		c0,4-0.1,8.1-0.1,12.1c0,0.2,0,0.5,0.1,0.6c1,0.4,2,0.3,3,0.1c0.7-0.1,0.5-0.8,0.5-1.3c0-5.3,0-10.5,0-15.8c0-0.6,0.4-1.5-0.6-1.6
		c-0.9-0.1-2.1-0.5-2.7,0.8c-0.8,1.6-2.2,2.5-3.7,3.3c-0.9,0.5-1.7,2.8-1,3.3c0.9,0.7,1.5-0.3,2.3-0.6
		C128.6,213.7,129,213.6,129.1,213.2L129.1,213.2z M139.5,216.6c-0.1,1.9,0.1,3.8,0.7,5.6c0.8,2.3,2.7,3.8,5.1,3.9
		c2.6,0.1,4.5-1.1,5.4-3.5c1.4-4,1.4-8,0-12c-0.9-2.6-2.9-3.7-5.8-3.5c-2.2,0.1-4.1,1.7-4.8,4.1
		C139.7,212.9,139.5,214.7,139.5,216.6z"></path>
	<path class="st2" d="M172.1,130.8c0,28.3,0,56.6,0,84.9c0,3.4-2.2,5.7-5.6,5.7c-0.8,0-1.6,0-2.5,0c-2.3,0-2.4,0-2.4-2.4
		c0-38.7,0-77.4,0-116.1c0-15.1,0-30.1,0-45.2c0-5.7-4.1-9.9-9.8-9.9c-30.6,0-61.2,0-91.8,0c-0.7,0-1.8,0.6-2.1-0.3
		c-0.4-1.4-0.4-2.9,0.3-4.2c1.1-1.9,2.8-2.8,5.1-2.8c8.4,0,16.9,0,25.3,0c25.8,0,51.6,0.1,77.4-0.1c3.5,0,6.1,2.7,6.1,6.1
		C172,74.6,172.1,102.7,172.1,130.8C172.1,130.8,172.1,130.8,172.1,130.8z"></path>
	<path class="st3" d="M201.7,107.2c0,28.2,0,56.4,0.1,84.6c0,3.9-2.9,5.9-5.8,5.8c-4.5-0.1-4.5,0-4.5-4.6c0-52.7,0-105.3,0-158
		c0-2.5-0.3-4.8-1.9-6.9c-2-2.7-4.7-3.9-7.9-4c-10.9-0.1-21.7,0-32.6,0c-19.6,0-39.1,0-58.7,0c-3,0-3.5-0.6-2.7-3.5
		c0.6-2.2,2.1-3.5,4.5-3.7c1.4-0.1,2.9,0,4.3,0c33.1,0,66.1,0,99.2,0c1.6,0,3.1,0.2,4.4,1.4c1.1,1,1.6,2.1,1.6,3.5
		c0,1.2,0,2.4,0,3.5C201.7,52.5,201.7,79.9,201.7,107.2C201.7,107.2,201.7,107.2,201.7,107.2z"></path>
	<path class="st4" d="M44.1,54.1C43,55.6,43,57.3,43,59c0,56.1,0,112.2,0,168.3c0,2.1,0.6,3.8,2.3,5c0.6,0.4,1.2,0.7,1.9,0.7
		c0.6,0,1.2,0,1.8,0c33.8,0,67.7,0,101.5,0c1.1,0,2.3,0.1,3.3-0.3c-0.1,0.6-0.5,0.9-1,0.9c-0.4,0-0.7,0-1.1,0c-34.3,0-68.7,0-103,0
		c-1.6,0-3.1-0.2-4.5-1c-0.7-0.4-1.2-0.9-1.3-1.5c-0.5-1.9-1.2-3.7-1.2-5.9c0.1-53.4,0.1-106.8,0.1-160.1c0-2.1,1-4,0.6-6.2
		c-0.2-1.2-0.5-2.5,0-3.8C42.7,54.4,43.2,54,44.1,54.1z"></path>
	<path class="st4" d="M156.1,231.3c1-1.7,1-3.6,1-5.5c0-55.8,0-111.7,0-167.5c0-3.7-1.9-5.8-5.7-5.8c-34.2,0-68.5,0-102.7,0
		c-1.5,0-2.7,0.6-4,1c0.6-1.8,2.4-1.3,3.6-1.5c3.4-0.5,6.8-0.4,10.2-0.4c30.2,0,60.5,0,90.7,0.1c2.1,0,4.5,0.1,6.4,1.6
		c1.6,1.2,1.9,3,2.1,4.8c0.1,0.7-0.1,1.4-0.1,2.1c0,55.2,0,110.3,0,165.5c0,1.4-0.1,2.7-0.3,4.1
		C157.3,230.5,157.1,231.2,156.1,231.3z"></path>
	<path class="st4" d="M186.6,31.6c0.8,0.3,1,0.9,0.8,1.6c-0.3,1-0.2,1.9-0.2,2.9c0,56.1,0,112.1,0,168.2c0,4.6-1.8,5.3-5.4,5.9
		c-1.5,0.2-3-0.3-4.6,0.2c-0.8,0.2-1.1-1-1-1.7c0.2-1.3,0-2.5,0-3.8c0-53,0-106.1,0-159.1c0-2.2-0.9-4-2.2-5.6
		c-0.3-0.4-0.6-0.8-0.6-1.4c0-0.1,0.1-0.1,0.1-0.2c0.2,0.2,0.5,0.4,0.7,0.6c2,2.2,2.6,4.8,2.6,7.6c0,52.9,0,105.8,0,158.6
		c0,1.3-0.5,2.9,0.2,3.7c0.8,0.9,2.5,0.3,3.8,0.3c4.1,0,6.1-2,6.1-6.1c0-56.1,0-112.2,0-168.3c0-1.1-0.2-2.2-0.4-3.3
		C186.5,31.6,186.5,31.6,186.6,31.6z"></path>
	<path class="st4" d="M72.8,36c-0.3-0.1-0.7,0-0.9-0.5c-1-3.6,1.7-7.2,5.5-7.2c34.9,0,69.9,0,104.8,0c2.1,0,4,1.5,4.3,3.3
		c0,0-0.1,0.1-0.1,0.1c-1.3-2.2-3.2-3.1-5.8-3.1c-33.8,0-67.6,0-101.5,0C74.3,28.6,72.3,31,72.8,36L72.8,36z"></path>
	<path class="st4" d="M173,38.4c-0.1,0-0.3,0-0.4-0.1c-3.1-2.1-6.6-2.1-10.1-2.1c-28.5,0.1-57,0-85.5,0c-0.9,0-1.8-0.1-2.7,0.2
		c-0.5,0.2-1,0-1.3-0.5c0,0,0-0.1,0-0.1c30.3,0,60.5,0,90.8,0c1.3,0,2.7,0,4,0c2.1,0.1,4,0.8,5.5,2.3
		C173.1,38.3,173.1,38.3,173,38.4z"></path>
	<path class="st4" d="M154.3,232.8c0.6-0.5,1.2-1,1.9-1.5C156,232.4,155.7,233.3,154.3,232.8z"></path>
	<path class="st4" d="M173.3,38.7c-0.1-0.1-0.2-0.2-0.3-0.3c0,0,0.1-0.1,0.1-0.1c0.1,0.1,0.2,0.2,0.3,0.3
		C173.4,38.6,173.4,38.6,173.3,38.7z"></path>
	<path class="st4" d="M44.7,53.5c-0.1,0.1-0.2,0.2-0.3,0.4C44.4,53.7,44.6,53.6,44.7,53.5z"></path>
	<path class="st5" d="M140.2,211.1c0.7-2.4,2.5-4,4.8-4.1c2.9-0.2,4.9,0.9,5.8,3.5c1.3,4,1.3,8,0,12c-0.8,2.4-2.8,3.6-5.4,3.5
		c-2.4-0.1-4.4-1.6-5.1-3.9C139.6,220.3,139.7,212.9,140.2,211.1z M147.9,216.5c-0.2-1.6,0.1-3.4-0.5-5c-0.3-0.9-0.9-1.5-1.9-1.4
		c-1,0-1.5,0.6-1.7,1.5c-0.8,3.4-0.9,6.7,0,10.1c0.2,0.9,0.8,1.5,1.8,1.5c1,0,1.5-0.6,1.9-1.5C148,219.9,147.8,218.2,147.9,216.5z"></path>
	<path class="st5" d="M130.6,212.9c-0.1-0.3-0.3-0.3-0.6-0.3c-0.8-0.4-0.8-0.4-0.9,0.6c0,0,0,0,0,0c-0.6-0.1-1.2,0-1.7,0.5
		c-0.7,0.6-1,0.2-1.1-0.5c-0.1-0.8,0.2-1.3,1-1.5c1.9-0.6,3.1-2.1,4.2-3.6c0.5-0.7,1-0.8,1.6-0.7c0.8,0.1,0.6,0.8,0.6,1.2
		c0,2.8,0,5.6,0,8.4c0,2.4,0,4.7,0,7.1c0,1-0.6,1.3-1.4,1.4c-0.8,0-1.4-0.1-1.3-1.1c0.1-3.2-0.3-6.3,0.2-9.5
		C131.3,214.2,131.6,213.3,130.6,212.9z"></path>
	<path class="st5" d="M130.6,212.9c1,0.4,0.7,1.3,0.6,2c-0.5,3.2-0.1,6.3-0.2,9.5c0,0.9,0.6,1.1,1.3,1.1c0.9,0,1.5-0.3,1.4-1.4
		c0-2.4,0-4.7,0-7.1c0-2.8,0-5.6,0-8.4c0-0.5,0.2-1.1-0.6-1.2c-0.7-0.1-1.1,0-1.6,0.7c-1.1,1.5-2.3,2.9-4.2,3.6
		c-0.7,0.3-1.1,0.8-1,1.5c0.1,0.7,0.4,1.1,1.1,0.5c0.5-0.5,1-0.6,1.7-0.5c-0.1,0.4-0.5,0.5-0.8,0.7c-0.7,0.3-1.4,1.3-2.3,0.6
		c-0.6-0.5,0.2-2.8,1-3.3c1.5-0.8,2.9-1.8,3.7-3.3c0.6-1.3,1.8-0.8,2.7-0.8c1,0.1,0.6,1,0.6,1.6c0,5.3,0,10.5,0,15.8
		c0,0.5,0.3,1.2-0.5,1.3c-1,0.1-2,0.3-3-0.1c-0.1,0-0.1-0.4-0.1-0.6C130.6,221,130.6,216.9,130.6,212.9z"></path>
	<path class="st5" d="M129.1,213.2c0.1-1,0.1-1.1,0.9-0.6C129.8,213,129.5,213.1,129.1,213.2z"></path>
	<path class="st6" d="M173.5,38.5c-0.1-0.1-0.2-0.2-0.3-0.3c-1.5-1.5-3.4-2.2-5.5-2.3c-1.3-0.1-2.7,0-4,0c-30.3,0-60.5,0-90.8,0
		c-0.6-4.9,1.4-7.3,6.3-7.3c33.8,0,67.6,0,101.5,0c2.5,0,4.5,0.9,5.8,3.1c0.2,1.1,0.4,2.2,0.4,3.3c0,56.1,0,112.2,0,168.3
		c0,4.1-1.9,6.1-6.1,6.1c-1.3,0-3,0.6-3.8-0.3c-0.8-0.8-0.2-2.4-0.2-3.7c0-52.9,0-105.8,0-158.6c0-2.9-0.6-5.5-2.6-7.6
		C174,38.9,173.7,38.7,173.5,38.5z"></path>
	<path class="st5" d="M147.9,216.5c-0.1,1.8,0.1,3.5-0.5,5.1c-0.3,0.9-0.8,1.5-1.9,1.5c-1.1,0-1.6-0.6-1.8-1.5
		c-0.8-3.4-0.7-6.8,0-10.1c0.2-0.9,0.7-1.4,1.7-1.5c1,0,1.6,0.5,1.9,1.4C148,213.1,147.8,214.8,147.9,216.5z"></path>
</g>
<g>
	<g>
		<path class="st5" d="M138.6,213.6c-0.3,1.2-0.6,2.4-0.9,3.6c-0.3,1.3-0.7,2.7-0.7,4.1c0.1,1.3,1.1,2.6,2.5,2.5
			c1.3-0.1,2.6-1.1,2.5-2.5c0-0.4,0-0.7,0-1.1c0,0.2-0.1,0.4-0.1,0.7c0.1-1,0.4-2,0.7-3c0.2-1,0.5-2,0.7-3c0.3-1.3-0.4-2.8-1.7-3.1
			C140.4,211.5,138.9,212.2,138.6,213.6L138.6,213.6z"></path>
	</g>
</g>
<image style="display:none;overflow:visible;" width="43" height="68" xlink:href="448EDB71.jpg" transform="matrix(1.2045 0 0 1.2045 194.2155 21.8825)">
</image>
<image style="display:none;overflow:visible;" width="117" height="150" xlink:href="448EDB77.jpg" transform="matrix(1.2045 0 0 1.2045 230.0892 57.2069)">
</image>
<g>
	<g>
		<path class="st1" d="M140.9,218.2c-0.5,0.3-1.7,1.1-2.2,1c0.4,0.2,0.7,0.4,1.1,0.6c0.2,0.2,0,0.2,0-0.2c0-0.3-0.1-0.5,0-0.8
			c0-0.5,0.1-0.9,0.3-1.3c-1.1,0.3-2.3,0.6-3.4,0.9c-0.2-0.4-0.4-0.8-0.6-1.2c0.2-0.4,0.5-0.7,0.7-1.1c0,0.1-0.4,0-0.4,0
			c-0.3-0.1-0.7-0.1-1-0.3c-0.4-0.2-0.7-0.4-0.9-0.7c0,0-0.2-0.3-0.3-0.4c-0.1-0.2-0.1-0.2-0.1-0.1c0.4,0.4,0.2,1-0.6,1.6
			c-0.4,0.1-0.8,0.2-1.3,0.3c-0.4,0-0.1,0-0.1,0c0.1,0.2,0.1,0.1,0.2,0.3c0.1,0.2,0.2,0.5,0.2,0.8c0,0.4-0.1,0.2-0.2,0.6
			c0,0,0.1-0.1,0.1-0.1c-0.1,0-0.2,0.1-0.3,0.1c0.3-0.1,0.6,0,0.9,0.2c-1.5-1.6-4.3-0.4-4.3,1.8c0,0.9,0,1.8,0.1,2.7
			c1.6-0.2,3.3-0.4,4.9-0.7c-0.2-1.2-0.2-2.4-0.1-3.6c-1.6,0.2-3.3,0.4-4.9,0.7c0.5,2.7,2.1,5.1,3.6,7.4c1.5,2.3,5.6,0.9,4.6-1.9
			c-1.1-2.9-2.1-5.8-3.2-8.6c-0.5-1.3-1.1-2.7-1.4-4.1c-0.2-0.8-0.4-1.7,0.4-2.1c-1.1-1.1-2.3-2.3-3.4-3.4c-1.7,2.7-4.6,4.6-7.8,4.9
			c0.7,1.3,1.4,2.5,2.2,3.8c0.7-0.9,1.6-1.7,2.6-2.3c0.5-0.3,0.9-0.5,1.5-0.7c0.3-0.1,0.6-0.2,0.9-0.3c0.5-0.3,0.4,0.2-0.1-0.2
			c-0.3-0.3-0.6-0.6-0.9-0.9c0.3,0.5-0.3,1.7-0.6,2.2c1.5,0.6,3,1.3,4.6,1.9c0.7-2.1,2-3.7,3.9-4.9c-1.2-0.5-2.4-1-3.7-1.5
			c0.5,2,0.9,4,1.6,5.9c0.8,2.2,2.8,3,4.9,2.3c1.9-0.6,4.2-1.1,5.9-2.2c1.9-1.2,1.8-2.9,2.6-4.7c0.1-0.1,0.5-0.9,0.5-0.7
			c0-0.1-0.5-0.4-0.5-0.3c-0.1,0.2,0.3,1.2,0.3,1.4c0.5,2.2,1,4.3,1.3,6.5c0.3,1.6,0.1,3.3-0.9,4.6c-0.6,0.8-1.7,1.8-2.8,1.4
			c-1.2-0.4-2-2.1-2.1-3.2c0-0.2,0.2-0.8,0.2-0.7c0-0.4-0.2,0.1-0.3,0.2c1.4,0,2.9,0,4.3,0c-0.6-1-1-2.1-1.2-3.2
			c-0.1-0.5-0.2-1-0.2-1.5c0-0.2,0-0.6,0-0.8c-0.1-0.4,0.9,0.4-0.9,0.8c-0.4,0-0.9,0-1.3,0c0.4,0.1,0.8,1.1,0.9,1.5
			c0.1,0.7,0.1,1.4-0.2,2c1.3-0.2,2.6-0.3,3.9-0.5c-0.7-0.5-1.2-1.2-1.3-2.1c-0.2-1.3,0.7-2.5,0-3.8c-0.6-1.1-1.8-1.7-2.6-2.6
			c-0.8-0.9-1.4-1.9-1.9-2.9c-1.5,0.6-3,1.3-4.6,1.9c1.3,2.2,2.4,4.5,3.5,6.8c0.6,1.2,2.3,1.5,3.4,0.9c1.3-0.7,1.5-2.2,0.9-3.4
			c-1.1-2.3-2.3-4.6-3.5-6.8c-0.6-1.1-2-1.5-3.1-1c-1,0.4-1.9,1.8-1.4,2.9c0.6,1.4,1.3,2.7,2.2,4c0.4,0.6,0.9,1.1,1.4,1.6
			c0.4,0.4,1.2,0.8,1.4,1.2c-0.1-0.4-0.2-0.8-0.3-1.3c0,0.7-0.3,1.5-0.3,2.2c0,0.7,0.1,1.5,0.3,2.2c0.4,1.5,1.3,2.8,2.5,3.8
			c1.2,0.9,3.1,1.1,3.9-0.5c1-1.9,1.3-4.1,0.6-6.2c-0.6-2-2.3-4.6-4.6-4.7c-2.8-0.2-3.9,2.5-3.8,4.8c0.2,2.6,0.9,5,2.1,7.2
			c0.9,1.7,3.3,1.5,4.3,0c1.4-2.2,0.9-5.4-1.4-6.9c-2.2-1.5-5.4-0.9-6.9,1.4c-2.8,4.1,0.6,10.6,5.1,11.7c5.4,1.2,9.6-4.3,9.8-9.2
			c0.1-2.8-0.8-5.7-1.4-8.4c-0.5-2.6-1.1-5.5-4.2-5.9c-3.1-0.4-5.3,1.9-6.1,4.7c-0.1,0.5-0.2,1-0.4,1.5c0,0,0.3-0.2,0.2-0.1
			c-0.2,0.2-1,0.3-1.2,0.4c-1.4,0.5-2.9,1.2-4.4,1.4c0.4,0,0.9,0,1.3,0c0.6,0.9,0.9,1.1,0.6,0.5c-0.1-0.3-0.2-0.6-0.2-0.9
			c-0.1-0.5-0.2-0.9-0.4-1.4c-0.3-1.1-0.6-2.1-0.8-3.2c-0.4-1.5-2.3-2.3-3.7-1.5c-3,1.8-5.1,4.5-6.2,7.8c-0.9,2.7,3.1,4.3,4.6,1.9
			c1-1.7,1.5-3.8,1.2-5.8c-0.4-2.3-2.4-3.3-4.6-2.9c-3.5,0.7-6.5,3-8.6,5.8c-1.1,1.5,0.4,3.9,2.2,3.8c5-0.5,9.4-3.1,12.1-7.4
			c1.4-2.2-1.3-4.5-3.4-3.4c-3.7,1.9-3.3,6.3-2.1,9.6c1.3,3.6,2.7,7.3,4,10.9c1.5-0.6,3-1.3,4.6-1.9c-1.3-1.9-2.7-3.8-3.1-6.2
			c-0.2-1.2-1.6-2-2.7-1.8c-1.3,0.2-2.1,1.2-2.2,2.5c-0.1,1.7,0,3.3,0.3,5c0.5,2.8,5,2.1,4.9-0.7c0-0.9,0-1.8-0.1-2.7
			c-1.4,0.6-2.8,1.2-4.3,1.8c1.4,1.5,3.7,1.6,5.4,0.5c1.6-1,2.5-2.8,2.6-4.6c0.1-1.7-0.5-3.4-1.6-4.7c-1.3-1.5-3.6-2.4-5.4-1.1
			c-1.7,1.3-1.5,3.6-0.5,5.3c1,1.7,2.8,3,4.7,3.4c2,0.5,4.6,0.2,5.8-1.7c1-1.7,0.6-4.3-1.3-5.2c-1.1-0.5-2.8-0.4-3.4,0.9
			c-1,2.3-1.6,5.7,0.1,7.9c1.9,2.4,5.5,1.1,7.6-0.3C146.1,220.8,143.6,216.4,140.9,218.2L140.9,218.2z"></path>
	</g>
</g>
<path class="st7" d="M152.7,233.8H67.1c-2.4,0-4.4-2-4.4-4.4V56.8c0-2.4,2-4.4,4.4-4.4h85.6c2.4,0,4.4,2,4.4,4.4v172.5
	C157.1,231.8,155.1,233.8,152.7,233.8z"></path>
<path class="st8" d="M152.5,139.7H67.4c-2.5,0-4.6-2.1-4.6-4.6V56.2c0-2.5,2.1-4.6,4.6-4.6h85.1c2.5,0,4.6,2.1,4.6,4.6v78.9
	C157.1,137.6,155,139.7,152.5,139.7z"></path>
<path class="st1" d="M131.2,100.3H61.9c-6.6,0-12-5.4-12-12V75c0-6.6,5.4-12,12-12h69.3c6.6,0,12,5.4,12,12v13.3
	C143.2,94.9,137.8,100.3,131.2,100.3z"></path>
<circle class="st9" cx="62.8" cy="197.3" r="11.2"></circle>
<circle class="st9" cx="62.8" cy="168.7" r="11.2"></circle>
<circle class="st9" cx="62.8" cy="138" r="11.2"></circle>
<circle class="st9" cx="62.8" cy="81.6" r="11.2"></circle>
<line class="st10" x1="82.7" y1="171.7" x2="142.5" y2="171.7"></line>
<line class="st10" x1="82.7" y1="184.8" x2="142.5" y2="184.8"></line>
<line class="st10" x1="82.7" y1="197.6" x2="142.5" y2="197.6"></line>
<line class="st10" x1="82.3" y1="210.3" x2="142" y2="210.3"></line>
<line class="st11" x1="78.6" y1="81.6" x2="138.3" y2="81.6"></line>
<path class="st1" d="M145.1,126.3H90.2c-3.2,0-5.8-2.6-5.8-5.8v-2.7c0-3.2,2.6-5.8,5.8-5.8h54.9c3.2,0,5.8,2.6,5.8,5.8v2.7
	C150.9,123.6,148.3,126.3,145.1,126.3z"></path>
<path class="st1" d="M146.1,143.1H91.2c-3.2,0-5.8-2.6-5.8-5.8v-2.7c0-3.2,2.6-5.8,5.8-5.8h54.9c3.2,0,5.8,2.6,5.8,5.8v2.7
	C151.9,140.5,149.3,143.1,146.1,143.1z"></path>
<path class="st1" d="M146.1,160.7H91.2c-3.2,0-5.8-2.6-5.8-5.8v-2.7c0-3.2,2.6-5.8,5.8-5.8h54.9c3.2,0,5.8,2.6,5.8,5.8v2.7
	C151.9,158.1,149.3,160.7,146.1,160.7z"></path>
</svg><style>@media (prefers-color-scheme: light) { :root { filter: none; } }
</style></svg>