<?xml version="1.0" encoding="utf-8"?>
<!-- Generator: Adobe Illustrator 25.3.1, SVG Export Plug-In . SVG Version: 6.00 Build 0)  -->
<svg version="1.1" id="Layer_1" xmlns="http://www.w3.org/2000/svg" xmlns:xlink="http://www.w3.org/1999/xlink" x="0px" y="0px"
	 viewBox="0 0 367 367" style="enable-background:new 0 0 367 367;" xml:space="preserve">
<style type="text/css">
	.st0{fill:#0A0A0A;}
	.st1{fill:#7A4693;}
	.st2{fill:#FDFDFD;}
</style>
<path class="st0" d="M221.1,109.4c0.6-5.8,1.1-10.1,1.5-14.5c0.4-4.6,0.9-9.3,1.2-13.9c0.2-3.1,0.8-6,4.5-6c3.8,0.1,8.2,0.2,9.3,4.9
	c2.1,9.2,4.4,18.5,5.1,27.9c0.4,5.4-0.5,11.5-4.3,16.4c-1.8,2.3-1.5,5.3-1.3,8.1c0.2,4,0.7,7.9,1.1,11.9c0.1,0.6,0,1.6,0.4,1.9
	c7.2,5.1,7,13.6,9.3,20.9c4.1,12.8,7.1,25.9,11.1,38.8c4.8,15.4,3,31,2.9,46.6c0,13.3-1,26.6-1.5,39.8c-0.3,7.8-4.8,12.9-11.1,12.6
	c-6.4-0.3-10.5-5.6-10.3-13.4c0.5-15.8,0.8-31.6,1.9-47.3c1.1-16.8-2.2-32.7-7.2-48.5c-3.4-10.9-6.1-22.1-9.6-33
	c-1.8-5.7,0.6-11.7-1.8-17.2c-0.4-1,0.1-2.8-1.4-2.9c-1.9-0.1-1.7,1.8-1.8,2.9c-1.9,25.4-12.3,48.8-17.7,73.3
	c-2.4,10.8-0.6,21.9-0.4,32.8c0.2,13.8,0.9,27.6,1.2,41.4c0.1,6.7-4.3,11.6-10.3,11.8c-5.9,0.2-10.6-4.5-10.9-11.2
	c-1.2-23.1-2.1-46.2-1.9-69.3c0-5.7,1.3-11.2,2.8-16.6c5-17.6,10-35.1,14.9-52.7c0.5-1.8,0.8-3.7,2.1-5c6.8-6.8,5.4-15.5,4.5-23.5
	c-0.4-3.8-3.3-7.6-4.2-11.8c-0.9-4.2-0.9-8.2-0.1-12.3c1.4-6.8,2.6-13.7,3.9-20.5c0.9-4.8,5.4-7.9,10.2-6.9c2.7,0.5,3.7,2.3,3.9,5
	c0.6,7.5,1.3,14.9,2,22.3C219.3,104.2,219.1,106.2,221.1,109.4z M245.2,257c-0.5,0-1,0-1.6,0c0,11.6,0.1,23.2,0,34.9
	c0,4.7,2,8,5.6,8c4.4,0,5.9-3.1,6.4-6.9c0.1-0.6,0-1.3,0.1-2c0.5-17.4,1.2-34.9,1.5-52.3c0.2-8.9,0.6-17.9-1.8-26.7
	c-5.2-18.3-10.4-36.7-15.5-55.1c-1.1-3.8-2.7-7.1-7.4-6.4c-3.8,0.6-5.5,4.6-4.1,9.7c1.7,6.1,3.6,12.1,5.2,18.2
	c5.6,21.1,14.2,41.6,11.7,64.2C244.8,247.3,245.2,252.2,245.2,257z M184.7,242.7c0,9.4-0.1,19,0,28.6c0.1,7.5,0.5,14.9,1,22.4
	c0.2,3.5,2.1,6.2,5.9,6.1c4.1-0.1,5.6-3,5.7-6.8c0-1,0-2,0-3c-0.5-17.3-1.2-34.5-1.5-51.8c-0.1-8.4-0.7-16.8,1.9-25.2
	c5.3-17.4,10.1-35.1,15-52.6c1.4-5.2-0.1-8.9-3.9-9.9c-3.5-0.9-6.1,1.4-7.6,6.7c-1.9,6.7-4,13.3-5.7,20.1
	C189.9,198.7,180.6,219.4,184.7,242.7z M220.4,137.6c6.4,0.1,12.1-5.6,12.2-12.1c0.1-6.4-5.6-12.2-12-12.3
	c-6.3-0.1-12.2,5.7-12.3,12.1C208.2,131.5,214.1,137.5,220.4,137.6z M205,117.6c2.5-3,4.2-5.8,7.3-6.9c2.4-0.9,2.7-2.4,2.4-4.6
	c-0.8-7.4-1.3-14.8-2.1-22.2c-0.1-1.3,0.8-3.7-1.9-3.7c-2.5-0.1-2.7,1.9-3.1,3.8c-1.2,6.7-2.2,13.4-3.9,20
	C202.7,108.5,203.8,112.6,205,117.6z M236.1,117.6c4-12.8-1.9-24.2-3.3-35.9c-0.2-1.4-1.7-1.5-2.8-1.5c-2-0.1-1.3,1.6-1.4,2.6
	c-0.8,8.1-1.6,16.1-2.4,24.2c-0.1,1.4-0.2,2.6,1.5,3.2C231.2,111.4,233.4,114.3,236.1,117.6z M213.5,146.7c1.4-5.8,1.2-6-5.2-8.3
	C207.6,145.1,207.6,145.1,213.5,146.7z M232.4,138.3c-2.7,1.9-7.1,2.3-5.3,7.2c0.9,2.4,2,0.6,3.1,0.5C236,145.1,232,141,232.4,138.3
	z"/>
<path class="st0" d="M158.7,120.1c0,10.5-0.1,21,0,31.5c0,4.8-1.2,8.9-5.7,11.3c-2.3,1.3-3.3,3.2-2.7,5.8c0.6,2.4,2.5,2.2,4.4,2.2
	c3.1,0.1,4.5,1.7,4.4,4.8c-0.1,4.2-0.1,8.3,0,12.5c0.1,4.4-2.4,6.3-6.4,6.7c-0.3,0-0.7,0-1,0c-9.9,0.4-10,0.4-10,10.2
	c-0.1,21,0,41.9,0,62.9c0,1.7-0.1,3.4,0.7,4.9c5.6,10-0.4,19.7-0.9,29.6c-0.1,1.7-1.6,2.3-3.3,2.3c-2.3,0-4.7,0-7,0
	c-2.1,0-3.3-0.9-3.6-3.2c-1-7.1-2.2-14.1-3.2-21.2c-0.1-0.8,0.1-1.8,0.5-2.4c3.9-6.4,3-13.4,3-20.4c0-19.5-0.1-39,0.1-58.4
	c0-3.4-0.8-4.5-4.3-4.4c-13.3,0.1-13.6-0.4-13.6-13.7c0-2-0.1-4,0.1-6c0.3-2.6,1.7-4.3,4.6-4.2c1.8,0,3.8,0.4,4.3-2.2
	c0.4-2.1,0.2-4.2-1.8-5.3c-5.8-3.1-6.5-8.1-6.4-14c0.2-20.1,0.1-40.3,0.2-60.4c0-13.9,10.1-24.5,23.4-24.8
	c13.5-0.2,24.1,10.2,24.3,24.3C158.9,99.2,158.7,109.7,158.7,120.1z M153.9,120.3c0-10.7,0.1-21.3,0-31.9
	c-0.2-10.9-8.9-19.4-19.5-19.2c-10.3,0.1-18.3,8.7-18.4,19.6c-0.1,20.3-0.2,40.6-0.4,60.9c0,4.2,0.6,7.4,4.6,10.1
	c5.9,3.9,5.2,13.7-1,15.4c-4.1,1.1-4.6,3.1-4.3,6.4c0.2,1.5,0.2,3,0,4.5c-0.3,3.1,1.1,4,4.1,3.9c8.3-0.1,16.6-0.1,25-0.1
	c11.1,0,11.1,0,10.3-11c-0.1-1.6,0-2.8-2.2-3.1c-3.9-0.5-6.2-2.9-6.6-6.9c-0.4-4.1,0.7-7.7,4.4-9.9c3.2-1.8,4.1-4.4,4-7.9
	C153.8,141,153.9,130.6,153.9,120.3z M136.9,234.2c0,0,0.1,0,0.1,0c0-12,0-23.9,0-35.9c0-1.3,0.7-3.1-1.8-3.2
	c-2.7-0.1-2.4,1.6-2.4,3.2c0,1,0,2,0,3c0,22.1,0,44.2,0,66.4c0,1.8,0.3,4-0.5,5.4c-5,8.3-0.9,16.4-0.2,24.7c0.2,1.8,0.9,2.2,2.5,2.2
	c1.7,0,2.9-0.1,3.1-2.2c0.4-3.6,1-7.2,1.5-10.9c0.4-2.8,1.9-5.7,0.3-8.3c-2.9-4.9-2.6-10.2-2.6-15.5
	C136.9,253.5,136.9,243.9,136.9,234.2z"/>
<path class="st1" d="M245.2,257c0-4.8-0.4-9.7,0.1-14.5c2.4-22.6-6.1-43.1-11.7-64.2c-1.6-6.1-3.5-12.1-5.2-18.2
	c-1.4-5,0.3-9.1,4.1-9.7c4.7-0.7,6.3,2.5,7.4,6.4c5.1,18.4,10.3,36.7,15.5,55.1c2.5,8.8,2,17.8,1.8,26.7c-0.3,17.4-1,34.9-1.5,52.3
	c0,0.7,0,1.3-0.1,2c-0.6,3.8-2,6.9-6.4,6.9c-3.6,0-5.6-3.3-5.6-8c0.1-11.6,0-23.2,0-34.9C244.2,257,244.7,257,245.2,257z"/>
<path class="st1" d="M184.7,242.7c-4.1-23.3,5.2-44.1,10.7-65.5c1.7-6.7,3.8-13.4,5.7-20.1c1.5-5.3,4.2-7.6,7.6-6.7
	c3.8,1,5.3,4.7,3.9,9.9c-4.9,17.6-9.6,35.2-15,52.7c-2.6,8.4-2,16.8-1.9,25.2c0.3,17.3,1,34.5,1.5,51.8c0,1,0,2,0,3
	c-0.1,3.8-1.6,6.7-5.7,6.8c-3.8,0.1-5.7-2.5-5.9-6.1c-0.5-7.5-0.9-14.9-1-22.4C184.5,261.7,184.7,252.1,184.7,242.7z"/>
<path class="st2" d="M220.4,137.6c-6.3-0.1-12.2-6.1-12.1-12.3c0.1-6.3,6-12.1,12.3-12.1c6.4,0.1,12.1,5.9,12,12.3
	C232.6,132,226.8,137.7,220.4,137.6z"/>
<path class="st2" d="M205,117.6c-1.2-5-2.3-9.1-1.2-13.8c1.6-6.6,2.6-13.3,3.9-20c0.3-1.8,0.6-3.8,3.1-3.8c2.7,0.1,1.8,2.4,1.9,3.7
	c0.8,7.4,1.4,14.8,2.1,22.2c0.2,2.2-0.1,3.7-2.4,4.6C209.3,111.8,207.5,114.6,205,117.6z"/>
<path class="st2" d="M236.1,117.6c-2.7-3.2-4.9-6.2-8.3-7.5c-1.7-0.7-1.6-1.8-1.5-3.2c0.8-8.1,1.5-16.1,2.4-24.2
	c0.1-0.9-0.6-2.6,1.4-2.6c1.1,0,2.6,0.2,2.8,1.5C234.2,93.4,240.1,104.7,236.1,117.6z"/>
<path class="st2" d="M213.5,146.7c-5.9-1.6-5.9-1.6-5.2-8.3C214.8,140.7,214.9,140.9,213.5,146.7z"/>
<path class="st2" d="M232.4,138.3c-0.4,2.7,3.6,6.8-2.3,7.7c-1,0.2-2.2,1.9-3.1-0.5C225.3,140.6,229.7,140.2,232.4,138.3z"/>
<path class="st1" d="M153.9,120.3c0,10.3-0.1,20.6,0.1,30.9c0,3.5-0.9,6-4,7.9c-3.7,2.1-4.8,5.7-4.4,9.9c0.4,4,2.7,6.4,6.6,6.9
	c2.2,0.3,2.1,1.5,2.2,3.1c0.7,11,0.7,11-10.3,11c-8.3,0-16.6-0.1-24.9,0.1c-3,0.1-4.4-0.8-4.1-3.9c0.2-1.5,0.2-3,0-4.5
	c-0.4-3.4,0.2-5.3,4.3-6.4c6.2-1.7,6.9-11.5,1-15.4c-4.1-2.7-4.7-5.9-4.6-10.1c0.2-20.3,0.3-40.6,0.4-60.9
	c0.1-10.9,8.1-19.5,18.4-19.6c10.5-0.2,19.3,8.3,19.5,19.2C154.1,99,153.9,109.7,153.9,120.3z M149.1,118.4c0.1,0,0.1,0,0.1,0
	c0-10.8,0-21.6,0-32.4c0-4-1.7-6.9-6.1-6.9c-4.1,0.1-6.2,2.6-6.2,6.8c0,21.1-0.1,42.2-0.1,63.3c0,5,2.1,7.4,6.1,7.4
	c4.1,0,6-2.4,6.1-7.3C149.1,139,149.1,128.7,149.1,118.4z M132.3,118c0-10.8,0-21.7,0-32.5c0-4.1-1.9-6.4-5.9-6.4c-4,0-6,2.4-6,6.4
	c-0.1,21.3-0.3,42.6-0.3,63.9c0,4.9,2.5,7.4,6.5,7.1c4.4-0.3,5.9-2.9,5.8-7.1C132.2,139,132.3,128.5,132.3,118z"/>
<path class="st2" d="M136.9,234.2c0,9.6,0,19.3,0,28.9c0,5.3-0.3,10.6,2.6,15.5c1.5,2.6,0.1,5.5-0.3,8.3c-0.5,3.6-1.1,7.2-1.5,10.9
	c-0.2,2-1.5,2.2-3.1,2.2c-1.6,0-2.3-0.5-2.5-2.2c-0.7-8.2-4.8-16.4,0.2-24.7c0.8-1.4,0.5-3.6,0.5-5.4c0-22.1,0-44.2,0-66.4
	c0-1,0-2,0-3c0-1.7-0.3-3.4,2.4-3.2c2.6,0.1,1.8,1.9,1.8,3.2c0.1,12,0,23.9,0,35.9C137,234.2,136.9,234.2,136.9,234.2z"/>
<path class="st0" d="M149.1,118.4c0,10.3,0,20.6,0,30.9c0,5-2,7.3-6.1,7.3c-4,0-6.1-2.4-6.1-7.4c0-21.1,0.1-42.2,0.1-63.3
	c0-4.3,2.1-6.7,6.2-6.8c4.4-0.1,6.1,2.8,6.1,6.9c0,10.8,0,21.6,0,32.4C149.2,118.4,149.2,118.4,149.1,118.4z M143.5,152.2
	c0.4-1.2,0.8-2,0.8-2.7c0.2-20.6,0.3-41.2,0.4-61.8c0-1.3,0.2-3.3-1.4-3.3c-2.3,0-1.2,2.3-1.3,3.5c-0.2,19.6-0.3,39.2-0.4,58.8
	C141.7,148.4,141.1,150.3,143.5,152.2z"/>
<path class="st0" d="M132.3,118c0,10.5-0.1,21,0,31.5c0.1,4.2-1.4,6.8-5.8,7.1c-4,0.3-6.5-2.2-6.5-7.1c0-21.3,0.2-42.6,0.3-63.9
	c0-4,2-6.4,6-6.4c4,0,5.9,2.3,5.9,6.4C132.3,96.3,132.3,107.2,132.3,118z M127.8,118.2c0-10.3,0-20.6,0-31c0-1.2,0.5-3.1-1.6-2.9
	c-1.6,0.2-1,1.9-1,2.9c-0.1,20.3-0.1,40.6-0.1,60.9c0,1.2-0.7,3.2,1.1,3.4c2.2,0.2,1.6-2,1.6-3.4
	C127.8,138.1,127.8,128.2,127.8,118.2z"/>
<path class="st1" d="M143.5,152.2c-2.4-1.8-1.8-3.8-1.8-5.5c0.1-19.6,0.2-39.2,0.4-58.8c0-1.2-1-3.5,1.3-3.5c1.6,0,1.4,2,1.4,3.3
	c-0.1,20.6-0.2,41.2-0.4,61.8C144.3,150.2,143.9,150.9,143.5,152.2z"/>
<path class="st1" d="M127.8,118.2c0,10,0,20,0,30c0,1.3,0.6,3.5-1.6,3.4c-1.7-0.1-1.1-2.2-1.1-3.4c0-20.3,0-40.6,0.1-60.9
	c0-1-0.6-2.7,1-2.9c2.1-0.2,1.6,1.7,1.6,2.9C127.8,97.5,127.8,107.9,127.8,118.2z"/>
</svg>
