<?xml version="1.0" encoding="utf-8"?>
<!-- Generator: Adobe Illustrator 25.3.1, SVG Export Plug-In . SVG Version: 6.00 Build 0)  -->
<svg version="1.1" id="Layer_1" xmlns="http://www.w3.org/2000/svg" xmlns:xlink="http://www.w3.org/1999/xlink" x="0px" y="0px"
	 viewBox="0 0 9.3 9.3" style="enable-background:new 0 0 9.3 9.3;" xml:space="preserve">
<style type="text/css">
	.st0{fill:#848587;}
</style>
<g>
	<path class="st0" d="M6.2,2.5L6,2.8C5.9,2.9,6,3.1,6.2,3.1l1.6,0.1c0.2,0,0.4-0.2,0.3-0.4L7.6,1.4C7.5,1.2,7.3,1.2,7.2,1.3L6.9,1.7
		C6.1,1.1,5.1,0.9,4,1.1c-1.5,0.3-2.7,1.5-2.9,3C0.8,6.3,2.6,8.3,4.7,8.3c1.5,0,2.8-0.9,3.4-2.3c0.1-0.2,0-0.5-0.1-0.6
		C7.7,5.1,7.3,5.2,7.2,5.6C6.7,6.8,5.4,7.5,4.1,7.2c-1-0.2-1.7-1.1-1.9-2.1C1.9,3.5,3.2,2,4.7,2C5.3,2,5.8,2.2,6.2,2.5L6.2,2.5z"/>
</g>
</svg>
