<?xml version="1.0" encoding="utf-8"?>
<!-- Generator: Adobe Illustrator 25.3.1, SVG Export Plug-In . SVG Version: 6.00 Build 0)  -->
<svg version="1.1" id="Layer_1" xmlns="http://www.w3.org/2000/svg" xmlns:xlink="http://www.w3.org/1999/xlink" x="0px" y="0px"
	 viewBox="0 0 250 250" style="enable-background:new 0 0 250 250;" xml:space="preserve">
<style type="text/css">
	.st0{display:none;}
	.st1{display:inline;}
	.st2{fill:#FFFFFF;}
	.st3{fill:#31AAE1;}
	.st4{fill:#3CABE0;}
	.st5{fill:#47ABDF;}
	.st6{fill:#F3F7F8;}
	.st7{fill:#34A6DD;}
	.st8{fill:#32A9DD;}
	.st9{fill:#F4F8F8;}
	.st10{fill:#28A2D7;}
	.st11{fill:#2BAEDE;}
	.st12{fill:#29B3E1;}
	.st13{fill:#FBFCF5;}
	.st14{fill:#F8FBF5;}
	.st15{fill:#FDFEFF;}
	.st16{fill:#FAFCFD;}
	.st17{fill:#31A8DF;}
	.st18{fill:#2BADE1;}
	.st19{fill:#2BACDF;}
	.st20{fill:#35A8DF;}
	.st21{fill:#28AEDD;}
	.st22{fill:#32ACE0;}
	.st23{fill:#3BA7DE;}
	.st24{fill:#25A5DE;}
	.st25{fill:#29A8DF;}
	.st26{fill:#28ACDF;}
	.st27{fill:#2BAFE1;}
	.st28{fill:#35A5DC;}
	.st29{fill:#2AAEDF;}
	.st30{fill:#28AEDC;}
	.st31{fill:#3CA7DF;}
	.st32{fill:#39A6DE;}
	.st33{fill:#2DADDD;}
	.st34{fill:#2BADE3;}
	.st35{fill:#27A7DF;}
	.st36{fill:#3AA7DF;}
	.st37{fill:#2EADDE;}
	.st38{fill:#2BAEE0;}
	.st39{fill:#35A7DE;}
	.st40{fill:#2CA6DC;}
	.st41{fill:#2BAAD9;}
	.st42{fill:#3BABDD;}
	.st43{fill:#27ACD9;}
	.st44{fill:#36A6DE;}
	.st45{fill:#2AAFE2;}
	.st46{fill:#3AA6DD;}
	.st47{fill:#2DA1DB;}
	.st48{fill:#2CA9D9;}
	.st49{fill:#32A3DC;}
	.st50{fill:#2DADE1;}
	.st51{fill:#2CA3DC;}
	.st52{display:none;fill:#31AAE1;}
</style>
<g class="st0">
	<g class="st1">
		<path class="st2" d="M129.7,321.8c-63.7,0-127.4-0.1-191.1,0.1c-4.9,0-5.9-1-5.9-5.9c0.2-127.4,0.2-254.8,0-382.2
			c0-4.9,1-5.9,5.9-5.9c127.4,0.2,254.8,0.2,382.2,0c4.9,0,5.9,1,5.9,5.9c-0.2,127.4-0.2,254.8,0,382.2c0,4.9-1,5.9-5.9,5.9
			C257.1,321.7,193.4,321.8,129.7,321.8z"/>
		<path class="st3" d="M29.4,90.1c0.1-1.7,0.1-3.5,1.7-4.6c2.8,1.7,4.8,4.2,6.9,7.8c-1.8-3.7-4-6.1-6.9-7.7c1.6-7.9,7-13.9,10.1-21
			c1-2.3,1.8-4.7,5.2-3.6c1.1,1.4,0.7,3,0.3,4.5c-0.3,1-1,1.8-1.3,2.7c0.5-0.7,0.9-1.3,1.3-2.1c0.6-2.4,1.8-4.8-1.1-6.6
			c-0.3-0.7,0-1.3,0.6-1.7c0.5-0.5,1-1.1,1.5-1.6c0.6-1.2,1.4-2.3,3-2.2c1.8,0.9,3.9-0.8,5.7,0.5c0.6,0.7,1.1,1.7,2.3,1.3
			c0.1,0,0.2-0.4,0.1-0.5c-0.4-0.2-0.9-0.4-1.4-0.5c-1.1-1.3-3-1.8-3.3-3.8c8.8-12,21.3-19.2,34.7-24.4
			c34.4-13.5,67.7-11.4,98.9,9.5c-0.1,2.3,1.5,1.7,2.8,1.7c6,5,12,10,18,15c1.5,0.7,2.6,1.8,3.2,3.4c10.1,14,18.9,28.6,22.2,45.9
			c7.1,37.1-1.5,69.7-28.1,97c-2,0.7-3.6,0.1-4.9-1.3c-0.5-0.1-0.8-0.5-0.6-1.1c-0.7,1,0.8,0.8,0.8,1.6c0.7,2.6-1.2,4-2.3,5.8
			c-2.5,7.8-10.9,8.6-16.2,13.2c-4.6,4-10.5,6.5-16.8,7.7c-2.3-2.8-5.1,0-7.7-0.7c-2.1,0-4.2,0.1-6.8-0.1c2.7,0.4,5,0,7.2,0.3
			c0.3,0.3,0.5,0.6,0.8,0.8c-3.8,6.2-10.5,4.4-16,5.3c-15.2,2.4-30.3,1.4-44.9-3.9c-0.4-2.5,1.4-2.4,3-2.5c2,0.1,4,0.1,5.9,0
			c-1.5,0.1-2.9,0-4.4,0c-4.3-0.2-8.5-1-12.9-0.5c-3-1.2-6.4-1.9-9-3.7c-6.8-4.7-13.8-7.2-22.1-4.7c-0.9-0.6-1.4-2-2.9-1.3
			c0.8,0.2,1.3,0.7,1.6,1.4c-13.6,4-27.6,5.4-43.1,8.8c5-14.5,9.2-27.6,14.2-40.3c3.2-8.2,3.5-15.5,0.2-24.1
			c-7.6-19.8-8.5-40.3-2.6-61c4.7,1.2,2.7,4.6,2.5,7.4c0,1.1-0.2,1.7-0.1,0.6c0-0.1,1-0.2,1.4-0.5c0.8,0.3,1.5,0.7,1.2,1.7
			c0.8,0,0.7-0.2,0.2-0.9c-1.4-2-2.5-4.1-2-6.7c0.1-0.7,0.4-1.4,0.7-2c1.4-2.1,0.3-3.8-0.8-5.5C29.3,92.1,28.8,91.2,29.4,90.1z"/>
		<path class="st4" d="M29.7,107c-0.1,1.3-0.2,2.6-0.4,3.9c-2.6-3.8,0.5-8.5-2.7-12.1c0.2-3.1,1-6.1,2.8-8.7
			c0.6,0.7,1.3,1.4,1.9,2.1c1.2,2.2,1.3,4.4,0,6.6l0,0C29.2,101.2,31.7,104.5,29.7,107z"/>
		<path class="st5" d="M101.8,225c-1.3,0-2.6,0.3-3.3,1.6c-3-0.4-5.8-1.2-8.3-3c3.8-3.7,7.7-1.1,11.6-0.2c0.6,0.4,0.8,0.7,0.6,1.1
			C102.2,224.9,102,225,101.8,225z"/>
		<path class="st6" d="M46,60.9c-1.6,1.2-3.2,2.4-4.7,3.7c-3.1-5.7,0.2-6.8,5-6.7c-0.1,0.5-0.1,1.1,0.1,1.6
			C46.7,60,46.6,60.5,46,60.9z"/>
		<path class="st7" d="M200.3,197.2c1.8,0.6,3.7,1.3,5.5,1.9c-1.8,2.4-3.5,5-7,5C199.2,201.8,199.7,199.5,200.3,197.2L200.3,197.2z"
			/>
		<path class="st8" d="M55.9,54.5c-1.7-0.3-4,5.5-5.2-0.5l-0.6-0.6l0.4-0.7c0.8-1.4,2.2-1.6,3.6-1.6c1.6,0.6,2.8,1.7,3.5,3.4
			C57,55.1,56.5,55.1,55.9,54.5z"/>
		<path class="st6" d="M50.5,52.7c0.1,0.4,0.2,0.9,0.2,1.3c-1,0.7-2,1.4-3,2.2c-1-2.1-4.4-2.2-4.6-5.5
			C45.8,51.4,48.2,52.1,50.5,52.7z"/>
		<path class="st9" d="M211.7,56.2c-1.1-1.1-2.1-2.2-3.2-3.4c2.5-0.7,5-1.4,7.5-2.1C216.5,54.2,212.5,54,211.7,56.2z"/>
		<path class="st10" d="M159.3,223.4c2.2,0.3,5.9-5.7,6.6,1.5c-2.1,0.6-4.2,2.1-6.4,0.3c0,0-0.2-0.3-0.2-0.3c-0.5-0.4-0.6-0.7-0.5-1
			C158.9,223.6,159.1,223.4,159.3,223.4z"/>
		<path class="st11" d="M57.9,215.4c-2.2-0.2-4.1-1-6-2.9c3.5-0.6,6.5-1.8,7.4,2.7c0,0-0.6,0.2-0.6,0.2L57.9,215.4z"/>
		<path class="st12" d="M190.5,37.9c-1.6,2.3-3.8,2.5-5.1,0.3c-1.1-1.8,1.4-1.5,2.4-2C188.7,36.7,189.6,37.3,190.5,37.9z"/>
		<path class="st13" d="M198.1,216c0.5-2.1,1.7-3.3,3.7-3.4c0.3,0,1.1,1.5,1,1.5C201.5,215.3,200.3,216.9,198.1,216z"/>
		<path class="st13" d="M62,33.4c-1.5,2.7-2.6,4.1-4.9,4C56.4,34,59,34.2,62,33.4z"/>
		<path class="st13" d="M203.2,37.4c-3.2,0.2-4.2-1.2-5.2-3C200.7,33.2,202,34.6,203.2,37.4z"/>
		<path class="st14" d="M11.8,223c2.5,0.8,2.3,2.5,2.9,4.3C11.5,226.6,11.9,224.9,11.8,223z"/>
		<path class="st15" d="M152.5,162.9c0,0.5,0.1,1,0.3,1.4c2.4,5.5,2.2,10.9-0.2,16.3c-12.8,0.2-25.5,0.2-38.3,0.5
			c-4.5,0.1-6.3-1.4-6.2-6c0-3.6,1.5-7.6-1.3-10.9c-0.4-0.4-0.5-0.7-0.3-1c0.2-0.3,0.4-0.4,0.5-0.4c0.5,0,1-0.1,1.5-0.4
			c7.1-0.3,9.5-3.1,8.5-10.9c-1.3-9.3-0.8-19,0-28.5c0.4-4.6,0.4-8.9-5.6-9.8c-3-0.5-3.9-2.5-3.7-5.3c0.1-2.7,0.3-5.5,0-8.2
			c-0.6-5.7,2-8.3,7.4-8c10,0.6,20.1-2.1,29.9,1.7c2.1,2.7,1.2,5.8,1.2,8.7c0.4,18.2-0.8,36.5,0.8,54.7c-0.5,3.7,2.6,4.1,4.9,5.3
			C152.1,162.3,152.3,162.6,152.5,162.9z"/>
		<path class="st16" d="M144,77.2c-5.9,5.9-12.6,8.9-20.5,4.2c-6.9-4-8.1-10.4-6.9-17.7c1-6.1,7.8-7.2,9.9-12.2
			c3.5-0.6,6.8-0.5,9.6,1.9c3.3,2.1,6.4,4.3,8.7,7.6c3.7,2.8,2,6.4,1.6,9.9c-0.1,0.6-0.2,1.1-0.2,1.7C147.1,74.9,146,76.2,144,77.2z
			"/>
		<path class="st17" d="M144.6,161.1c-0.1-22.3-0.1-44.5-0.2-66.8c-0.4-0.9-1.4-1.3-2.1-1.9c-0.3-0.6-0.4-1.2-0.4-1.9
			c0.2-0.6,0.5-1.2,1-1.6c2.1-0.9,2.7,2.8,4.9,1.6c1-0.9,2.1-1.1,3.2-0.4c0.4,0.5,0.6,0.9,0.4,1.4c-0.1,0.5-0.3,0.7-0.4,0.7
			c-2.2,1.9-3,4.9-3,7.3c0.3,17.8-1.8,35.7,1.1,53.5c0.5,3,0.5,5.2,4.3,6.3c3.4,1,0.5,2.6-0.9,3.6c0,0,0.1,0,0.1,0
			C150.4,160.5,146.9,163.1,144.6,161.1z"/>
		<path class="st4" d="M142.8,92c0.5,0.7,1,1.5,1.6,2.2c-10.5-1.7-21.2-0.3-31.7-0.8c-3.1-0.1-4.9,1.4-4.2,4.4
			c1.2,5.4-5,14.7,7.5,14.5c2.5-0.1,2,2.8,2.1,4.6c0.1,13.6,0.1,27.2,0,40.8c0,7.9-5.9,4-9.5,4.6c2.6-2.7,8.5-2,8-7.8
			c-0.6-0.8-0.9-1.8-0.9-2.8c0.7-9.9-0.8-20,0.8-29.9c0-0.6,0-1.2,0-1.9c-0.2-4.1-2.5-6.1-6.4-6.4c-3.9-0.5-3.3-3.5-3.3-6.1
			c0-5.1,0-10.1,0-15.2c2.1-2.2,4.5-3.5,7.6-2.7C123.8,90.8,133.5,89,142.8,92z"/>
		<path class="st18" d="M113.4,90.6c-2.2,0.5-4.4,1.1-6.7,1.6c-0.8-1.8-1.6-3.7-2.6-5.9c13.2,0.9,25.9,1.7,38.7,2.6
			c0,0.5,0,1.1,0,1.6C133,91.9,123.2,91.8,113.4,90.6z"/>
		<path class="st19" d="M149.4,184.1c-0.4,2.1,1.1,5.5-3.3,4.9c-7.2-0.3-14.5,0.2-21.7,0c-2.7-0.1-5.5,0.6-7.8-1.6
			c-1.3-0.7-1.6-1.9-1.6-3.3c10-1.8,20.1-0.3,30.1-0.8C146.5,183.3,148.1,183,149.4,184.1z"/>
		<path class="st20" d="M154.3,98.8c1-0.5,1.6,0,1.6,0.9c0,16.9,0,33.8,0,50.7c0,0.2-0.1,0.6-0.3,0.7c-0.4,0.1-0.9,0.1-1.4,0.2
			C153,133.7,153,116.2,154.3,98.8z"/>
		<path class="st21" d="M154.3,98.8c0,17.5,0,35,0,52.5c-2.7-2.4-1.6-5.6-1.6-8.5c-0.1-14.7-0.1-29.3-0.1-44v0
			C153.2,98.8,153.8,98.8,154.3,98.8z"/>
		<path class="st22" d="M144,77.2c0.7-1.6,1.5-3.1,2.2-4.7c0.3,0,0.5-0.2,0.8-0.1c3.8,0.3,0.7-6.5,5.1-5c1.4,0.5,2.8,2.9,0.9,4.8
			C150.5,74.6,150.4,81.5,144,77.2z"/>
		<path class="st23" d="M116.6,187.3c9.3-0.7,18.7,1.3,28-1.3c2.9-0.8,1.8,1.5,1.5,3c-0.5,0-1.1,0-1.6,0c-9.3,1.3-18.6,1.3-27.9,0
			C116.6,188.4,116.6,187.9,116.6,187.3z"/>
		<path class="st24" d="M116.5,121.8c0,10.3,0,20.6,0,30.9c-1.6,0.6-2,0-1.5-1.5C115.9,141.5,113,131.5,116.5,121.8z"/>
		<path class="st25" d="M146.1,184c-10.4,0-20.8,0-31.2,0c10.3-3.5,20.8-0.9,31.2-1.5c0.5,0.3,0.6,0.7,0.5,1
			C146.5,183.9,146.3,184,146.1,184z"/>
		<path class="st26" d="M116.6,189c9.3,0,18.6,0,27.9,0C135.2,191.6,125.9,191.6,116.6,189z"/>
		<path class="st27" d="M115,151.2c0.5,0.5,1,1,1.5,1.5c0,0.6,0,1.2,0,1.8c-1.1,0-2.9-0.4-3.1,0.1c-3.7,6.3-5.7,0.9-8.5-1.2
			C108.3,152.3,112,153.5,115,151.2z"/>
		<path class="st28" d="M55.9,54.5c0.5,0,1.1,0,1.6,0c1.5-0.1,2.1-4.2,4.2-1c1.6,2.4,0,4-2.2,4.9C55.2,60,56.2,56.6,55.9,54.5z"/>
		<path class="st29" d="M31.1,85.5c5.5,0,6.7,3.4,6.6,9.4C35.1,91.1,33.1,88.3,31.1,85.5C31.1,85.5,31.1,85.5,31.1,85.5z"/>
		<path class="st22" d="M146.4,70.8c-0.5-3.3-1.1-6.6-1.6-9.8c1.9-0.7,4.6-2.5,4.2,1.6C148.8,65.3,147.3,68,146.4,70.8z"/>
		<path class="st30" d="M152.6,180.7c0.1-5.4,0.1-10.9,0.2-16.3c0.5,0,1,0,1.5,0c1.3,4.9,1.2,9.8,0,14.8c0,1.1,0,2.2,0,3.3
			c-0.6,0.6-1.1,0.7-1.6,0C152.7,181.8,152.6,181.3,152.6,180.7z"/>
		<path class="st31" d="M33,190.6c1.3,1.9,2.7,3.7,4,5.7c1,1.6,0.1,3.4-1,4.2c-1.3,1-1.7-1.4-3-1.7C31.2,196.1,31.5,193.3,33,190.6z
			"/>
		<path class="st32" d="M211.7,184c0.4-3.2,1.8-5.5,5.8-6c0.3,3.5-2,4.7-4.2,6C212.8,184.8,212.3,184.8,211.7,184z"/>
		<path class="st33" d="M228.6,151.2c-0.7-3.8-1.4-7.5-2.4-13.2C229.6,143.1,230.1,146.8,228.6,151.2z"/>
		<path class="st33" d="M226.5,110.2c0.7-3.8,1.4-7.6,2.3-12.3C230.7,103,229.4,106.7,226.5,110.2z"/>
		<path class="st32" d="M47.7,66c-0.6,2.8-0.8,6-5.5,6.4c0.1-3.1,1.2-5.1,3.8-6.4C46.6,65.2,47.2,65.2,47.7,66z"/>
		<path class="st34" d="M151,90.6c-1.1,0-2.2,0-3.3,0c0-2.5,0-4.9,0-7.6c2.5,1.4,3,3.7,3.3,6c0.5,0.4,0.6,0.7,0.4,1.1
			C151.3,90.4,151.2,90.6,151,90.6z"/>
		<path class="st35" d="M107,162.8c-0.1,0.5-0.2,1-0.2,1.5c0,3.7,0,7.5,0,11.2C105.9,171.2,103.3,166.8,107,162.8z"/>
		<path class="st36" d="M154.3,179.1c0-4.9,0-9.8,0-14.8C157,169.3,156.9,174.2,154.3,179.1z"/>
		<path class="st20" d="M136.2,53.4c-3.2-0.8-6.7,0.1-9.6-1.9C130.6,47.7,133.5,50.1,136.2,53.4z"/>
		<path class="st37" d="M29.7,107c0.4-2.8-1.1-5.9,1.6-8.2c0.5,3.8,1.1,7.7,1.7,12.4C31.5,109.2,30.6,108.1,29.7,107z"/>
		<path class="st38" d="M33,190.6c0,2.7,0,5.5,0,8.2C28.4,196.1,29.3,193.3,33,190.6z"/>
		<path class="st39" d="M196.1,55.4c3.9-1.5,5,0.8,7.8,5C200,57.9,198.1,56.6,196.1,55.4z"/>
		<path class="st40" d="M110.1,113.6c5-0.7,7.3,1.3,6.4,6.4C115.1,117.1,112.9,115.1,110.1,113.6z"/>
		<path class="st41" d="M159.3,223.4c0,0.5,0,1-0.1,1.5c-3.2,0-6.4,0-9.5,0c0-0.5,0-1-0.1-1.5C152.8,223.4,156,223.4,159.3,223.4z"
			/>
		<path class="st42" d="M47.7,66c-0.5,0-1.1,0-1.6,0c0-1.7,0-3.4-0.1-5.1c0.1-0.5,0.2-1,0.3-1.5C51.5,60.6,48.5,63.5,47.7,66z"/>
		<path class="st43" d="M35.4,161.9c0.5,0.4,1.4,0.7,1.5,1.3c0.3,1.4-0.2,2.6-1.6,3.2c-0.2,0.1-1-1.1-1.3-1.8
			C33.5,163.4,34,162.5,35.4,161.9z"/>
		<path class="st44" d="M36.3,154.7c-0.3,0.6-0.6,1.7-1.4,2.2c-0.8,0.5-1.6-0.3-1.4-1.2c0.3-1,0.7-2.2,1.5-2.7
			C36.2,152.2,36,153.6,36.3,154.7z"/>
		<path class="st7" d="M200.3,197.2c-1.5-0.3-3.4-0.5-2.4-2.7c0.3-0.7,2-1.7,2.3-1.5C201.7,194.2,199.9,195.7,200.3,197.2
			L200.3,197.2z"/>
		<path class="st45" d="M166.2,31.5c-0.7-0.5-1.8-0.9-2.3-1.6c-0.7-1,0.4-1.6,1.1-1.4c1,0.2,2.1,0.7,2.7,1.4
			C168.5,30.9,167.3,31.1,166.2,31.5z"/>
		<path class="st46" d="M151,90.6c0-0.5,0-1.1,0-1.6c3,2.9,1.1,6.6,1.6,9.8c0,0,0,0,0,0c-2.4-1.7-1.4-4.3-1.6-6.6
			C151,91.6,151,91.1,151,90.6z"/>
		<path class="st47" d="M152.7,182.4c0.5,0,1.1,0,1.6,0c-0.9,2.6-2.7,2.9-4.9,1.6c-1.1,0-2.2,0-3.3,0c0-0.5,0-1,0.1-1.5
			C148.4,182.5,150.5,182.5,152.7,182.4z"/>
		<path class="st48" d="M101.8,225c0-0.5,0-1.1,0-1.6c2.7,0,5.3,0,8,0c0,0.5,0,1.1,0,1.6C107.2,225,104.5,225,101.8,225z"/>
		<path class="st49" d="M114,62.2c1.4,2.3,0.8,3.9,0.5,6.1C112.9,66.2,113.1,64.5,114,62.2z"/>
		<path class="st50" d="M226.7,161.4c-0.4,0.6-0.8,1.2-1.2,1.8c-0.5-0.5-1.4-1.2-1.3-1.6c0.3-0.9,1.1-1.7,1.7-2.5
			C226.1,159.8,226.4,160.6,226.7,161.4z"/>
		<path class="st37" d="M31.3,98.8c0-2.2,0-4.4,0-6.6C32.4,94.4,36.3,96.6,31.3,98.8z"/>
		<path class="st48" d="M149.5,26c1.7-1.3,3.4-1.4,5-0.3C152.9,27.3,151.2,26.2,149.5,26z"/>
		<path class="st42" d="M211.7,184c0.5,0,1.1,0,1.6,0c-0.3,2-0.5,4-2.6,5.2C209.4,187.1,211.3,185.7,211.7,184z"/>
		<path class="st48" d="M110.7,25.8c-2.6,1-4.1,0.9-6.1,0C106.7,24.6,108.4,24.7,110.7,25.8z"/>
		<path class="st3" d="M144.6,161.1c2.7,0.5,5.9-1.2,8.1,1.8C150,162,146.7,164.1,144.6,161.1z"/>
		<path class="st51" d="M113.4,90.6c9.8,0,19.6,0,29.4-0.1c0,0.5,0,1,0,1.5C133,91.4,123.1,93.9,113.4,90.6z"/>
	</g>
</g>
<circle class="st3" cx="131.6" cy="125" r="104.5"/>
<polygon class="st52" points="66.5,143.1 -9.3,249.3 128.6,170.1 "/>
<line class="st3" x1="34.4" y1="112.3" x2="7.4" y2="256.6"/>
<polygon class="st3" points="214.9,148.1 160.3,202.4 239.5,227.1 "/>
<g>
	<g>
		<path class="st2" d="M121.9,85.3V69.8h15.5v15.5H121.9z M121.9,180.2v-78.8h15.5v78.8H121.9z"/>
	</g>
</g>
</svg>
