<svg xmlns="http://www.w3.org/2000/svg" viewBox="0 0 9.27 9.27"><defs><style>.cls-1{fill:none;stroke:#ebb51f;stroke-miterlimit:10;}</style></defs><g id="Layer_2" data-name="Layer 2"><g id="Stars"><g id="AI"><path class="cls-1" d="M5.08.79A.48.48,0,0,0,4.63.5a.5.5,0,0,0-.45.29l-1,2.14L.93,3.27a.51.51,0,0,0-.41.35.54.54,0,0,0,.13.53L2.28,5.81,1.89,8.17a.51.51,0,0,0,.21.5.49.49,0,0,0,.53,0l2-1.11,2,1.11a.49.49,0,0,0,.53,0,.5.5,0,0,0,.2-.5L7,5.81,8.62,4.15a.54.54,0,0,0,.12-.53.5.5,0,0,0-.4-.35L6.09,2.93Z"/></g></g></g></svg>