<?xml version="1.0" encoding="utf-8"?>
<!-- Generator: Adobe Illustrator 25.3.1, SVG Export Plug-In . SVG Version: 6.00 Build 0)  -->
<svg version="1.1" id="Layer_1" xmlns="http://www.w3.org/2000/svg" xmlns:xlink="http://www.w3.org/1999/xlink" x="0px" y="0px"
	 viewBox="0 0 367 367" style="enable-background:new 0 0 367 367;" xml:space="preserve">
<style type="text/css">
	.st0{fill:#181914;}
	.st1{fill:#E96097;}
</style>
<path class="st0" d="M294,138.9c1.4,4.3,2.7,8.2,4,12c1.3,3.8,0.6,7.3-2.2,10c-1.8,1.7-1.9,3.3-1,5.1c0.9,1.9,0.7,3.4-1,4.1
	c-2.4,1-3.2-1-3.8-2.7c-2.9-8.3-6-16.6-8.5-25.1c-1.1-4-3.5-3.6-6.3-3.4c-3.5,0.2-1.8,3.1-1.8,4.6c-0.1,22.6-0.1,45.2-0.1,68.8
	c4.1-4.6,7.8-8.6,11.4-12.8c6.4-7.3,12.9-14.6,19.2-22c1.1-1.3,2.3-2.6,4.1-2c1.9,0.7,1.6,2.6,1.6,4.3c0,27.4,0,54.8,0,82.3
	c0,3.5-1.5,4.7-4.8,4.6c-3.5-0.1-6.9,0-10.4,0c-4.5,0-9.2-1.4-10,5.9c-0.4,3.5-4.3,5-8.1,5.3c-7.6,0.5-15.1,0-22.7,0
	c-28.9,0.1-57.8,0-86.6,0.6c-8.3,0.2-14.7-4-21.7-6.9c-2.5-1-4.8-1.7-7.5-1.7c-11.2,0.1-22.5-0.6-33.7,0.2
	c-12.9,0.9-21.5-10.4-21.6-21.4c-0.2-56-0.2-112,0-168c0-12.8,10.8-22.9,23.3-22.6c12.8,0.3,22.2,10,22.4,22.9
	c0.1,8.5,0.1,8.5,8.5,8.5c38.8,0,77.6,0,116.4,0c6.7,0,10.4-3.6,10.5-10.2c0.1-5.3,2.2-7.7,6.8-7.7c4.4,0,7.2,2.7,7,7.7
	c-0.1,3.4,0.9,5.6,3.4,8c4.8,4.5,5.5,10.4,2.9,16.3c-1,2.2-0.9,3.9-0.2,6c2.5,6.9,4.9,13.9,7.2,20.9c0.8,2.6,2,3.9,4.9,3.4
	c1.6-0.2,3.3,0,5-0.1c1.9,0,3.9,0,3.8,2.7c-0.1,2.3-1.8,2.4-3.6,2.3C298.8,138.9,296.6,138.9,294,138.9z M247.2,138.9
	c-2.8,0-5.1-0.1-7.4,0c-1.8,0.1-3-0.5-3.1-2.4c-0.1-2.1,1.3-2.8,3.3-2.7c2.1,0.1,4.3-0.1,6.4,0.1c1.8,0.1,2.9-0.4,3.3-2.1
	c2.3-11,10.8-20.6,6.5-33.3c-1.1-3.4-1.8-4.2-5-4.2c-39.1,0.1-78.2,0.2-117.3-0.1c-4.6,0-5.6,1.3-5.6,5.7
	c0.2,48.9,0.1,97.8,0.1,146.6c0,1.9,0.9,5-2.2,5.1c-2.9,0.1-2.6-2.8-2.8-4.9c-0.7-6.1-4.4-10.7-9.1-13.9c-5.4-3.6-11.8-3.6-17.2,0.1
	c-5.3,3.7-9.3,8.9-9.1,15.9c0.3,7.6,6.2,16.6,16.4,16c11.5-0.7,23.1-0.3,34.6-0.1c4.5,0.1,8.7-0.5,12.7-2.9
	c4.8-2.8,9.9-3.5,15.5-3.5c20.9,0.2,41.9-0.2,62.8-0.2c2.9,0,4.8-0.9,6.7-3.1c9.8-11.7,19.7-23.3,29.7-34.9c1-1.2,1.6-2.3,1.6-3.9
	c-0.1-24.9-0.1-49.9-0.1-74.8c0-2.2-0.7-2.6-2.8-2.8c-2.9-0.1-4.3,0.7-5.3,3.6c-2.7,8.6-5.8,17-8.8,25.5c-0.5,1.5-1.4,2.8-3.1,2.5
	c-1.5-0.2-2.6-1.6-1.9-2.9c1.8-3.5,0-5.7-1.9-8.3c-2.1-2.9-1.8-6.2-0.7-9.4C244.6,146.3,245.9,142.8,247.2,138.9z M122.9,232.8
	c0.2-0.6,0.3-0.7,0.3-0.8c0-50.7,0.1-101.3,0-152c0-7.3-4.1-12.5-10.7-15.3c-6.8-2.9-13.2-1.7-18.9,3.2c-5.2,4.5-6.1,10.6-6.1,17
	c0,48.2,0,96.4,0,144.6c0,1.1-0.5,2.3,0.4,3.2C102,222.9,110.8,222.9,122.9,232.8z M241,258.3c3.1,0,5.4-0.1,7.7,0
	c12,0.9,24.4-3.2,35.8,3.3c0.5,0.3,1.3,0.1,2,0.1c4.8,0,9.6,0.1,14.4,0c1.4,0,3.7,1.1,3.7-1.7c0-1.7,1.1-4.1-2.3-4.3
	c-1.4-0.1-2.3-1.3-2.2-2.8c0.1-1.4,0.9-2.1,2.3-2c2.3,0.2,2.3-1.2,2.2-2.8c-0.1-1.5,0.7-3.5-2.1-3.5c-1.5,0-2.5-1-2.4-2.6
	c0-1.6,1.2-2.3,2.6-2.4c2.7-0.2,1.8-2.3,1.9-3.7c0.1-1.4,0.6-3.1-1.9-3.2c-1.5,0-2.5-0.9-2.6-2.4c-0.1-1.5,0.9-2.6,2.4-2.6
	c2.3,0,2.1-1.4,2.2-3c0-1.6,0-2.9-2.2-3c-1.5-0.1-2.5-1-2.4-2.6c0-1.3,0.9-2.3,2.2-2.3c2,0,2.4-1,2.4-2.8c0-1.8-0.1-3.2-2.4-3.4
	c-1.3-0.1-2.1-0.9-2.1-2.3c0-1.6,0.9-2.5,2.4-2.5c1.8,0,2.1-1,2.1-2.5c0-5.9,0-11.7,0-18.6C282.6,209,262.2,233.2,241,258.3z
	 M209.9,273c0-0.1,0-0.2,0-0.3c13.7,0,27.4,0,41.1,0c3.1,0,5.6,0.5,5.5-4.3c-0.1-4.2-1.3-5.1-5.3-5.1c-27.7,0.3-55.4,0.3-83.2,0.3
	c-3.7,0-4.8,0.9-4.7,4.6c0.1,3.4,0.6,4.9,4.6,4.9C181.9,272.9,195.9,273,209.9,273z M270.8,107.2c5.4-0.1,9.5-4.5,9.3-10
	c-0.1-5.3-4.2-9.2-9.5-9.2c-5.4,0-9.7,4.3-9.7,9.7C260.9,102.9,265.4,107.3,270.8,107.2z M291.9,157.5c1.9-2.2,1.7-3.8,1.1-5.7
	c-4.6-13.1-9-26.3-13.6-39.4c-0.2-0.6,0.1-2.7-2-1.7c-1.6,0.8-0.9,1.8-0.6,2.8C281.7,128.1,286.7,142.6,291.9,157.5z M249.2,157.3
	c5.3-15.1,10.4-29.7,15.5-44.3c0.4-1.2,0-2-1.1-2.4c-2-0.7-1.5,1.1-1.8,2c-4.5,12.8-9,25.7-13.4,38.5
	C247.8,153,247.1,155,249.2,157.3z M274.5,272.8c3.5,0.2,6.1-0.9,6.2-4.3c0.1-4.2-3.1-4.8-6.4-5.1c-4.4-0.4-2.9,2.9-3,5
	C271.1,270.9,270.7,273.7,274.5,272.8z M273.2,119.7c0,4.8,0,8.6,0,12.3c0,2.9,2.2,1.8,3.5,1.8c2.1-0.1,1-1.7,0.7-2.5
	C276.3,127.7,274.9,124.2,273.2,119.7z M266.3,267.9c-1.4-1.1,1.4-4-2.3-4.2c-3.8-0.2-2.5,2.7-2.4,4.4c0.1,1.7-1.7,4.7,2.2,4.6
	C267.7,272.8,265.1,269.6,266.3,267.9z M262.9,133.5c4,1.3,5.4,0.1,5-3.8c-0.3-2.6-0.1-5.3-0.1-8c-0.2,0-0.5-0.1-0.7-0.1
	C265.8,125.5,264.4,129.3,262.9,133.5z M157.7,271.1c0-1.9,0-3.8,0-5.8c-2.2,0.7-4.1,1.2-5.5,2.8C153.6,270,155.6,270.5,157.7,271.1
	z M268.8,79.8c0.2,1.1-0.7,3,1.8,3c1.3,0,2.3-0.4,2-1.9c-0.3-1.5-0.1-3.6-2.1-3.9C268.8,76.7,268.9,78.4,268.8,79.8z"/>
<path class="st1" d="M122.9,232.8c-12.1-9.9-20.9-9.9-34.8-0.1c-0.9-1-0.4-2.2-0.4-3.2c0-48.2,0-96.4,0-144.6
	c0-6.5,0.9-12.6,6.1-17.1c5.6-4.8,12.1-6,18.9-3.2c6.6,2.8,10.7,7.9,10.7,15.3c0.1,50.7,0,101.3,0,152
	C123.2,232.1,123.1,232.2,122.9,232.8z"/>
<path class="st1" d="M209.9,273c-14,0-28-0.2-42.1,0.1c-4,0.1-4.4-1.5-4.6-4.9c-0.1-3.8,1-4.6,4.7-4.6c27.7,0.1,55.4,0,83.1-0.3
	c4,0,5.2,0.9,5.3,5.1c0.1,4.8-2.4,4.3-5.5,4.3c-13.7-0.1-27.4,0-41.1,0C209.9,272.9,209.9,273,209.9,273z"/>
<path class="st1" d="M270.8,107.2c-5.3,0.1-9.8-4.2-9.9-9.5c0-5.4,4.3-9.7,9.7-9.7c5.4,0,9.4,3.9,9.5,9.2
	C280.3,102.7,276.1,107.1,270.8,107.2z M270.6,90.4c-3.6-0.1-6.8,3.1-6.9,6.8c-0.1,4.3,2.6,7.2,6.8,7.2c3.8,0,7-3,7.1-6.6
	C277.8,94,274.5,90.4,270.6,90.4z"/>
<path class="st0" d="M184.6,221.7c-13,0-26.1-0.1-39.1,0.1c-4.4,0.1-6.1-1.1-6.1-5.8c0.2-25.8,0.1-51.5,0-77.3
	c0-4.2,1.2-5.8,5.7-5.8c26.6,0.2,53.1,0.1,79.7,0c4,0,5.5,1.2,5.5,5.4c-0.2,26.1-0.1,52.2,0,78.3c0,4-1.3,5.2-5.1,5.1
	C211.7,221.6,198.1,221.7,184.6,221.7z M206.4,177.5c0-11.9-0.1-23.8,0.1-35.7c0.1-3.1-0.8-3.9-3.9-3.8c-18.1,0.1-36.3,0.1-54.4,0
	c-2.8,0-3.7,0.8-3.7,3.6c0.1,23.9,0.1,47.9,0,71.8c0,2.2,0.4,3.3,2.9,3.3c10.1-0.1,20.1-0.1,30.2,0c2.1,0,2.9-0.7,2.9-2.9
	c-0.1-3.6-0.1-7.3,0-10.9c0.2-11.1-2.3-10.4,11.2-10.4c3.4,0,4.8,1.6,4.7,4.9c-0.1,5.3,0.3,10.6-0.1,15.8c-0.3,4.7,2.8,3.4,5.1,3.4
	c2.4,0,5.2,1.1,5.1-3.5C206.2,201.2,206.4,189.3,206.4,177.5z M225.2,177.4c0-10.4,0-20.8,0-31.2c0-8.2,0-7.9-8.2-8.2
	c-4.1-0.2-4.7,1.3-4.7,4.9c0.2,21.6,0.1,43.2,0.1,64.9c0,9.1,0,8.9,9,9c3.4,0.1,4-1.2,3.9-4.2C225.2,200.8,225.2,189.1,225.2,177.4z
	 M191.4,207c0-2.1-0.1-4.3,0-6.4c0.2-2.5-1-3-3.2-3.1c-2.4,0-2.7,1.1-2.6,3c0.1,4.4,0.1,8.9,0,13.3c-0.1,2.2,0.8,2.8,2.9,2.8
	c1.9-0.1,3.1-0.4,3-2.8C191.3,211.6,191.4,209.3,191.4,207z"/>
<path class="st0" d="M294.5,234.2c0,4.1-0.1,8.2,0,12.4c0.1,3-0.9,4.6-4.2,4.6c-7.4-0.1-14.8-0.1-22.3,0c-1.5,0-3.2,0-3.9-1.5
	c-0.7-1.5,0.4-2.7,1.4-3.9c7.6-9,15.3-18,22.9-27.1c1.1-1.3,2.2-2.8,4-2.2c2.1,0.6,2.1,2.7,2.1,4.5
	C294.5,225.3,294.5,229.7,294.5,234.2z M271.9,246c6.1,0,10.7,0,15.2,0c1.6,0,2.4-0.5,2.4-2.2c-0.1-5.8,0-11.7,0-18.4
	C282.8,231.8,278.7,239.1,271.9,246z"/>
<path class="st0" d="M270.6,90.4c3.8,0.1,7.2,3.6,7,7.4c-0.1,3.6-3.4,6.6-7.1,6.6c-4.2,0-7-2.9-6.8-7.2
	C263.8,93.5,267,90.3,270.6,90.4z"/>
<path class="st1" d="M191.4,207c0,2.3-0.1,4.6,0,6.9c0.2,2.3-1.1,2.7-3,2.8c-2.1,0.1-3-0.5-2.9-2.8c0.1-4.4,0.1-8.9,0-13.3
	c0-1.9,0.3-3.1,2.6-3c2.2,0,3.4,0.6,3.2,3.1C191.3,202.7,191.4,204.9,191.4,207z"/>
<path class="st0" d="M188.1,159.9c-8.6,0-7.6,0.6-7.6-8.2c0-7.4,0-7.4,8-7.4c7.9,0,7.9,0,7.9,8.4
	C196.5,159.9,196.5,159.9,188.1,159.9z M188.3,154.8c1.8,0.2,3.1,0,3.1-2.5c0-2.2-0.9-2.8-2.9-2.9c-1.9,0-3,0.3-3,2.6
	C185.6,154.2,186.2,155.2,188.3,154.8z"/>
<path class="st0" d="M162.3,159.9c-8.6,0-7.5,0.4-7.5-8.4c0-7.2,0-7.2,8.2-7.2c7.7,0,7.7,0,7.7,8.5
	C170.7,159.9,170.7,159.9,162.3,159.9z M162.5,154.8c1.8,0.1,3.2,0,3.2-2.5c0-2.1-0.8-2.9-2.9-2.9c-1.9,0-3.1,0.2-3,2.6
	C159.8,154.1,160.3,155.2,162.5,154.8z"/>
<path class="st0" d="M188.5,168.5c8,0,8,0,8,8.3c0,7.7,0,7.7-8.7,7.7c-7.2,0-7.2,0-7.2-9.4C180.5,168.5,180.5,168.5,188.5,168.5z
	 M188.5,173.6c-2-0.3-3,0.3-2.9,2.6c0.1,2.1,0.3,3.4,2.9,3.2c1.9-0.1,3-0.5,3-2.7C191.5,174.4,191,173.1,188.5,173.6z"/>
<path class="st0" d="M154.8,176.4c0-7.9,0-7.9,8.1-7.9c7.9,0,7.9,0,7.8,8.4c0,7.6,0,7.6-8.8,7.6
	C154.8,184.4,154.8,184.4,154.8,176.4z M162.8,173.6c-1.9-0.2-3.1,0.1-3,2.5c0.1,2,0.1,3.4,2.8,3.4c2.3-0.1,3.1-0.8,3.1-3.2
	C165.7,174.1,164.9,173.3,162.8,173.6z"/>
<path class="st0" d="M162.1,208.4c-7.3,0-7.3,0-7.3-8.2c0-7.7,0-7.7,8.5-7.7c7.5,0,7.5,0,7.5,8.9
	C170.7,208.4,170.7,208.4,162.1,208.4z M162.6,203.4c2.4,0.4,3.1-0.7,3.1-3c0-2.1-0.9-2.7-2.9-2.8c-2.5-0.1-3,1-3,3.2
	C159.8,202.9,160.5,203.7,162.6,203.4z"/>
<path class="st1" d="M188.3,154.8c-2.2,0.4-2.8-0.6-2.8-2.7c0-2.3,1.1-2.6,3-2.6c2,0,2.9,0.7,2.9,2.9
	C191.5,154.8,190.2,154.9,188.3,154.8z"/>
<path class="st1" d="M162.5,154.8c-2.2,0.4-2.7-0.7-2.8-2.7c0-2.4,1.2-2.6,3-2.6c2.1,0,2.8,0.7,2.9,2.9
	C165.7,154.8,164.4,154.9,162.5,154.8z"/>
<path class="st1" d="M188.5,173.6c2.5-0.4,3,0.9,3,3.1c0,2.2-1.1,2.6-3,2.7c-2.6,0.1-2.9-1.1-2.9-3.2
	C185.5,173.9,186.5,173.2,188.5,173.6z"/>
<path class="st1" d="M162.8,173.6c2.1-0.3,2.9,0.5,2.9,2.7c0,2.3-0.8,3.1-3.1,3.2c-2.7,0.1-2.7-1.4-2.8-3.4
	C159.7,173.6,160.9,173.3,162.8,173.6z"/>
<path class="st1" d="M162.6,203.4c-2.1,0.4-2.9-0.5-2.9-2.6c0-2.2,0.5-3.3,3-3.2c2,0.1,2.9,0.7,2.9,2.8
	C165.7,202.7,165,203.8,162.6,203.4z"/>
</svg>
