<svg xmlns="http://www.w3.org/2000/svg" viewBox="0 0 9.23 9.23"><defs><style>.cls-1{fill:#ebb51f;}</style></defs><g id="Layer_2" data-name="Layer 2"><g id="Stars"><g id="Impact"><path class="cls-1" d="M5.12.32A.57.57,0,0,0,4.61,0a.58.58,0,0,0-.5.32L3,2.71.48,3.09A.56.56,0,0,0,0,3.48a.56.56,0,0,0,.14.59L2,5.93,1.56,8.56a.58.58,0,0,0,.22.56.53.53,0,0,0,.59,0L4.62,7.93,6.86,9.16a.53.53,0,0,0,.59,0,.61.61,0,0,0,.23-.56L7.24,5.93,9.07,4.07a.58.58,0,0,0,.13-.59.56.56,0,0,0-.45-.39L6.24,2.71Z"/></g></g></g></svg>