<?xml version="1.0" encoding="utf-8"?>
<!-- Generator: Adobe Illustrator 25.3.1, SVG Export Plug-In . SVG Version: 6.00 Build 0)  -->
<svg version="1.1" id="Layer_1" xmlns="http://www.w3.org/2000/svg" xmlns:xlink="http://www.w3.org/1999/xlink" x="0px" y="0px"
	 viewBox="0 0 367 367" style="enable-background:new 0 0 367 367;" xml:space="preserve">
<style type="text/css">
	.st0{fill:#090909;}
	.st1{fill:#E56132;}
</style>
<path class="st0" d="M289.3,183.7c0,59.4-47.2,106.3-107.1,106.3C123.5,289.9,77,242.2,77,181.7c0-57.1,47.4-104.1,106-104.3
	C246.1,77.3,290.5,129.1,289.3,183.7z M282.8,165c-2.8,3.1-4.9,5-6.5,7.3c-5.1,7.2-12.1,8.1-19.9,6.4c-0.6-0.1-1.3-0.4-2-0.4
	c-2.8,0.1-7.5-2-8.1,0.7c-0.8,3.6,4.1,3.9,6.9,4.7c5.5,1.7,11.4,2.6,16.8,4.6c7.2,2.6,8,9.4,1.9,14.3c-3.2,2.6-7,3.8-10.8,5.1
	c-2.4,0.8-4.1,2.1-5.3,4.2c-7.1,12.4-13.9,25-17.9,38.8c-0.9,3.3-3,5.5-5.9,7c-13.3,6.9-28.2-1.6-29.4-16.4c-0.9-10,0.3-19.9,0-29.9
	c-0.2-9.9-0.6-10.4-10.5-10.8c-10.4-0.4-19.5-3.8-27.2-10.7c-7.5-6.8-9.4-15.1-4.7-23.8c6-11.1,15.2-18.2,28-20.4
	c9.7-1.6,19.2-0.5,28.8,0.5c7.2,0.8,14.3,0,21.1-2.6c4.4-1.8,5-3.7,2.4-7.6c-3.1-4.6-6.9-8.5-11.7-11.4c-2.2-1.3-3.8-2-5.4,1.2
	c-2.2,4.5-6.4,6-11.4,5.4c-3-0.4-5.8-1.4-8.5-2.6c-1.9-0.8-3.6-1.2-5.7-0.8c-13.8,2.6-15.3,1.4-17.1-12.7c0-0.2,0-0.3-0.1-0.5
	c-1.5-5.1,1.1-8.3,5.2-10.6c3.1-1.8,6.4-2.6,9.9-3.2c2.6-0.4,5.2-1,7.7-1.9c4.3-1.6,4.3-5.2,4.1-9.1c-0.3-3.8-1.9-5.2-5.7-5.8
	c-12.8-2.2-25.5-2.2-38.2,0.2c-10.9,2-10.9,2-4.9,11c1.1,1.7,2.2,3.3,3.3,5c2.9,4.3,2.8,8.8,0.6,13.2c-1.7,3.5-4.4,6.3-7.4,8.7
	c-8.4,6.7-18,10.6-28.4,12.6c-8.4,1.6-14.7,4.9-18,13.6c-2.4,6.5-11.2,7.7-16.4,3.1c-1.3-1.2-2.4-2.5-3.7-3.9
	c-13.7,30.7-6.7,75.1,14.8,98c4.5-8.1,4.7-16.1,0.3-24.6c-3.7-7.2-6.7-14.8-7.6-23.1c-0.6-5.6,1.4-9.9,5.5-11.8
	c4.6-2.1,9.4-1.2,13.1,3c2.2,2.4,4.1,5.2,5.7,8.1c3.4,6,7.6,10.4,14.3,13.1c11.1,4.6,14.8,11.4,13.9,23.2c-0.3,3.6-1,7.2-1.5,10.9
	c-1.4,9-6.1,17.2-6.6,26.5c-0.2,4.1,1.2,5.5,4.5,6.8c52,20.8,111.3-4.5,132.1-56.6C284.5,203.5,286.4,185.2,282.8,165z M207.3,224.9
	c-0.3,5.8-0.4,12.1,0.7,18.4c1.7,10,14.5,15.4,22.9,9.6c1.3-0.9,2.3-2,2.7-3.5c3.1-12,9.1-22.8,14.6-33.8c3.4-6.8,7.4-12.6,15.6-14
	c1.3-0.2,2.4-1.1,3.6-1.7c1.7-1,3.7-2.1,3.5-4.4c-0.2-2.5-2.7-2.8-4.5-3.3c-5.9-1.7-11.9-2.9-17.8-4.8c-6.2-2-8.9-5.7-7.6-10
	c1.8-5.6,7-5.4,10.9-4.2c11.3,3.6,19.2-0.6,25.7-9.4c0.5-0.7,1.1-1.3,1.7-1.8c2.1-1.7,2.2-3.8,1.5-6.2c-10.5-33.3-32.1-56-64.9-68.1
	c-3.4-1.3-3.9-0.3-3.6,3c0.8,7.7-1.8,11.4-9.2,13.6c-2.5,0.8-5.2,1.2-7.8,1.8c-9.8,2.1-11.1,4.2-9,14c0.7,3.4,2.4,5.1,5.9,4
	c6-1.8,11.6-1.3,17.3,1.6c3.7,1.8,7.7,1.9,10.2-2.9c2.5-4.7,5.3-5.5,10.2-3c6.1,3.1,10.8,7.8,14.5,13.4c4.6,6.8,3.1,11.8-4.5,15.1
	c-7.1,3.1-14.5,3.5-22,3c-8-0.5-15.9-1.5-23.9-1.1c-12.1,0.5-21.3,6-27.9,15.9c-5.6,8.3-4.3,15.1,3.3,21.5
	c7.4,6.2,15.9,8.5,25.4,8.6c8.9,0.1,11.4,2.7,12.3,11.5C207.9,213.1,207.2,218.7,207.3,224.9z M144.1,231.6
	c1.1-7.6-2.6-13.5-10.4-16.4c-8.2-3.1-13.6-8.6-17.5-16.1c-0.9-1.8-2.1-3.4-3.3-5c-2.1-2.6-4.5-5.3-8.4-3.6c-4.2,1.8-3.7,5.5-2.9,9
	c1.6,8.2,5.3,15.7,8.6,23.3c2.4,5.6,3,11.2,1.1,17c-0.9,2.7-1.8,5.3-2.7,8c-0.5,1.6-1.2,3.1,0.3,4.6c7.1,7.3,14.7,14,23.7,18.8
	c2.3,1.2,3.3,1.1,3.6-2c0.6-6.1,2.4-12,4.4-17.8C142.8,245.4,143.9,239,144.1,231.6z M99.9,149c2.9,0.2,4.8-1.4,5.7-4.2
	c2.4-7.6,8-11.6,15.3-13.6c4.2-1.2,8.4-1.9,12.5-3.2c8.5-2.6,16.4-6.4,22.6-13.1c4.6-4.9,4.8-8.2,1.1-13.8c-1.9-2.9-4-5.7-5.8-8.7
	c-1.8-2.8-4-3.6-7.1-2.2c-22.8,9.9-40,25.8-51.3,48C90.6,142.4,94.9,148.9,99.9,149z"/>
<path class="st1" d="M207.3,224.9c-0.1-6.2,0.6-11.8,0-17.5c-0.9-8.7-3.4-11.4-12.3-11.5c-9.5-0.1-18-2.4-25.4-8.6
	c-7.7-6.4-8.9-13.1-3.3-21.5c6.6-9.9,15.8-15.4,27.9-15.9c8-0.3,15.9,0.6,23.9,1.1c7.5,0.5,15,0.1,22-3c7.6-3.3,9.1-8.3,4.5-15.1
	c-3.8-5.6-8.4-10.3-14.5-13.4c-4.9-2.5-7.7-1.8-10.2,3c-2.5,4.8-6.5,4.7-10.2,2.9c-5.7-2.8-11.3-3.4-17.3-1.6
	c-3.5,1.1-5.2-0.6-5.9-4c-2.1-9.7-0.8-11.9,9-14c2.6-0.6,5.2-1,7.8-1.8c7.4-2.2,10-5.9,9.2-13.6c-0.4-3.3,0.1-4.2,3.6-3
	c32.8,12.1,54.4,34.8,64.9,68.1c0.8,2.5,0.6,4.5-1.5,6.2c-0.6,0.5-1.2,1.1-1.7,1.8c-6.5,8.7-14.4,12.9-25.7,9.4
	c-3.8-1.2-9.1-1.4-10.9,4.2c-1.4,4.2,1.3,7.9,7.6,10c5.8,1.9,11.9,3.1,17.8,4.8c1.8,0.5,4.3,0.8,4.5,3.3c0.2,2.3-1.8,3.4-3.5,4.4
	c-1.1,0.7-2.3,1.5-3.6,1.7c-8.2,1.4-12.2,7.3-15.6,14c-5.5,11-11.6,21.7-14.6,33.8c-0.4,1.5-1.4,2.6-2.7,3.5
	c-8.3,5.8-21.1,0.4-22.9-9.6C206.9,237,207,230.7,207.3,224.9z"/>
<path class="st1" d="M144.1,231.6c-0.1,7.4-1.2,13.8-3.4,19.9c-2.1,5.8-3.9,11.7-4.4,17.8c-0.3,3.1-1.3,3.2-3.6,2
	c-9-4.9-16.7-11.5-23.7-18.8c-1.4-1.5-0.8-3.1-0.3-4.6c0.9-2.7,1.8-5.3,2.7-8c1.8-5.8,1.3-11.4-1.1-17c-3.2-7.6-6.9-15.1-8.6-23.3
	c-0.7-3.5-1.2-7.2,2.9-9c3.9-1.7,6.2,1,8.4,3.6c1.2,1.6,2.4,3.2,3.3,5c3.8,7.5,9.3,13.1,17.5,16.1
	C141.4,218.1,145.1,224,144.1,231.6z"/>
<path class="st1" d="M99.9,149c-5-0.1-9.2-6.6-7.1-10.8c11.2-22.2,28.5-38.1,51.3-48c3.2-1.4,5.4-0.6,7.1,2.2
	c1.9,2.9,3.9,5.8,5.8,8.7c3.6,5.5,3.4,8.8-1.1,13.8c-6.1,6.7-14.1,10.5-22.6,13.1c-4.1,1.3-8.4,2-12.5,3.2c-7.3,2-12.9,6-15.3,13.6
	C104.7,147.6,102.8,149.2,99.9,149z"/>
</svg>
