<?xml version="1.0" encoding="utf-8"?>
<!-- Generator: Adobe Illustrator 25.3.1, SVG Export Plug-In . SVG Version: 6.00 Build 0)  -->
<svg version="1.1" id="Layer_1" xmlns="http://www.w3.org/2000/svg" xmlns:xlink="http://www.w3.org/1999/xlink" x="0px" y="0px"
	 viewBox="0 0 367 367" style="enable-background:new 0 0 367 367;" xml:space="preserve">
<style type="text/css">
	.st0{fill:#0C0C0C;}
	.st1{fill:#EA6097;}
</style>
<path class="st0" d="M245.1,79c10.3,0,20.6-0.1,30.9,0c17.3,0.1,30.6,13.3,30.8,30.6c0.1,12,0.1,24,0,36c-0.1,12.9-6.1,22.2-17.4,28
	c-2.5,1.3-3.4,2.6-3.2,5.3c0.3,4.5,0.2,9,0.3,13.5c0.1,3.1-1,5.6-4,6.8c-3.1,1.2-5.5,0-7.5-2.4c-4.9-5.9-10-11.6-14.5-17.8
	c-1.5-1.9-2.8-2.3-4.8-2.3c-13.6,0.1-27.3,0.1-40.9,0c-18.5,0-31.7-13.2-31.8-31.7c0-11.5-0.1-23,0-34.5
	c0.1-18.2,13.5-31.4,31.6-31.5C224.9,79,235,79,245.1,79z M244.9,84.1c-10.1,0-20.3,0-30.4,0c-15.2,0-26.5,11.2-26.6,26.4
	c-0.1,11.7-0.1,23.3,0,34.9c0.1,15.1,11.5,26.4,26.6,26.5c20.3,0.1,40.6,0,60.9,0c15,0,26.4-10.9,26.8-25.7
	c0.3-12.1,0.3-24.3,0-36.4c-0.4-14.8-11.6-25.6-26.3-25.6C265.5,84.1,255.2,84.1,244.9,84.1z M264.8,176.5c5,6,9.5,11.9,14.5,17.2
	c1.8,1.9,2.4-0.4,2.4-2c0-4.8-0.2-9.6,0-14.5c0.1-3-1.1-3.2-3.6-2.7C273.9,175.4,269.8,175.8,264.8,176.5z"/>
<path class="st0" d="M114.6,161c10.2,0,20.3,0,30.4,0c17.5,0.1,30.9,13.5,30.9,31.1c0,11.8,0,23.6,0,35.5
	c0,17.9-13.3,31.1-31.3,31.1c-13.3,0-26.6,0.1-39.9,0c-2.5,0-4,0.6-5.6,2.8c-4.5,6-9.4,11.6-14.2,17.4c-2,2.4-4.5,3.4-7.5,2.3
	c-3.2-1.1-3.9-3.8-3.8-6.9c0-1.2,0.2-2.3,0.2-3.5c0-7.3,1.5-14.2-8.5-18.1c-8.4-3.3-12.6-12.4-13-21.7c-0.6-14-1-28,0-41.9
	c1.3-16.9,14.3-27.9,31.3-28C94,160.9,104.3,161,114.6,161z M114.9,166c-10.3,0-20.6,0-30.9,0c-16,0.1-27,11-27,26.9
	c0,11.3,0,22.6,0,33.9c0,15.6,11,26.8,26.6,26.9c20.6,0.2,41.2,0.1,61.8,0c14.1-0.1,25.3-11.2,25.6-25.3c0.3-12.5,0.3-25,0-37.4
	c-0.3-14.2-11.6-25-25.7-25.1C135.2,166,125.1,166,114.9,166z M95.3,258.5c-5.2-0.7-9.3-1.2-13.3-1.9c-2.2-0.4-3.4-0.4-3.4,2.4
	c0,5-0.2,9.9-0.3,14.9c0,0.9,0.1,1.7,1,2.1c0.9,0.5,1.6-0.1,2.1-0.8C85.9,269.8,90.4,264.4,95.3,258.5z"/>
<path class="st1" d="M244.9,84.1c10.3,0,20.6,0,30.9,0c14.7,0.1,26,10.8,26.3,25.6c0.3,12.1,0.3,24.3,0,36.5
	c-0.4,14.9-11.9,25.7-26.8,25.7c-20.3,0-40.6,0-60.9,0c-15.1,0-26.5-11.4-26.6-26.5c-0.1-11.6-0.1-23.3,0-34.9
	c0.1-15.2,11.4-26.3,26.6-26.4C224.6,84.1,234.8,84.1,244.9,84.1z M236.4,123.2c10,0,19.9,0,29.9,0c1.7,0,4.1,0.5,4.2-2.1
	c0.1-2.5-2-2.7-3.9-2.7c-19.9,0-39.9,0-59.8,0c-1.9,0-4.1,0-4,2.6c0.1,2.7,2.4,2.2,4.2,2.2C216.8,123.2,226.6,123.2,236.4,123.2z
	 M231.4,109.7c8.1,0,16.3,0,24.4,0c2,0,4.5,0.4,4.5-2.5c0-2.4-2.3-2.3-4.2-2.3c-16.5,0-32.9,0-49.4,0c-1.9,0-4.1-0.1-4,2.5
	c0.1,2.6,2.4,2.3,4.2,2.3C215.1,109.7,223.3,109.7,231.4,109.7z M228.9,136.7c7.1,0,14.3,0,21.4,0c1.9,0,4.5,0.6,4.4-2.5
	c0-2.7-2.3-2.3-4.1-2.3c-14.6,0-29.2,0-43.9,0c-1.9,0-4.1-0.1-4,2.5c0.1,2.5,2.4,2.3,4.2,2.3C214.3,136.7,221.6,136.7,228.9,136.7z
	 M216.7,150.1c4,0,8,0,11.9,0c1.7,0,3.1-0.5,3-2.4c-0.1-1.6-1.3-2.3-2.8-2.3c-7.8,0-15.6,0-23.4,0c-1.5,0-2.7,0.7-2.8,2.3
	c-0.1,1.9,1.4,2.4,3,2.4C209.4,150.1,213.1,150.1,216.7,150.1z"/>
<path class="st1" d="M264.8,176.5c5-0.7,9.2-1.1,13.2-1.9c2.5-0.5,3.7-0.3,3.6,2.7c-0.2,4.8,0,9.6,0,14.5c0,1.6-0.6,3.9-2.4,2
	C274.2,188.3,269.7,182.5,264.8,176.5z"/>
<path class="st1" d="M114.9,166c10.1,0,20.3-0.1,30.4,0c14.1,0.1,25.4,10.9,25.7,25.1c0.3,12.5,0.3,25,0,37.4
	c-0.3,14.1-11.6,25.2-25.6,25.3c-20.6,0.1-41.2,0.2-61.8,0C68,253.7,57.1,242.4,57,226.9c0-11.3,0-22.6,0-33.9
	c0-15.9,11-26.8,27-26.9C94.3,166,104.6,166,114.9,166z M104.4,191.7c10.1,0,20.2,0,30.4,0c2,0,5,0.7,4.9-2.5
	c-0.1-2.8-2.8-2.2-4.7-2.2c-20.2,0-40.5,0-60.7,0c-1.9,0-4.5-0.6-4.6,2.3c-0.1,3,2.6,2.4,4.5,2.4C84.1,191.7,94.2,191.7,104.4,191.7
	z M101.9,213.9c-9.5,0-18.9,0-28.4,0c-1.9,0-4.1-0.1-4,2.5c0.1,2.5,2.3,2.4,4.2,2.3c18.8,0,37.5,0,56.2,0c1.8,0,4,0.2,4-2.5
	c-0.1-2.7-2.4-2.3-4.1-2.3C120.5,213.9,111.2,213.9,101.9,213.9z M91.9,205.1c6.5,0,13,0,19.4,0c1.7,0,3.6,0.1,3.6-2.3
	c0.1-2.3-1.8-2.5-3.5-2.5c-12.8,0-25.6,0-38.4,0c-1.8,0-3.6,0.3-3.7,2.4c-0.1,2.7,2.2,2.4,4,2.4C79.6,205.1,85.8,205.1,91.9,205.1z
	 M87.3,232.1c4.8,0,9.6,0,14.4,0c1.8,0,3.5-0.1,3.4-2.5c0-2-1.5-2.3-3.1-2.3c-9.8,0-19.5,0-29.3,0c-1.7,0-3.2,0.5-3.2,2.3
	c-0.1,2.2,1.6,2.5,3.4,2.5C77.7,232.1,82.5,232.1,87.3,232.1z"/>
<path class="st1" d="M95.3,258.5c-4.9,6-9.5,11.4-14,16.8c-0.5,0.6-1.2,1.3-2.1,0.8c-0.8-0.4-1-1.3-1-2.1c0.1-5,0.3-10,0.3-14.9
	c0-2.8,1.2-2.8,3.4-2.4C86.1,257.3,90.2,257.7,95.3,258.5z"/>
<path class="st0" d="M236.4,123.2c-9.8,0-19.6,0-29.4,0c-1.7,0-4.1,0.5-4.2-2.2c-0.1-2.5,2.1-2.6,4-2.6c19.9,0,39.8,0,59.8,0
	c1.9,0,4.1,0.1,3.9,2.7c-0.1,2.6-2.5,2.1-4.2,2.1C256.3,123.2,246.4,123.2,236.4,123.2z"/>
<path class="st0" d="M231.4,109.7c-8.1,0-16.3,0-24.4,0c-1.8,0-4.1,0.2-4.2-2.3c-0.1-2.6,2.1-2.5,4-2.5c16.5,0,32.9,0,49.4,0
	c1.9,0,4.2-0.1,4.2,2.3c0,2.8-2.6,2.5-4.5,2.5C247.8,109.7,239.6,109.7,231.4,109.7z"/>
<path class="st0" d="M228.9,136.7c-7.3,0-14.6,0-21.9,0c-1.8,0-4.1,0.2-4.2-2.3c-0.1-2.6,2.1-2.5,4-2.5c14.6,0,29.2,0,43.9,0
	c1.8,0,4.1-0.4,4.1,2.3c0.1,3.1-2.6,2.4-4.4,2.5C243.2,136.7,236.1,136.7,228.9,136.7z"/>
<path class="st0" d="M216.7,150.1c-3.6,0-7.3,0-10.9,0c-1.7,0-3.1-0.5-3-2.4c0.1-1.6,1.3-2.3,2.8-2.3c7.8,0,15.6,0,23.4,0
	c1.4,0,2.7,0.7,2.8,2.3c0.1,1.9-1.3,2.4-3,2.4C224.7,150.1,220.7,150.1,216.7,150.1z"/>
<path class="st0" d="M104.4,191.7c-10.1,0-20.2,0-30.4,0c-1.9,0-4.6,0.5-4.5-2.4c0.1-2.9,2.7-2.3,4.6-2.3c20.2,0,40.5,0,60.7,0
	c1.9,0,4.6-0.5,4.7,2.2c0.1,3.3-2.9,2.5-4.9,2.5C124.6,191.7,114.5,191.7,104.4,191.7z"/>
<path class="st0" d="M101.9,213.9c9.3,0,18.6,0,27.9,0c1.8,0,4-0.4,4.1,2.3c0.1,2.7-2.2,2.5-4,2.5c-18.8,0-37.5,0-56.2,0
	c-1.8,0-4.1,0.2-4.2-2.3c-0.1-2.5,2.1-2.5,4-2.5C83,213.9,92.4,213.9,101.9,213.9z"/>
<path class="st0" d="M91.9,205.1c-6.2,0-12.3,0-18.4,0c-1.8,0-4.1,0.3-4-2.4c0-2.1,1.9-2.4,3.7-2.4c12.8,0,25.6,0,38.4,0
	c1.7,0,3.5,0.2,3.5,2.5c-0.1,2.4-1.9,2.3-3.6,2.3C104.9,205.1,98.4,205.1,91.9,205.1z"/>
<path class="st0" d="M87.3,232.1c-4.8,0-9.6,0-14.4,0c-1.8,0-3.5-0.3-3.4-2.5c0.1-1.9,1.6-2.3,3.2-2.3c9.8,0,19.5,0,29.3,0
	c1.6,0,3.1,0.3,3.1,2.3c0.1,2.4-1.7,2.5-3.4,2.5C96.9,232.1,92.1,232.1,87.3,232.1z"/>
</svg>
