<?xml version="1.0" encoding="utf-8"?>
<!-- Generator: Adobe Illustrator 25.3.1, SVG Export Plug-In . SVG Version: 6.00 Build 0)  -->
<svg version="1.1" id="Layer_1" xmlns="http://www.w3.org/2000/svg" xmlns:xlink="http://www.w3.org/1999/xlink" x="0px" y="0px"
	 viewBox="0 0 367 367" style="enable-background:new 0 0 367 367;" xml:space="preserve">
<style type="text/css">
	.st0{fill:#090908;}
	.st1{fill:#E56132;}
</style>
<path class="st0" d="M183,292.5c-58.9-0.3-108.7-47.8-107.7-109.8c1-62.3,50.4-109.3,111.6-107.8c59.5,1.5,106.6,51.7,105,112.1
	C290.3,245.9,240.9,293.8,183,292.5z M186.6,287.5c56.2-1.2,104.1-49.4,100.3-110.9c-3.6-57.7-53-100.8-111.9-96.5
	c-55.2,4.1-98.4,51.7-94.8,110.1C83.9,249.5,133.9,289.5,186.6,287.5z"/>
<path class="st1" d="M186.6,287.5c-52.7,2-102.7-38-106.4-97.3c-3.7-58.4,39.6-106,94.8-110.1c58.9-4.3,108.3,38.8,111.9,96.5
	C290.8,238.2,242.9,286.4,186.6,287.5z M183.7,104.5c-14.3,0-26.9,3.1-38.2,9.4C108.8,134.6,94.3,179,112,217.5
	c1.3,2.7,1.4,4.4-1.4,5.9c-2,1.1-3.8,2.7-5,4.8c-3.4,5.5-2.5,12.5,2.2,16.8c4.8,4.4,11.8,5,17.2,0.5c3.7-3,5.8-2.6,9.4,0.3
	c18.2,14.5,39.2,20,62.1,16.1c38.9-6.6,65.8-39.1,65.8-78.8C262.4,139.4,227.6,104.5,183.7,104.5z"/>
<path class="st0" d="M183.7,104.5c43.8,0,78.6,34.8,78.6,78.7c0,39.7-26.9,72.2-65.8,78.8c-22.9,3.9-43.9-1.6-62.1-16.1
	c-3.6-2.9-5.7-3.3-9.4-0.3c-5.4,4.5-12.5,3.9-17.2-0.5c-4.7-4.3-5.6-11.3-2.2-16.8c1.2-2,3-3.6,5-4.8c2.8-1.6,2.6-3.2,1.4-5.9
	c-17.7-38.5-3.2-82.9,33.6-103.6C156.9,107.6,169.4,104.5,183.7,104.5z M257.6,189.8c0-53.8-43.3-89.1-89.8-78.9
	c-46.4,10.2-71.1,59.8-51.9,103.7c1.2,2.8,2.3,3.4,4.9,1.2c4.4-3.7,9.1-7.2,13.9-10.5c3.3-2.3,3.2-3.7-0.2-6
	c-6.9-4.7-8.2-14.4-2.7-20.5c2-2.2,3-4.6,3.6-7.3c5-21.1,23.8-36.8,45.2-37.8c28.4-1.4,52.1,20.7,52.4,48.9
	c0.3,29.4-22.2,51.8-51.1,51.1c-1.7,0-3.1-0.1-4.7,0.9c-9.6,5.7-17.5,3-21.1-7.4c-1.1-3.2-2.2-3-4.4-1.3c-4.6,3.6-9.1,7.3-13.9,10.4
	c-3.8,2.5-3,3.9,0.1,6.2c24,17.6,49.9,21.4,76.9,8.8C242.8,238,256.4,214.6,257.6,189.8z M140,174.2c6.8,0.2,13.1,2,19.4,3.3
	c3.1,0.6,4.8,0.4,6.3-3.1c3.3-7.2,9.3-10.9,17.4-11.1c8.1-0.2,14.1,3.5,18,10.3c6.8,12-0.1,27.1-13.6,30c-2.9,0.6-4.1,1.4-4.2,4.7
	c-0.1,5.8-0.7,11.6-1.6,17.3c-0.5,3.2,0.5,3.6,3.4,3.4c29.1-2.5,47.8-27.1,42-55.3c-4.1-20.1-22.5-35-43.2-35.1
	C162.3,138.6,144.3,153,140,174.2z M148.6,199.8c-12.3,9.3-24.2,18.3-36.1,27.4c-5.2,4-6.3,9.4-3.1,13.7c3.5,4.5,8.9,4.9,14.4,0.7
	c10.7-8.1,21.4-16.2,32.1-24.2c1.1-0.8,2-2.3,4-1.7c-0.1,2.4-0.4,4.9-0.4,7.3c-0.1,5.8,3.3,9.9,8.4,10.3c5.2,0.4,9.6-3.1,10.1-8.7
	c1-9.9,1.6-19.8,2.2-29.7c0.3-4.7-1.9-7.8-6.4-9.4c-9.9-3.5-20.2-5.4-30.6-7c-5.8-0.8-9.5,2.1-10.6,7.8c-1,5.3,2,9.6,7.4,11.2
	C142.9,198.2,145.8,197.8,148.6,199.8z M184.6,199.2c2.6,0.3,4.5-0.8,6.4-1.8c5.8-3.2,8.6-9.4,7.6-16.5c-1-6.6-5.5-11.2-12.3-12.6
	c-5.8-1.2-12,1.5-15.4,6.7c-1.8,2.7-2.2,4.7,2,5.1c3.9,0.3,6.4,2.5,8.8,5.5C184.9,189.7,184.6,194.4,184.6,199.2z"/>
<path class="st1" d="M140,174.2c4.3-21.2,22.3-35.5,44-35.5c20.7,0,39.1,15,43.2,35.1c5.8,28.2-13,52.8-42,55.3
	c-2.8,0.2-3.8-0.2-3.4-3.4c0.8-5.7,1.4-11.5,1.6-17.3c0.1-3.3,1.4-4.1,4.2-4.7c13.5-2.9,20.4-18,13.6-30c-3.9-6.9-9.9-10.5-18-10.3
	s-14.2,3.9-17.4,11.1c-1.6,3.5-3.2,3.7-6.3,3.1C153.1,176.1,146.8,174.4,140,174.2z"/>
<path class="st1" d="M148.6,199.8c-2.8-2-5.7-1.6-8.4-2.4c-5.4-1.6-8.4-5.9-7.4-11.2c1.1-5.7,4.9-8.6,10.6-7.8
	c10.4,1.5,20.6,3.5,30.6,7c4.5,1.6,6.8,4.7,6.4,9.4c-0.6,9.9-1.3,19.8-2.2,29.7c-0.6,5.6-4.9,9.1-10.1,8.7
	c-5.1-0.4-8.5-4.5-8.4-10.3c0.1-2.4,0.3-4.9,0.4-7.3c-2.1-0.6-2.9,0.9-4,1.7c-10.7,8.1-21.4,16.2-32.1,24.2
	c-5.6,4.2-10.9,3.8-14.4-0.7c-3.3-4.3-2.2-9.7,3.1-13.7C124.4,218.1,136.3,209.2,148.6,199.8z"/>
</svg>
