<?xml version="1.0" encoding="utf-8"?>
<!-- Generator: Adobe Illustrator 25.3.1, SVG Export Plug-In . SVG Version: 6.00 Build 0)  -->
<svg version="1.1" id="Layer_1" xmlns="http://www.w3.org/2000/svg" xmlns:xlink="http://www.w3.org/1999/xlink" x="0px" y="0px"
	 viewBox="0 0 367 367" style="enable-background:new 0 0 367 367;" xml:space="preserve">
<style type="text/css">
	.st0{fill:#090909;}
	.st1{fill:#FCFCFC;}
	.st2{fill:#008081;}
</style>
<path class="st0" d="M126.9,268c6.2-3.7,10.4-9.6,15.5-14.6c0.6-0.6,0.4-2.2,0.4-3.4c0-4.8-0.1-9.7,0.1-14.5
	c0.1-2.5-0.3-3.9-3.2-4.2c-4.4-0.6-6.2-3.7-5.7-7.9s3.2-6.3,7.5-6.5c15.9-0.8,16.6-0.1,16.8,15.7c0,1.1,0.1,2.3,0.2,3.9
	c3.4-1.9,5.5-4.4,7-7.6c4.8-10.2,10.7-13.6,21.8-12.3c2.3,0.3,3.3-0.9,4.6-2.2c0.6-0.6,1.1-1.2,0.6-2.2c-0.6-1-1.3-1.1-2.5-1.1
	c-8.5,0.4-10.3-1.4-10.3-9.7c0-9.2-0.1-18.3,0-27.5c0-2.1-0.3-3.2-2.8-3.4c-4.6-0.5-6.6-3.5-6.1-8c0.5-4.6,3.6-6.4,8-6.5
	c3.3-0.1,7.5,1.3,7.4-4.8c-7.4,0.5-13.9-1.5-18.3-8.1c-5.8-8.9-6.4-18.8-4.6-28.8c1.6-8.9,5.4-16.6,15.1-19.2
	c11.1-3,20.8,3,24.4,14.8c1.7,5.6,2.2,11.3,1.8,17.9c3.4-2.1,6.4-3.7,9.1-5.7c2.5-1.9,0.8-4.9,1.2-7.4c0.6-3.1-0.4-4.7-3.9-5.2
	c-3.9-0.6-5.4-3.8-5.1-7.5c0.3-3.8,2.5-6.1,6.3-6.6c0.3-0.1,0.7,0,1,0c16-1,16.9-0.1,17.1,15.9c0,1.5-1.8,4.3,1.7,4.7
	c3,0.3,3.2-1.9,3.8-4.1c3.7-13.2,12.2-19.2,24-17c7,1.3,11.2,5.9,14,12.2c1.4,3.2,2.9,6.8,2.5,10.1c-0.7,6.2,2.6,9.3,6.9,12.9
	c31.6,26.9,29,75.5-5.2,98.7c-2.5,1.7-3,3.2-2.4,6c2,9.5,1.7,18.9-2.9,27.7c-3.6,6.8-9.2,10.3-16.9,10.4
	c-7.7,0.1-13.4-3.4-17.1-10.1c-3.6-6.4-4.4-13.5-4.2-20.8c0.1-1.7,0.7-3.9-2.2-4c-3.3-0.1-1.9,2.5-2,3.9c-0.1,7.2,0,14.3-0.1,21.5
	c-0.1,5.9-2.8,9-7.7,9s-7.6-3.2-7.7-8.9c0-9-0.1-18,0.1-27c0.1-3-0.2-5.2-3.9-5.4c-2.2-0.1-3.2-2.2-4.9-3.1
	c-2.6,1.7-3.6,3.6-2.7,7.1c2.1,8.2,1.5,16.5-1.7,24.5c-4.3,10.9-13.8,15.6-24.9,12.1c-2.5-0.8-3.9-0.4-5.6,1.4
	c-6.9,7-13.8,13.9-20.8,20.9c-6.5,6.5-11.4,6.6-18.1,0.5c-2.2-2-4.4-4.1-6.4-6.2c-6.1-6.2-6.3-11.2-0.7-17.8
	c0.4-0.5,1.1-0.8,0.4-1.6l-0.1,0.1c1.2,0.5,1.6,0.1,1.1-1.1L126.9,268z M243,120.1c-31.5,0-57,25.4-56.8,56.7
	c0.2,31.6,26,57.5,57.5,57.6c31.7,0,56.9-24.9,57-56.4C300.7,145.9,274.9,120.1,243,120.1z M141.5,293.9c2.2,0.2,3.8-1.1,5.2-2.5
	c13.1-13.2,26.2-26.4,39.4-39.6c5.1-5.1,5-7.2-0.1-12.4c-2-2-3.9-4.1-6-6c-3.8-3.6-6.7-3.7-10.3-0.1c-13.6,13.6-27.2,27.4-40.8,41
	c-3,3-3.1,6.2-0.2,9.2c2.7,2.9,5.6,5.7,8.5,8.5C138.3,293.2,139.6,294.1,141.5,293.9z M199.7,123.8c0.3-6.2-0.6-11.4-3.1-16.2
	c-2.7-5.3-7-8.4-13.1-8.4s-10.3,3.1-13.1,8.4c-2.3,4.6-3.3,9.5-3.3,14.4c0,7.2,1,14.3,6.2,20c4,4.4,13.3,6.4,16.3,2.7
	C194.8,138.5,201.6,132.7,199.7,123.8z M265.6,243.4c0.1,3.7,0.2,7.3-0.7,10.9c-1.6,6-4.5,9-9.1,8.9c-4.6,0-7.9-3.2-9.1-9
	c-0.9-4.1-1.3-8.2-1-12.4c0.2-2.3-0.8-2.8-2.9-2.8c-1.9,0.1-3.1,0.3-3.2,2.7c-0.1,5.9,0,11.7,2.6,17.1c2.8,5.9,7,9.4,14,9.3
	c6.8-0.1,10.8-3.9,13.3-9.6c3.1-6.9,3-14.2,1.9-21.6c-0.2-1.1,0.1-3.5-2.4-2.8c-1.8,0.5-4,0.8-3.5,3.8
	C265.9,239.6,265.6,241.5,265.6,243.4z M271.6,121.5c1.2-11.4-5-21.2-14.2-22.3c-8.4-1-15.4,5.5-16.6,15.4c3.6,1.1,5.8,0.5,6.8-3.8
	c0.9-4.1,3.7-6.7,8.1-6.8c4.7-0.1,7.2,2.9,8.8,6.9c0.5,1.2,1,2.6,0.9,3.9C265.3,119.1,267.6,121.1,271.6,121.5z M198.6,236.3
	c-2,2-5.4,2.7-4.6,6.5c1.1,5.1-0.9,9.9-2.5,14.5c-1.2,3.5-3.7,6-7.8,5.8c-2.8-0.1-4,1.6-5.4,3.6c7.3,2.9,13.7,0.8,17.6-5.8
	C200.5,253.2,200.4,244.9,198.6,236.3z M219.9,235.1c0,9.4,0,18.7,0,28c0,2.1,0,4.4,2.7,4.5c3,0.1,3.2-2.2,3.2-4.6
	c0-7.3-0.3-14.6,0.1-21.9C226,236.7,224.3,235.1,219.9,235.1z M261,245.1c0-1.3,0.3-2.7-0.1-4s0.9-4.2-1.7-3.6
	c-2.8,0.7-7.5-0.7-8.2,2.8c-0.9,4.9-1,10.2,1.3,15.1c0.7,1.6,1.7,3,3.6,2.9c1.9-0.1,2.8-1.5,3.5-3.1
	C260.9,252.1,261,248.6,261,245.1z M147.5,247.7c7.1-3.7,6.2-9.5,6.1-15.1c-0.1-12.8,0.6-10.4-10.6-10.6c-1.7,0-4-0.7-4.2,2.1
	c-0.2,3,2.2,3,4.1,2.8c3.6-0.4,4.6,1.4,4.6,4.7C147.4,236.8,147.5,242,147.5,247.7z M196.8,217.1c-1,0.6-1.3,0.8-1.5,1
	c-3.6,3.7-7.2,7.3-10.8,11c-0.8,0.8-0.2,1.4,0.3,2.1c3.7,5.6,5.5,5.8,10.1,1.1c1.9-1.9,3.9-3.7,5.6-5.7c0.8-0.9,3.1-1.5,1.6-3.4
	C200.4,221,198.5,219,196.8,217.1z M225.7,109.6c-0.1-11,1.1-9.4-9.5-9.5c-0.7,0-1.3,0-2,0c-1.6,0-3.1,0.3-3.2,2.2
	c-0.2,2.3,1.4,2.9,3.2,2.7c4.9-0.6,6.1,1.9,5.7,6.2c-0.2,1.5-0.2,3,0,4.4c0.2,1.2-1.1,3.5,1.5,3.1c1.7-0.3,4.2-0.3,4.2-3.2
	C225.7,113.6,225.7,111.6,225.7,109.6z M260.5,115.1c-1.1-2.2-0.7-6.1-5-6c-3,0.1-4.3,3-3.8,4.9c0.9,3.6,4.9,1.8,7.4,3
	C260.6,117.8,260.6,116.5,260.5,115.1z M173.3,225.4c5.3,1.9,9,0.7,11.4-4.3C180.1,220.7,176.6,222.1,173.3,225.4z M179.9,161
	c-1.8,0.1-4.1-0.4-4.2,2.3c-0.1,2.6,1.8,2.5,3.8,2.7c2.7,0.2,3.5-1,3.6-3.4C183,159.6,180.8,161.7,179.9,161z M189.2,207.3
	c-1.6-3.6-2.8-6.2-3.9-8.7C185,201.9,182.8,206,189.2,207.3z"/>
<path class="st0" d="M133.9,122.4c0.1,5.3-0.7,10.1-2.3,14.6c-3.2,9.2-9.9,14-19,14c-9.8,0-16.1-4.4-19.5-13.9
	c-3.1-8.6-3.2-17.4-0.9-26.1c2.9-11.1,10.4-17,20.6-16.8c10.2,0.2,17.5,6.8,20,18.2C133.5,115.9,134.2,119.3,133.9,122.4z
	 M128.9,122.6c0.4-4.7-0.5-9.4-2.5-13.9c-2.6-6-7.1-9.5-13.8-9.6c-6.9-0.1-11.8,3.4-14.3,9.6c-3.8,9.3-3.8,18.9,0,28.2
	c2.4,6,7,9.5,13.8,9.5c6.7,0,11.3-3,14.1-9.1C128.3,132.7,129.1,127.9,128.9,122.6z"/>
<path class="st0" d="M126,268.9c-4.4,1.4-8.2,4.2-13.3,4.1c-9-0.2-15.2-4.1-18.8-12.2c-4-9-4.1-18.5-1.8-27.8
	c2.7-11.1,10.8-17.5,20.9-17.1c10.3,0.5,17.6,7.4,20,18.9c2.4,11.9,0.4,22.9-6.1,33.1l0.1-0.1C126.1,267.7,125.5,267.8,126,268.9
	L126,268.9z M128.9,244.6c0.4-5.4-0.6-10.6-3.1-15.4c-2.7-5.3-6.9-8.2-13.1-8.3c-6.3-0.1-11,2.6-13.7,8.1c-4.6,9.5-4.6,19.3-0.9,29
	c2.3,6.2,6.7,10.1,13.9,9.9c7.3-0.1,11.7-2.9,14.6-9.8C128.4,253.9,129.2,249.4,128.9,244.6z"/>
<path class="st0" d="M125.8,184c-0.2-6.7,0.9-12.9,4-18.6c3.7-6.7,9.4-10.1,17.1-10.1c7.7,0,13.5,3.5,16.9,10.3
	c5.6,11.6,5.8,23.5,0.5,35.2c-3.4,7.5-9.5,11.4-17.8,11.3c-8.1-0.1-13.8-4.2-17.3-11.4C126.6,195.3,125.5,189.6,125.8,184z
	 M162.9,184.6c0-8.9-1.4-14.3-4.6-18.7c-5.9-8.1-17.9-8.1-23.2,0.4c-6.4,10.2-6,21.2-1.6,32c2.3,5.7,6.9,8.9,13.2,8.9
	c6.5,0,10.9-3.4,13.5-9.2C162.3,193.6,163.2,188.9,162.9,184.6z"/>
<path class="st0" d="M158.2,123c0,6.5,0.1,13,0,19.5c-0.1,5.6-2.9,8.3-7.8,8.2c-4.9-0.1-7.5-3-7.5-8.6c-0.1-9.3-0.1-18.7,0-28
	c0-2.5,0.1-4.2-3.3-4.6c-4.3-0.5-6.1-3.8-5.6-8c0.5-4,3.1-6.1,7.1-6.3c0.3,0,0.7,0,1,0c15.9-0.5,16.2-0.2,16.2,15.7
	C158.2,115,158.2,119,158.2,123L158.2,123z M153.6,123.1c0-4.2,0-8.3,0-12.5c0-12.4,0.9-10.3-11.8-10.5c-1.7,0-3,0.6-3,2.5
	c0,2,1.4,2.6,3.1,2.4c5-0.7,5.8,2,5.7,6.2c-0.2,9.8-0.1,19.6,0,29.4c0,2.2-0.6,5.2,3,5.1c3.3-0.1,3-3,3.1-5.3
	C153.7,134.7,153.6,128.9,153.6,123.1z"/>
<path class="st0" d="M119.9,183.9c0,6.5,0.1,13,0,19.5c-0.1,5.4-3.2,8.4-8.4,8.3c-5-0.1-7.8-2.9-7.9-8.2c-0.1-9.5-0.1-19,0-28.5
	c0-2.5,0.1-4.3-3.4-4.6c-3.8-0.3-5.7-3.2-5.6-7c0.1-4.1,2.2-6.8,6.2-7.2c4.3-0.5,8.7-0.5,12.9,0c4.2,0.5,6.2,3.5,6.2,7.8
	C119.9,170.6,119.9,177.3,119.9,183.9z M114.9,183.8c0-3.8,0-7.6,0-11.4c0-12.2,0-12.1-12-11.4c-1.9,0.1-3.5,0.4-3.5,2.5
	c0.1,2.1,1.7,2.7,3.6,2.4c4.4-0.7,5.3,1.6,5.2,5.5c-0.2,10.5-0.1,20.9-0.1,31.4c0,2.5,0.9,4.2,3.8,4.1c2.8-0.1,3-2,3-4.2
	C114.9,196.4,114.9,190.1,114.9,183.8z"/>
<path class="st1" d="M243,120.1c31.9,0,57.7,25.9,57.6,57.8c-0.1,31.6-25.2,56.5-57,56.4c-31.5,0-57.4-25.9-57.5-57.6
	C186,145.4,211.5,120,243,120.1z M289,177.8c0-25.8-20.5-46.6-45.9-46.4c-24.8,0.1-45.2,20.3-45.2,45c-0.1,25.7,20.4,46.6,45.9,46.6
	C268.8,223,288.9,203,289,177.8z"/>
<path class="st1" d="M141.5,293.9c-1.8,0.2-3.2-0.7-4.4-1.9c-2.9-2.8-5.8-5.5-8.5-8.5c-2.8-3-2.8-6.2,0.2-9.2
	c13.6-13.7,27.2-27.4,40.8-41c3.6-3.6,6.5-3.5,10.3,0.1c2.1,1.9,4,4,6,6c5.1,5.2,5.2,7.3,0.1,12.4c-13.1,13.2-26.2,26.4-39.4,39.6
	C145.2,292.8,143.7,294.1,141.5,293.9z"/>
<path class="st2" d="M199.7,123.8c1.9,8.9-4.9,14.7-10.1,21c-3,3.6-12.2,1.7-16.3-2.7c-5.2-5.7-6.2-12.8-6.2-20
	c0-4.9,1-9.9,3.3-14.4c2.8-5.4,7-8.4,13.1-8.4s10.4,3.1,13.1,8.4C199.1,112.4,200.1,117.6,199.7,123.8z M173.6,122.5
	c-0.1,4.2,0.1,8.3,1.5,12.3c1.4,3.9,3.9,6.7,8.3,6.8c4.4,0.1,7.1-2.5,8.4-6.5c2.7-8.1,2.7-16.3,0-24.4c-1.3-4-4-6.6-8.4-6.6
	s-6.9,2.8-8.4,6.7C173.8,114.5,173.6,118.5,173.6,122.5z"/>
<path class="st2" d="M265.6,243.4c0-1.8,0.3-3.7-0.1-5.5c-0.5-3,1.6-3.3,3.5-3.8c2.5-0.7,2.2,1.6,2.4,2.8c1.1,7.3,1.2,14.6-1.9,21.6
	c-2.5,5.7-6.5,9.4-13.3,9.6c-7,0.1-11.2-3.4-14-9.3c-2.6-5.4-2.7-11.2-2.6-17.1c0-2.4,1.3-2.6,3.2-2.7c2.1-0.1,3.1,0.5,2.9,2.8
	c-0.3,4.2,0.1,8.3,1,12.4c1.2,5.8,4.5,9,9.1,9c4.7,0,7.5-2.9,9.1-8.9C265.9,250.6,265.8,247,265.6,243.4z"/>
<path class="st2" d="M271.6,121.5c-4-0.5-6.3-2.4-6.2-6.7c0-1.3-0.5-2.6-0.9-3.9c-1.6-4-4.1-7-8.8-6.9c-4.4,0.1-7.2,2.8-8.1,6.8
	c-0.9,4.2-3.2,4.9-6.8,3.8c1.2-9.9,8.2-16.4,16.6-15.4C266.5,100.3,272.8,110.2,271.6,121.5z"/>
<path class="st2" d="M198.6,236.3c1.8,8.6,1.9,16.9-2.6,24.6c-3.9,6.6-10.3,8.7-17.6,5.8c1.4-2,2.6-3.7,5.4-3.6
	c4.1,0.2,6.6-2.3,7.8-5.8c1.6-4.6,3.6-9.4,2.5-14.5C193.3,239.1,196.6,238.3,198.6,236.3z"/>
<path class="st2" d="M219.9,235.1c4.4-0.1,6.1,1.6,5.9,5.9c-0.4,7.3-0.1,14.6-0.1,22c0,2.3-0.1,4.7-3.2,4.6
	c-2.7-0.1-2.7-2.4-2.7-4.5C219.9,253.8,219.9,244.5,219.9,235.1z"/>
<path class="st2" d="M147.5,247.7c0-5.7-0.1-10.9,0-16.2c0.1-3.3-0.9-5-4.6-4.7c-2,0.2-4.4,0.2-4.1-2.8c0.2-2.8,2.6-2.1,4.2-2.1
	c11.1,0.2,10.5-2.2,10.6,10.6C153.7,238.2,154.6,244,147.5,247.7z"/>
<path class="st1" d="M196.8,217.1c1.7,1.9,3.6,3.9,5.3,6.1c1.5,1.9-0.8,2.5-1.6,3.4c-1.7,2-3.7,3.8-5.6,5.7
	c-4.7,4.7-6.4,4.5-10.1-1.1c-0.5-0.7-1.1-1.3-0.3-2.1c3.6-3.7,7.2-7.3,10.8-11C195.5,217.9,195.8,217.7,196.8,217.1z"/>
<path class="st2" d="M225.7,109.6c0,2,0,4,0,5.9c0,2.9-2.5,2.9-4.2,3.2c-2.7,0.4-1.4-2-1.5-3.1c-0.2-1.4-0.2-3,0-4.4
	c0.4-4.3-0.8-6.8-5.7-6.2c-1.8,0.2-3.4-0.4-3.2-2.7c0.1-1.9,1.6-2.3,3.2-2.2c0.7,0,1.3,0,2,0C226.7,100.3,225.6,98.6,225.7,109.6z"
	/>
<path class="st2" d="M173.3,225.4c3.3-3.3,6.8-4.6,11.4-4.3C182.2,226.1,178.6,227.2,173.3,225.4z"/>
<path class="st2" d="M179.9,161c0.9,0.7,3.1-1.4,3.1,1.6c-0.1,2.4-0.9,3.6-3.6,3.4c-1.9-0.2-3.9-0.1-3.8-2.7
	C175.8,160.6,178,161.1,179.9,161z"/>
<path class="st2" d="M189.2,207.3c-6.4-1.4-4.3-5.5-3.9-8.7C186.5,201.2,187.6,203.7,189.2,207.3z"/>
<path class="st1" d="M125.9,269c-0.4-1.1,0.2-1.2,1.1-1.1C127.5,269.1,127.1,269.5,125.9,269z"/>
<path class="st2" d="M128.9,122.6c0.3,5.3-0.6,10.1-2.7,14.7c-2.8,6.1-7.4,9.1-14.1,9.1c-6.9,0-11.4-3.5-13.8-9.5
	c-3.8-9.3-3.8-18.8,0-28.2c2.5-6.2,7.4-9.7,14.3-9.6c6.8,0.1,11.2,3.7,13.8,9.6C128.4,113.2,129.3,117.9,128.9,122.6z M101.9,122.7
	c-0.3,4.2,0.1,8.3,1.5,12.3c1.5,4.2,4.4,6.6,8.9,6.6s7.5-2.4,8.8-6.7c2.4-7.8,2.5-15.7,0.2-23.5c-1.3-4.6-4.2-7.4-9.3-7.3
	c-5.2,0.1-7.7,3.4-9.1,7.8C101.8,115.4,101.6,119,101.9,122.7z"/>
<path class="st2" d="M128.9,244.6c0.4,4.8-0.5,9.3-2.3,13.7c-2.9,6.9-7.3,9.6-14.6,9.8c-7.2,0.1-11.6-3.7-13.9-9.9
	c-3.7-9.7-3.7-19.5,0.9-29c2.7-5.6,7.3-8.2,13.7-8.1c6.2,0.1,10.4,3,13.1,8.3C128.2,234,129.2,239.2,128.9,244.6z M101.9,244.3
	c-0.3,4.2,0,8.4,1.5,12.3c1.5,4,4.1,6.7,8.9,6.6c4.7-0.1,7.5-2.4,8.8-6.6c2.5-8,2.6-16,0.1-24c-1.4-4.4-4.2-6.9-9.1-6.8
	c-5.1,0-7.5,3.1-8.9,7.2C101.9,236.7,101.5,240.5,101.9,244.3z"/>
<path class="st2" d="M162.9,184.6c0.4,4.3-0.6,9-2.6,13.4c-2.6,5.8-7,9.2-13.5,9.2c-6.3,0-10.9-3.2-13.2-8.9
	c-4.4-10.8-4.8-21.8,1.6-32c5.3-8.5,17.2-8.6,23.2-0.4C161.5,170.4,162.9,175.7,162.9,184.6z M136.9,183.6
	c-0.2,4.3,0.1,8.7,1.9,12.9c1.6,3.7,4.1,5.9,8.4,5.7c4.1-0.1,6.5-2.4,7.7-5.9c2.9-8.4,2.9-16.9,0-25.4c-1.2-3.5-3.8-5.9-7.7-6
	c-4.1-0.1-6.8,2.1-8.4,5.8C137,174.8,136.6,179,136.9,183.6z"/>
<path class="st2" d="M153.6,123.1c0,5.8,0.1,11.6,0,17.5c0,2.2,0.2,5.2-3.1,5.3c-3.6,0.1-2.9-3-3-5.1c-0.1-9.8-0.2-19.6,0-29.4
	c0.1-4.2-0.7-6.9-5.7-6.2c-1.7,0.2-3-0.4-3.1-2.4c0-1.9,1.2-2.5,3-2.5c12.8,0.2,11.8-2,11.8,10.5
	C153.6,114.8,153.6,118.9,153.6,123.1z"/>
<path class="st2" d="M114.9,183.8c0,6.3,0,12.6,0,18.9c0,2.2-0.2,4.1-3,4.2c-2.8,0.1-3.8-1.6-3.8-4.1c0-10.5-0.1-20.9,0.1-31.4
	c0.1-3.9-0.8-6.2-5.2-5.5c-1.9,0.3-3.5-0.4-3.6-2.4c-0.1-2.1,1.6-2.4,3.5-2.5c12-0.8,12-0.8,12,11.4
	C114.9,176.1,114.9,180,114.9,183.8z"/>
<path class="st0" d="M289,177.8c0,25.2-20.1,45.2-45.3,45.2c-25.4-0.1-45.9-20.9-45.9-46.6c0.1-24.6,20.4-44.9,45.2-45
	C268.4,131.2,289,152,289,177.8z M261.3,141.2c-7.8-4.3-16.1-5-24.6-4.1c-1.7,0.2-2.9,0.6-2.9,3c0.2,22.1,0.2,44.2,0.3,66.4
	c0,11.1,1.6,12.5,12.8,11c0.8-0.1,1.6-0.4,2.5-0.3c4.2,0.2,4.3-1.4,3.2-5.1C245.5,187.4,246.6,163.6,261.3,141.2z M229.5,215.1
	c0-12.8,0-24.9,0-37.1c0-11.1,0.1-22.3,0-33.4c0-5.5-0.8-5.9-5.6-3.3c-4,2.2-7.4,5-10.5,8.3c-0.8,0.9-1.5,1.6-1.4,3
	c1.1,15.6,0.2,31.2,0.5,46.9c0,1.8-0.1,3.6,1.4,5.1C218.1,209,222.8,212.8,229.5,215.1z M253.2,184.1c0.3,12.1,1.5,20.1,4.4,27.8
	c0.4,1.1,0.5,3.2,2.3,2.5c4.5-1.8,8.5-4.4,11.9-8c2.2-2.4,0.5-5,0.3-7.6c-0.9-13.1-2.2-26.4,3.1-38.8c2.1-4.9,1-7.6-2.2-10.6
	c-0.4-0.3-0.7-0.7-1-1.1c-5.5-5.5-6.1-5.5-10.1,1.3C254.8,161.6,253.1,174.6,253.2,184.1z M280.1,161.3c-4.1,7.6-5.4,24.2-2.9,37.2
	C284.5,191.3,286.2,171.4,280.1,161.3z M207.6,159.4c-6.2,10.1-6,26.8,0,34.3C207.6,182.5,207.6,171.3,207.6,159.4z"/>
<path class="st0" d="M173.6,122.5c0-4,0.1-8,1.5-11.8s3.9-6.7,8.4-6.7c4.4,0,7.1,2.6,8.4,6.6c2.7,8.1,2.6,16.3,0,24.4
	c-1.3,4-4.1,6.6-8.4,6.5c-4.4-0.1-6.9-2.9-8.3-6.8C173.7,130.9,173.6,126.7,173.6,122.5z M188.8,123.1c0-4,0.1-7.9-1.8-11.6
	c-0.7-1.4-1.6-2.4-3.4-2.4c-1.8,0-2.9,1-3.4,2.4c-2.7,7.6-2.7,15.2,0.1,22.7c0.5,1.4,1.7,2.6,3.4,2.6c1.6,0,2.6-1.1,3.4-2.6
	C188.7,130.7,188.8,126.9,188.8,123.1z"/>
<path class="st0" d="M101.9,122.7c-0.3-3.7-0.1-7.3,1-10.8c1.4-4.4,3.9-7.7,9.1-7.8c5.1-0.1,8,2.8,9.3,7.3
	c2.3,7.8,2.2,15.7-0.2,23.5c-1.3,4.3-4.3,6.7-8.8,6.7s-7.4-2.4-8.9-6.6C102,131,101.6,126.9,101.9,122.7z M117.9,122.3
	c0.2-3.2,0-6.7-1.3-10c-0.8-1.9-1.8-3.4-4.3-3.4s-3.7,1.3-4.3,3.3c-2.1,7.1-2.1,14.3,0.2,21.4c0.6,1.8,1.9,3.1,4,3.1
	c2.2,0,3.2-1.3,4.1-3.1C118,130.2,118,126.4,117.9,122.3z"/>
<path class="st0" d="M101.9,244.3c-0.4-3.8-0.1-7.6,1.2-11.2c1.4-4.1,3.8-7.2,8.9-7.2c4.9,0,7.8,2.5,9.1,6.8c2.5,8,2.4,16-0.1,24
	c-1.3,4.2-4.2,6.5-8.8,6.6c-4.8,0.1-7.4-2.6-8.9-6.6C101.9,252.7,101.6,248.6,101.9,244.3z M117.9,244.6c0.2-3.4,0.1-7.1-1.3-10.6
	c-0.8-1.9-2-3.4-4.4-3.3c-2.2,0.1-3.5,1.2-4.1,3.1c-2.2,7.2-2.2,14.4,0,21.6c0.6,1.8,1.9,3.1,4,3.2c2.4,0.1,3.6-1.4,4.4-3.4
	C117.8,251.8,118,248.3,117.9,244.6z"/>
<path class="st0" d="M136.9,183.6c-0.2-4.6,0.1-8.9,1.9-12.9c1.6-3.7,4.3-5.9,8.4-5.8c4,0.1,6.5,2.5,7.7,6c2.9,8.4,2.9,16.9,0,25.4
	c-1.2,3.5-3.7,5.8-7.7,5.9c-4.3,0.2-6.8-2.1-8.4-5.7C136.9,192.3,136.6,187.9,136.9,183.6z M151.8,183.9c0.1-3.7,0.2-7.4-1.2-10.8
	c-0.7-1.7-1.7-3.3-4-3.3c-2,0.1-3,1.5-3.5,3.1c-2.3,7.2-2.2,14.4,0,21.5c0.5,1.6,1.6,3.1,3.5,3.1c2.1,0.1,3.1-1.6,3.9-3.3
	C151.9,190.9,152,187.4,151.8,183.9z"/>
<path class="st2" d="M229.5,215.1c-6.7-2.3-11.4-6-15.7-10.5c-1.4-1.5-1.3-3.3-1.4-5.1c-0.3-15.6,0.6-31.2-0.5-46.9
	c-0.1-1.4,0.7-2.1,1.4-3c3.1-3.3,6.5-6.2,10.5-8.3c4.8-2.6,5.6-2.2,5.6,3.3c0.1,11.1,0,22.3,0,33.4
	C229.5,190.1,229.5,202.3,229.5,215.1z"/>
<path class="st2" d="M253.2,184.1c-0.1-9.5,1.6-22.5,8.5-34.3c4-6.9,4.6-6.9,10.1-1.3c0.4,0.4,0.7,0.7,1,1.1c3.2,3,4.3,5.7,2.2,10.6
	c-5.3,12.4-4,25.7-3.1,38.8c0.2,2.5,1.9,5.1-0.3,7.6c-3.3,3.6-7.4,6.2-11.9,8c-1.8,0.7-1.9-1.4-2.3-2.5
	C254.7,204.2,253.6,196.2,253.2,184.1z"/>
</svg>
