<?xml version="1.0" encoding="UTF-8"?>
<svg xmlns="http://www.w3.org/2000/svg" xmlns:xlink="http://www.w3.org/1999/xlink" width="300px" height="300px" viewBox="0 0 300 300" version="1.1">
<g id="surface1">
<path style=" stroke:none;fill-rule:nonzero;fill:rgb(87.058824%,97.254902%,98.823529%);fill-opacity:1;" d="M 0 0 L 299.925781 0 L 299.925781 200.730469 L 0 200.730469 Z M 0 0 "/>
<path style=" stroke:none;fill-rule:nonzero;fill:rgb(73.725492%,91.764706%,96.862745%);fill-opacity:1;" d="M 280.019531 263.535156 L 19.980469 263.535156 L 19.980469 179.746094 C 19.980469 107.941406 78.195312 49.726562 150 49.726562 C 221.804688 49.726562 280.019531 107.941406 280.019531 179.746094 Z M 280.019531 263.535156 "/>
<path style=" stroke:none;fill-rule:nonzero;fill:rgb(57.647061%,58.431375%,59.607846%);fill-opacity:1;" d="M 0 200.730469 L 299.925781 200.730469 L 299.925781 299.761719 L 0 299.761719 Z M 0 200.730469 "/>
<path style=" stroke:none;fill-rule:nonzero;fill:rgb(51.764709%,52.156866%,52.941179%);fill-opacity:1;" d="M 28.351562 232.949219 L 258.058594 232.949219 L 258.058594 246.148438 L 28.351562 246.148438 Z M 28.351562 232.949219 "/>
<path style=" stroke:none;fill-rule:nonzero;fill:rgb(100%,100%,100%);fill-opacity:1;" d="M 268.183594 135.332031 L 197.699219 135.332031 C 195.433594 135.332031 193.589844 137.160156 193.589844 139.441406 C 193.589844 141.707031 195.417969 143.550781 197.699219 143.550781 L 226.636719 143.550781 C 227.625 143.851562 228.332031 144.75 228.332031 145.832031 C 228.332031 147.148438 227.265625 148.214844 225.945312 148.214844 L 181.246094 148.214844 C 179.113281 148.214844 177.375 149.941406 177.375 152.085938 C 177.375 154.214844 179.101562 155.957031 181.246094 155.957031 L 259.304688 155.957031 C 261.433594 155.957031 263.175781 154.230469 263.175781 152.085938 C 263.175781 149.957031 261.449219 148.214844 259.304688 148.214844 L 259.800781 148.214844 C 258.480469 148.214844 257.414062 147.148438 257.414062 145.832031 C 257.414062 144.75 258.136719 143.835938 259.109375 143.550781 L 268.167969 143.550781 C 270.433594 143.550781 272.277344 141.722656 272.277344 139.441406 C 272.277344 137.160156 270.449219 135.332031 268.183594 135.332031 Z M 268.183594 135.332031 "/>
<path style=" stroke:none;fill-rule:nonzero;fill:rgb(100%,100%,100%);fill-opacity:1;" d="M 282.613281 135.332031 L 281.085938 135.332031 C 278.820312 135.332031 276.976562 137.160156 276.976562 139.441406 C 276.976562 141.707031 278.804688 143.550781 281.085938 143.550781 L 282.613281 143.550781 C 284.878906 143.550781 286.726562 141.722656 286.726562 139.441406 C 286.710938 137.160156 284.878906 135.332031 282.613281 135.332031 Z M 282.613281 135.332031 "/>
<path style=" stroke:none;fill-rule:nonzero;fill:rgb(100%,100%,100%);fill-opacity:1;" d="M 168.539062 148.199219 L 162.285156 148.199219 C 160.152344 148.199219 158.414062 149.925781 158.414062 152.070312 C 158.414062 154.199219 160.140625 155.941406 162.285156 155.941406 L 168.539062 155.941406 C 170.667969 155.941406 172.410156 154.214844 172.410156 152.070312 C 172.410156 149.925781 170.667969 148.199219 168.539062 148.199219 Z M 168.539062 148.199219 "/>
<path style=" stroke:none;fill-rule:nonzero;fill:rgb(100%,100%,100%);fill-opacity:1;" d="M 116.667969 74.550781 L 71.972656 74.550781 C 70.648438 74.550781 69.585938 73.484375 69.585938 72.164062 C 69.585938 71.085938 70.304688 70.167969 71.277344 69.886719 L 92.207031 69.886719 C 94.472656 69.886719 96.316406 68.054688 96.316406 65.773438 C 96.316406 63.511719 94.484375 61.664062 92.207031 61.664062 L 21.722656 61.664062 C 19.457031 61.664062 17.609375 63.496094 17.609375 65.773438 C 17.609375 68.039062 19.441406 69.886719 21.722656 69.886719 L 38.804688 69.886719 C 39.792969 70.183594 40.5 71.085938 40.5 72.164062 C 40.5 73.484375 39.433594 74.550781 38.113281 74.550781 L 38.609375 74.550781 C 36.480469 74.550781 34.738281 76.273438 34.738281 78.417969 C 34.738281 80.550781 36.464844 82.289062 38.609375 82.289062 L 116.667969 82.289062 C 118.800781 82.289062 120.539062 80.566406 120.539062 78.417969 C 120.539062 76.289062 118.816406 74.550781 116.667969 74.550781 Z M 116.667969 74.550781 "/>
<path style=" stroke:none;fill-rule:nonzero;fill:rgb(100%,100%,100%);fill-opacity:1;" d="M 63.332031 28.558594 L 108.027344 28.558594 C 109.351562 28.558594 110.414062 27.496094 110.414062 26.175781 C 110.414062 25.097656 109.695312 24.179688 108.722656 23.894531 L 87.777344 23.894531 C 85.515625 23.894531 83.667969 22.066406 83.667969 19.785156 C 83.667969 17.519531 85.5 15.675781 87.777344 15.675781 L 158.265625 15.675781 C 160.527344 15.675781 162.375 17.503906 162.375 19.785156 C 162.375 22.050781 160.542969 23.894531 158.265625 23.894531 L 141.195312 23.894531 C 140.207031 24.195312 139.5 25.097656 139.5 26.175781 C 139.5 27.496094 140.566406 28.558594 141.886719 28.558594 L 141.390625 28.558594 C 143.519531 28.558594 145.261719 30.285156 145.261719 32.429688 C 145.261719 34.558594 143.535156 36.300781 141.390625 36.300781 L 63.332031 36.300781 C 61.199219 36.300781 59.460938 34.574219 59.460938 32.429688 C 59.460938 30.285156 61.183594 28.558594 63.332031 28.558594 Z M 63.332031 28.558594 "/>
<path style=" stroke:none;fill-rule:nonzero;fill:rgb(100%,100%,100%);fill-opacity:1;" d="M 135.644531 74.550781 L 129.390625 74.550781 C 127.261719 74.550781 125.519531 76.273438 125.519531 78.417969 C 125.519531 80.550781 127.246094 82.289062 129.390625 82.289062 L 135.644531 82.289062 C 137.773438 82.289062 139.515625 80.566406 139.515625 78.417969 C 139.515625 76.289062 137.789062 74.550781 135.644531 74.550781 Z M 135.644531 74.550781 "/>
<path style=" stroke:none;fill-rule:nonzero;fill:rgb(100%,100%,100%);fill-opacity:1;" d="M 240.195312 76.472656 L 239.386719 76.472656 C 237.777344 76.472656 236.488281 75.179688 236.488281 73.574219 C 236.488281 71.972656 237.777344 70.679688 239.386719 70.679688 L 251.324219 70.679688 C 253.394531 70.679688 255.074219 69 255.074219 66.929688 C 255.074219 64.859375 253.394531 63.179688 251.324219 63.179688 L 206.414062 63.179688 C 204.347656 63.179688 202.664062 64.859375 202.664062 66.929688 C 202.664062 69 204.347656 70.679688 206.414062 70.679688 L 211.351562 70.679688 C 212.957031 70.679688 214.246094 71.972656 214.246094 73.574219 C 214.246094 75.179688 212.957031 76.472656 211.351562 76.472656 L 198.269531 76.472656 C 196.980469 76.472656 195.914062 77.519531 195.914062 78.824219 C 195.914062 80.113281 196.964844 81.179688 198.269531 81.179688 L 240.195312 81.179688 C 241.484375 81.179688 242.550781 80.128906 242.550781 78.824219 C 242.550781 77.519531 241.5 76.472656 240.195312 76.472656 Z M 240.195312 76.472656 "/>
<path style=" stroke:none;fill-rule:nonzero;fill:rgb(100%,100%,100%);fill-opacity:1;" d="M 257.878906 76.472656 L 248.445312 76.472656 C 247.152344 76.472656 246.089844 77.519531 246.089844 78.824219 C 246.089844 80.113281 247.140625 81.179688 248.445312 81.179688 L 257.878906 81.179688 C 259.167969 81.179688 260.234375 80.128906 260.234375 78.824219 C 260.234375 77.519531 259.183594 76.472656 257.878906 76.472656 Z M 257.878906 76.472656 "/>
<path style=" stroke:none;fill-rule:nonzero;fill:rgb(100%,100%,100%);fill-opacity:1;" d="M 269.160156 76.472656 L 266.667969 76.472656 C 265.378906 76.472656 264.316406 77.519531 264.316406 78.824219 C 264.316406 80.128906 265.363281 81.179688 266.667969 81.179688 L 269.160156 81.179688 C 270.449219 81.179688 271.515625 80.128906 271.515625 78.824219 C 271.515625 77.519531 270.449219 76.472656 269.160156 76.472656 Z M 269.160156 76.472656 "/>
<path style=" stroke:none;fill-rule:nonzero;fill:rgb(100%,100%,100%);fill-opacity:1;" d="M 69.824219 146.699219 L 47.851562 146.699219 C 46.515625 146.699219 45.417969 145.605469 45.417969 144.269531 C 45.417969 142.933594 46.515625 141.839844 47.851562 141.839844 L 61.441406 141.839844 C 63.960938 141.839844 66 139.800781 66 137.277344 C 66 134.761719 63.960938 132.722656 61.441406 132.722656 L 21.347656 132.722656 C 18.824219 132.722656 16.785156 134.761719 16.785156 137.277344 C 16.785156 139.800781 18.824219 141.839844 21.347656 141.839844 L 26.730469 141.839844 C 28.066406 141.839844 29.160156 142.933594 29.160156 144.269531 C 29.160156 145.605469 28.066406 146.699219 26.730469 146.699219 L 25.875 146.699219 C 23.761719 146.699219 22.050781 148.410156 22.050781 150.523438 C 22.050781 152.640625 23.761719 154.351562 25.875 154.351562 L 69.824219 154.351562 C 71.941406 154.351562 73.648438 152.640625 73.648438 150.523438 C 73.648438 148.410156 71.941406 146.699219 69.824219 146.699219 Z M 69.824219 146.699219 "/>
<path style=" stroke:none;fill-rule:nonzero;fill:rgb(100%,100%,100%);fill-opacity:1;" d="M 189.765625 111.808594 L 167.789062 111.808594 C 166.457031 111.808594 165.359375 110.714844 165.359375 109.378906 C 165.359375 108.042969 166.457031 106.949219 167.789062 106.949219 L 181.378906 106.949219 C 183.898438 106.949219 185.941406 104.910156 185.941406 102.390625 C 185.941406 99.871094 183.898438 97.832031 181.378906 97.832031 L 141.269531 97.832031 C 138.75 97.832031 136.710938 99.871094 136.710938 102.390625 C 136.710938 104.910156 138.75 106.949219 141.269531 106.949219 L 146.652344 106.949219 C 147.988281 106.949219 149.085938 108.042969 149.085938 109.378906 C 149.085938 110.714844 147.988281 111.808594 146.652344 111.808594 L 145.800781 111.808594 C 143.683594 111.808594 141.976562 113.519531 141.976562 115.636719 C 141.976562 117.75 143.683594 119.460938 145.800781 119.460938 L 189.75 119.460938 C 191.863281 119.460938 193.574219 117.75 193.574219 115.636719 C 193.574219 113.519531 191.878906 111.808594 189.765625 111.808594 Z M 189.765625 111.808594 "/>
<path style=" stroke:none;fill-rule:nonzero;fill:rgb(100%,100%,100%);fill-opacity:1;" d="M 282.675781 29.144531 L 260.699219 29.144531 C 259.363281 29.144531 258.269531 28.050781 258.269531 26.714844 C 258.269531 25.378906 259.363281 24.285156 260.699219 24.285156 L 274.289062 24.285156 C 276.808594 24.285156 278.851562 22.246094 278.851562 19.726562 C 278.851562 17.207031 276.808594 15.164062 274.289062 15.164062 L 234.195312 15.164062 C 231.675781 15.164062 229.636719 17.207031 229.636719 19.726562 C 229.636719 22.246094 231.675781 24.285156 234.195312 24.285156 L 239.582031 24.285156 C 240.914062 24.285156 242.011719 25.378906 242.011719 26.714844 C 242.011719 28.050781 240.914062 29.144531 239.582031 29.144531 L 238.726562 29.144531 C 236.609375 29.144531 234.898438 30.855469 234.898438 32.972656 C 234.898438 35.085938 236.609375 36.792969 238.726562 36.792969 L 282.675781 36.792969 C 284.789062 36.792969 286.5 35.085938 286.5 32.972656 C 286.5 30.855469 284.789062 29.144531 282.675781 29.144531 Z M 282.675781 29.144531 "/>
<path style=" stroke:none;fill-rule:nonzero;fill:rgb(100%,100%,100%);fill-opacity:1;" d="M 134.175781 111.808594 L 133.246094 111.808594 C 131.128906 111.808594 129.417969 113.519531 129.417969 115.636719 C 129.417969 117.75 131.128906 119.460938 133.246094 119.460938 L 134.175781 119.460938 C 136.289062 119.460938 138 117.75 138 115.636719 C 138 113.519531 136.289062 111.808594 134.175781 111.808594 Z M 134.175781 111.808594 "/>
<path style=" stroke:none;fill-rule:nonzero;fill:rgb(100%,100%,100%);fill-opacity:1;" d="M 121.003906 111.808594 L 120.074219 111.808594 C 117.960938 111.808594 116.25 113.519531 116.25 115.636719 C 116.25 117.75 117.960938 119.460938 120.074219 119.460938 L 121.003906 119.460938 C 123.121094 119.460938 124.832031 117.75 124.832031 115.636719 C 124.832031 113.519531 123.121094 111.808594 121.003906 111.808594 Z M 121.003906 111.808594 "/>
<path style=" stroke:none;fill-rule:nonzero;fill:rgb(37.64706%,22.352941%,7.450981%);fill-opacity:1;" d="M 37.847656 115.097656 L 46.558594 115.097656 L 46.558594 200.730469 L 37.847656 200.730469 Z M 37.847656 115.097656 "/>
<path style=" stroke:none;fill-rule:nonzero;fill:rgb(22.352941%,70.980394%,29.019609%);fill-opacity:1;" d="M 73.410156 114.074219 C 73.410156 131.304688 59.441406 145.273438 42.210938 145.273438 C 24.980469 145.273438 11.011719 131.304688 11.011719 114.074219 C 11.011719 96.84375 24.980469 82.875 42.210938 82.875 C 59.441406 82.875 73.410156 96.84375 73.410156 114.074219 Z M 73.410156 114.074219 "/>
<path style=" stroke:none;fill-rule:nonzero;fill:rgb(15.294118%,57.647061%,19.215687%);fill-opacity:1;" d="M 59.683594 88.214844 C 62.699219 93.015625 64.457031 98.699219 64.457031 104.804688 C 64.457031 122.039062 50.488281 136.003906 33.253906 136.003906 C 26.773438 136.003906 20.761719 134.023438 15.777344 130.648438 C 21.300781 139.425781 31.082031 145.261719 42.210938 145.261719 C 59.445312 145.261719 73.410156 131.292969 73.410156 114.058594 C 73.410156 103.304688 67.964844 93.824219 59.683594 88.214844 Z M 59.683594 88.214844 "/>
<path style=" stroke:none;fill-rule:nonzero;fill:rgb(37.64706%,22.352941%,7.450981%);fill-opacity:1;" d="M 261.660156 124.890625 L 269.386719 124.890625 L 269.386719 200.730469 L 261.660156 200.730469 Z M 261.660156 124.890625 "/>
<path style=" stroke:none;fill-rule:nonzero;fill:rgb(22.352941%,70.980394%,29.019609%);fill-opacity:1;" d="M 293.160156 123.976562 C 293.160156 139.234375 280.789062 151.605469 265.527344 151.605469 C 250.269531 151.605469 237.898438 139.234375 237.898438 123.976562 C 237.898438 108.714844 250.269531 96.347656 265.527344 96.347656 C 280.789062 96.347656 293.160156 108.714844 293.160156 123.976562 Z M 293.160156 123.976562 "/>
<path style=" stroke:none;fill-rule:nonzero;fill:rgb(15.294118%,57.647061%,19.215687%);fill-opacity:1;" d="M 281.011719 101.085938 C 283.679688 105.347656 285.238281 110.371094 285.238281 115.769531 C 285.238281 131.023438 272.863281 143.398438 257.609375 143.398438 C 251.878906 143.398438 246.554688 141.660156 242.128906 138.660156 C 247.019531 146.429688 255.675781 151.605469 265.542969 151.605469 C 280.800781 151.605469 293.175781 139.230469 293.175781 123.976562 C 293.160156 114.449219 288.347656 106.050781 281.011719 101.085938 Z M 281.011719 101.085938 "/>
<path style=" stroke:none;fill-rule:nonzero;fill:rgb(37.64706%,22.352941%,7.450981%);fill-opacity:1;" d="M 72.871094 127.917969 L 80.277344 127.917969 L 80.277344 200.730469 L 72.871094 200.730469 Z M 72.871094 127.917969 "/>
<path style=" stroke:none;fill-rule:nonzero;fill:rgb(22.352941%,70.980394%,29.019609%);fill-opacity:1;" d="M 76.574219 152.101562 C 67.847656 152.101562 60.765625 145.019531 60.765625 136.289062 L 60.765625 122.234375 C 60.765625 113.503906 67.847656 106.425781 76.574219 106.425781 C 85.304688 106.425781 92.386719 113.503906 92.386719 122.234375 L 92.386719 136.289062 C 92.386719 145.019531 85.304688 152.101562 76.574219 152.101562 Z M 76.574219 152.101562 "/>
<path style=" stroke:none;fill-rule:nonzero;fill:rgb(15.294118%,57.647061%,19.215687%);fill-opacity:1;" d="M 76.574219 106.425781 C 74.910156 106.425781 73.320312 106.679688 71.804688 107.160156 C 78.210938 109.183594 82.847656 115.167969 82.847656 122.234375 L 82.847656 136.289062 C 82.847656 143.355469 78.210938 149.339844 71.804688 151.363281 C 73.304688 151.847656 74.910156 152.101562 76.574219 152.101562 C 85.304688 152.101562 92.386719 145.019531 92.386719 136.289062 L 92.386719 122.234375 C 92.386719 113.503906 85.304688 106.425781 76.574219 106.425781 Z M 76.574219 106.425781 "/>
<path style=" stroke:none;fill-rule:nonzero;fill:rgb(37.64706%,22.352941%,7.450981%);fill-opacity:1;" d="M 176.582031 117.402344 L 185.070312 117.402344 L 185.070312 200.730469 L 176.582031 200.730469 Z M 176.582031 117.402344 "/>
<path style=" stroke:none;fill-rule:nonzero;fill:rgb(22.352941%,70.980394%,29.019609%);fill-opacity:1;" d="M 180.824219 145.066406 C 170.835938 145.066406 162.734375 136.964844 162.734375 126.976562 L 162.734375 110.910156 C 162.734375 100.917969 170.835938 92.820312 180.824219 92.820312 C 190.816406 92.820312 198.914062 100.917969 198.914062 110.910156 L 198.914062 126.988281 C 198.898438 136.980469 190.816406 145.066406 180.824219 145.066406 Z M 180.824219 145.066406 "/>
<path style=" stroke:none;fill-rule:nonzero;fill:rgb(15.294118%,57.647061%,19.215687%);fill-opacity:1;" d="M 180.824219 92.820312 C 178.917969 92.820312 177.089844 93.121094 175.378906 93.660156 C 182.699219 95.972656 188.011719 102.824219 188.011719 110.910156 L 188.011719 126.988281 C 188.011719 135.074219 182.699219 141.929688 175.378906 144.238281 C 177.105469 144.777344 178.933594 145.082031 180.824219 145.082031 C 190.816406 145.082031 198.914062 136.980469 198.914062 126.988281 L 198.914062 110.910156 C 198.898438 100.917969 190.816406 92.820312 180.824219 92.820312 Z M 180.824219 92.820312 "/>
<path style=" stroke:none;fill-rule:nonzero;fill:rgb(22.352941%,70.980394%,29.019609%);fill-opacity:1;" d="M 0 191.070312 L 299.925781 191.070312 L 299.925781 200.730469 L 0 200.730469 Z M 0 191.070312 "/>
<path style=" stroke:none;fill-rule:nonzero;fill:rgb(51.764709%,52.156866%,52.941179%);fill-opacity:1;" d="M 0 200.730469 L 300 200.730469 L 300 216.347656 L 0 216.347656 Z M 0 200.730469 "/>
<path style=" stroke:none;fill-rule:nonzero;fill:rgb(22.352941%,32.941177%,4.313726%);fill-opacity:1;" d="M 250.351562 172.890625 L 248.746094 172.890625 L 248.746094 156.628906 L 250.351562 156.628906 C 252.269531 156.628906 253.832031 158.191406 253.832031 160.109375 L 253.832031 169.410156 C 253.832031 171.332031 252.269531 172.890625 250.351562 172.890625 Z M 250.351562 172.890625 "/>
<path style=" stroke:none;fill-rule:nonzero;fill:rgb(55.29412%,77.64706%,24.705882%);fill-opacity:1;" d="M 204.613281 116.191406 L 250.019531 116.191406 L 250.019531 239.773438 L 204.613281 239.773438 Z M 204.613281 116.191406 "/>
<path style=" stroke:none;fill-rule:nonzero;fill:rgb(45.490196%,64.705884%,15.686275%);fill-opacity:1;" d="M 204.613281 116.191406 L 208.980469 116.191406 L 208.980469 239.773438 L 204.613281 239.773438 Z M 204.613281 116.191406 "/>
<path style=" stroke:none;fill-rule:nonzero;fill:rgb(45.490196%,64.705884%,15.686275%);fill-opacity:1;" d="M 245.667969 116.191406 L 250.035156 116.191406 L 250.035156 239.773438 L 245.667969 239.773438 Z M 245.667969 116.191406 "/>
<path style=" stroke:none;fill-rule:nonzero;fill:rgb(22.352941%,32.941177%,4.313726%);fill-opacity:1;" d="M 212.101562 135.332031 L 242.550781 135.332031 L 242.550781 160.875 L 212.101562 160.875 Z M 212.101562 135.332031 "/>
<path style=" stroke:none;fill-rule:nonzero;fill:rgb(74.901962%,92.941177%,46.666667%);fill-opacity:1;" d="M 212.101562 119.460938 L 242.550781 119.460938 L 242.550781 121.636719 L 212.101562 121.636719 Z M 212.101562 119.460938 "/>
<path style=" stroke:none;fill-rule:nonzero;fill:rgb(74.901962%,92.941177%,46.666667%);fill-opacity:1;" d="M 212.101562 123.824219 L 242.550781 123.824219 L 242.550781 126 L 212.101562 126 Z M 212.101562 123.824219 "/>
<path style=" stroke:none;fill-rule:nonzero;fill:rgb(74.901962%,92.941177%,46.666667%);fill-opacity:1;" d="M 212.101562 128.175781 L 242.550781 128.175781 L 242.550781 130.351562 L 212.101562 130.351562 Z M 212.101562 128.175781 "/>
<path style=" stroke:none;fill-rule:nonzero;fill:rgb(98.431373%,80.000001%,3.921569%);fill-opacity:1;" d="M 237.675781 172.890625 L 222.433594 185.234375 L 226.636719 189.839844 L 216.960938 204.628906 L 235.515625 190.230469 L 231.179688 184.710938 Z M 237.675781 172.890625 "/>
<path style=" stroke:none;fill-rule:nonzero;fill:rgb(22.352941%,32.941177%,4.313726%);fill-opacity:1;" d="M 226.949219 215.714844 L 196.019531 215.714844 C 184.890625 215.714844 175.847656 206.667969 175.847656 195.539062 C 175.847656 187.125 169.003906 180.285156 160.589844 180.285156 L 147.449219 180.285156 L 147.449219 175.785156 L 160.574219 175.785156 C 171.464844 175.785156 180.332031 184.648438 180.332031 195.539062 C 180.332031 204.179688 187.363281 211.214844 196.003906 211.214844 L 226.949219 211.214844 C 236.101562 211.214844 244.710938 207.644531 251.191406 201.179688 C 257.667969 194.714844 261.226562 186.105469 261.226562 176.941406 C 261.226562 171.464844 256.769531 167.011719 251.292969 167.011719 L 251.292969 162.511719 C 259.246094 162.511719 265.726562 168.976562 265.726562 176.941406 C 265.726562 187.289062 261.691406 197.039062 254.371094 204.359375 C 247.035156 211.679688 237.300781 215.714844 226.949219 215.714844 Z M 226.949219 215.714844 "/>
<path style=" stroke:none;fill-rule:nonzero;fill:rgb(0%,27.843139%,25.098041%);fill-opacity:1;" d="M 46.351562 167.085938 L 49.261719 167.085938 L 49.261719 169.917969 L 46.351562 169.917969 Z M 46.351562 167.085938 "/>
<path style=" stroke:none;fill-rule:nonzero;fill:rgb(0%,27.843139%,25.098041%);fill-opacity:1;" d="M 153.707031 167.085938 L 156.613281 167.085938 L 156.613281 169.917969 L 153.707031 169.917969 Z M 153.707031 167.085938 "/>
<path style=" stroke:none;fill-rule:nonzero;fill:rgb(0%,65.490198%,61.56863%);fill-opacity:1;" d="M 46.351562 162.886719 L 46.351562 169.917969 L 39.765625 169.917969 C 38.746094 169.917969 37.726562 169.679688 36.824219 169.183594 C 35.714844 168.570312 34.542969 167.476562 34.304688 165.523438 C 33.898438 162.285156 38.625 161.398438 40.246094 161.191406 C 40.542969 161.144531 40.847656 161.128906 41.144531 161.128906 L 44.597656 161.128906 C 45.570312 161.128906 46.351562 161.910156 46.351562 162.886719 Z M 46.351562 162.886719 "/>
<path style=" stroke:none;fill-rule:nonzero;fill:rgb(0%,65.490198%,61.56863%);fill-opacity:1;" d="M 156.613281 162.886719 L 156.613281 169.917969 L 163.199219 169.917969 C 164.222656 169.917969 165.238281 169.679688 166.140625 169.183594 C 167.25 168.570312 168.417969 167.476562 168.660156 165.523438 C 169.066406 162.285156 164.339844 161.398438 162.722656 161.191406 C 162.417969 161.144531 162.121094 161.128906 161.820312 161.128906 L 158.371094 161.128906 C 157.410156 161.128906 156.613281 161.910156 156.613281 162.886719 Z M 156.613281 162.886719 "/>
<path style=" stroke:none;fill-rule:nonzero;fill:rgb(0%,65.490198%,61.56863%);fill-opacity:1;" d="M 157.800781 175.816406 L 155.339844 174.332031 C 155.339844 173.925781 155.324219 173.519531 155.292969 173.128906 C 155.277344 172.859375 155.25 172.589844 155.222656 172.335938 C 155.207031 172.199219 155.191406 172.066406 155.160156 171.945312 C 155.011719 170.894531 154.753906 169.847656 154.394531 168.839844 C 154.304688 168.585938 154.214844 168.332031 154.109375 168.089844 L 144.792969 145.335938 C 144.027344 143.445312 142.917969 141.765625 141.570312 140.339844 C 141.027344 139.769531 140.445312 139.246094 139.832031 138.765625 C 139.679688 138.644531 139.515625 138.523438 139.363281 138.402344 C 139.050781 138.179688 138.722656 137.957031 138.390625 137.746094 C 137.566406 137.234375 136.679688 136.785156 135.765625 136.441406 C 134.667969 136.003906 133.515625 135.707031 132.332031 135.523438 C 131.535156 135.402344 130.738281 135.347656 129.914062 135.347656 L 73.050781 135.347656 C 66.523438 135.347656 60.644531 139.289062 58.183594 145.335938 L 48.871094 168.089844 C 48.058594 170.070312 47.640625 172.199219 47.640625 174.347656 L 45.179688 175.832031 C 40.515625 178.648438 37.664062 183.707031 37.664062 189.164062 L 37.664062 197.652344 C 37.664062 202.527344 38.25 207.390625 39.402344 212.113281 L 40.664062 217.320312 C 41.355469 220.152344 43.902344 222.164062 46.816406 222.164062 L 156.164062 222.164062 C 159.089844 222.164062 161.625 220.167969 162.316406 217.320312 L 163.574219 212.113281 C 164.730469 207.375 165.316406 202.515625 165.316406 197.652344 L 165.316406 189.164062 C 165.316406 183.691406 162.464844 178.636719 157.800781 175.816406 Z M 157.800781 175.816406 "/>
<path style=" stroke:none;fill-rule:nonzero;fill:rgb(0%,27.843139%,25.098041%);fill-opacity:1;" d="M 59.265625 193.726562 C 60.824219 193.847656 62.085938 192.496094 61.875 190.949219 C 61.589844 188.878906 60.75 186.015625 58.5 183.300781 C 55.664062 179.894531 51.148438 178.542969 48.496094 178.035156 C 46.890625 177.722656 45.253906 178.304688 44.222656 179.566406 C 43.425781 180.539062 42.660156 181.933594 42.433594 183.824219 C 42.136719 186.300781 42.179688 188.699219 42.269531 190.335938 C 42.332031 191.488281 43.246094 192.433594 44.398438 192.523438 Z M 59.265625 193.726562 "/>
<path style=" stroke:none;fill-rule:nonzero;fill:rgb(3.137255%,68.627453%,62.352943%);fill-opacity:1;" d="M 155.222656 172.320312 C 155.207031 172.183594 155.191406 172.050781 155.160156 171.929688 C 155.011719 170.878906 154.753906 169.832031 154.394531 168.824219 C 154.304688 168.570312 154.214844 168.316406 154.109375 168.074219 L 144.792969 145.320312 C 144.027344 143.429688 142.917969 141.75 141.570312 140.324219 C 141.027344 139.753906 140.445312 139.230469 139.832031 138.75 C 139.679688 138.628906 139.515625 138.511719 139.363281 138.390625 C 139.050781 138.164062 138.722656 137.941406 138.390625 137.730469 C 137.566406 137.222656 136.679688 136.769531 135.765625 136.425781 C 134.667969 135.988281 133.515625 135.691406 132.332031 135.511719 C 131.535156 135.390625 130.738281 135.332031 129.914062 135.332031 L 73.050781 135.332031 C 66.523438 135.332031 60.644531 139.273438 58.183594 145.320312 L 48.871094 168.074219 C 48.058594 170.054688 47.640625 172.183594 47.640625 174.332031 C 47.640625 174.332031 84.886719 177.960938 101.476562 177.960938 C 118.066406 177.960938 155.308594 174.332031 155.308594 174.332031 L 155.355469 174.226562 C 155.355469 173.851562 155.339844 173.488281 155.308594 173.128906 C 155.277344 172.847656 155.25 172.589844 155.222656 172.320312 Z M 155.222656 172.320312 "/>
<path style=" stroke:none;fill-rule:nonzero;fill:rgb(98.431373%,69.01961%,25.098041%);fill-opacity:1;" d="M 59.476562 192.539062 C 59.445312 192.539062 59.398438 192.539062 59.371094 192.539062 L 44.503906 191.339844 C 43.949219 191.292969 43.5 190.847656 43.472656 190.273438 C 43.378906 188.730469 43.351562 186.375 43.636719 183.976562 C 43.800781 182.597656 44.308594 181.363281 45.164062 180.332031 C 45.765625 179.582031 46.679688 179.160156 47.652344 179.160156 C 47.863281 179.160156 48.074219 179.175781 48.285156 179.222656 C 50.640625 179.683594 54.976562 180.914062 57.601562 184.082031 C 59.714844 186.628906 60.464844 189.316406 60.707031 191.128906 C 60.75 191.488281 60.644531 191.851562 60.402344 192.121094 C 60.164062 192.375 59.820312 192.539062 59.476562 192.539062 Z M 59.476562 192.539062 "/>
<path style=" stroke:none;fill-rule:nonzero;fill:rgb(25.490198%,25.098041%,25.882354%);fill-opacity:1;" d="M 46.816406 222.136719 C 43.890625 222.136719 41.355469 220.140625 40.664062 217.289062 L 39.402344 212.085938 C 38.25 207.347656 37.664062 202.484375 37.664062 197.625 L 37.664062 236.324219 C 37.664062 238.230469 39.210938 239.773438 41.113281 239.773438 L 51.613281 239.773438 C 53.519531 239.773438 55.066406 238.230469 55.066406 236.324219 L 55.066406 222.136719 Z M 46.816406 222.136719 "/>
<path style=" stroke:none;fill-rule:nonzero;fill:rgb(0%,27.843139%,25.098041%);fill-opacity:1;" d="M 143.699219 193.726562 C 142.140625 193.847656 140.878906 192.496094 141.089844 190.949219 C 141.375 188.878906 142.214844 186.015625 144.464844 183.300781 C 147.300781 179.894531 151.816406 178.542969 154.472656 178.035156 C 156.074219 177.722656 157.710938 178.304688 158.746094 179.566406 C 159.539062 180.539062 160.304688 181.933594 160.527344 183.824219 C 160.832031 186.300781 160.785156 188.699219 160.695312 190.335938 C 160.636719 191.488281 159.722656 192.433594 158.566406 192.523438 Z M 143.699219 193.726562 "/>
<path style=" stroke:none;fill-rule:nonzero;fill:rgb(98.431373%,69.01961%,25.098041%);fill-opacity:1;" d="M 143.503906 192.539062 C 143.144531 192.539062 142.816406 192.390625 142.574219 192.121094 C 142.335938 191.851562 142.230469 191.488281 142.273438 191.128906 C 142.527344 189.316406 143.265625 186.628906 145.378906 184.082031 C 148.003906 180.914062 152.339844 179.683594 154.695312 179.222656 C 154.902344 179.175781 155.113281 179.160156 155.324219 179.160156 C 156.300781 179.160156 157.199219 179.582031 157.816406 180.332031 C 158.652344 181.363281 159.179688 182.597656 159.347656 183.976562 C 159.628906 186.375 159.585938 188.730469 159.511719 190.273438 C 159.480469 190.832031 159.027344 191.292969 158.476562 191.339844 L 143.609375 192.539062 C 143.566406 192.523438 143.535156 192.539062 143.503906 192.539062 Z M 143.503906 192.539062 "/>
<path style=" stroke:none;fill-rule:nonzero;fill:rgb(25.490198%,25.098041%,25.882354%);fill-opacity:1;" d="M 156.164062 222.136719 C 159.089844 222.136719 161.625 220.140625 162.316406 217.289062 L 163.574219 212.085938 C 164.730469 207.347656 165.316406 202.484375 165.316406 197.625 L 165.316406 236.324219 C 165.316406 238.230469 163.769531 239.773438 161.863281 239.773438 L 151.363281 239.773438 C 149.460938 239.773438 147.914062 238.230469 147.914062 236.324219 L 147.914062 222.136719 Z M 156.164062 222.136719 "/>
<path style=" stroke:none;fill-rule:nonzero;fill:rgb(47.058824%,81.960785%,77.64706%);fill-opacity:1;" d="M 39.808594 213.808594 L 40.664062 217.304688 C 41.355469 220.140625 43.902344 222.148438 46.816406 222.148438 L 156.164062 222.148438 C 159.089844 222.148438 161.625 220.152344 162.316406 217.304688 L 163.167969 213.808594 Z M 39.808594 213.808594 "/>
<path style=" stroke:none;fill-rule:nonzero;fill:rgb(0%,27.843139%,25.098041%);fill-opacity:1;" d="M 128.265625 206.667969 L 74.714844 206.667969 C 73.425781 206.667969 72.449219 207.824219 72.660156 209.101562 L 73.605469 214.695312 C 74.144531 217.917969 76.933594 220.261719 80.207031 220.261719 L 122.746094 220.261719 C 126.015625 220.261719 128.789062 217.902344 129.347656 214.695312 L 130.289062 209.101562 C 130.527344 207.824219 129.554688 206.667969 128.265625 206.667969 Z M 128.265625 206.667969 "/>
<path style=" stroke:none;fill-rule:nonzero;fill:rgb(67.450982%,89.803922%,97.647059%);fill-opacity:1;" d="M 149.414062 165.691406 L 142.5 146.445312 C 141.148438 142.695312 137.597656 140.207031 133.621094 140.207031 L 69.359375 140.207031 C 65.386719 140.207031 61.832031 142.710938 60.480469 146.445312 L 53.566406 165.691406 C 52.832031 167.746094 54.347656 169.902344 56.535156 169.902344 L 146.445312 169.902344 C 148.636719 169.902344 150.148438 167.746094 149.414062 165.691406 Z M 149.414062 165.691406 "/>
<path style=" stroke:none;fill-rule:nonzero;fill:rgb(0%,27.843139%,25.098041%);fill-opacity:1;" d="M 132.511719 181.933594 C 122.804688 182.925781 101.476562 182.789062 101.476562 182.789062 C 101.476562 182.789062 80.160156 182.925781 70.441406 181.933594 C 69.058594 181.800781 67.917969 183 68.113281 184.363281 L 68.984375 190.152344 C 69.332031 192.480469 71.101562 194.355469 73.410156 194.804688 C 78.613281 195.839844 88.695312 197.429688 101.460938 197.429688 C 114.226562 197.429688 124.304688 195.839844 129.511719 194.804688 C 131.820312 194.339844 133.589844 192.480469 133.933594 190.152344 L 134.804688 184.363281 C 135.042969 182.984375 133.902344 181.800781 132.511719 181.933594 Z M 132.511719 181.933594 "/>
<path style=" stroke:none;fill-rule:nonzero;fill:rgb(0%,65.490198%,61.56863%);fill-opacity:1;" d="M 72.660156 209.101562 L 72.929688 210.722656 L 130.019531 210.722656 L 130.289062 209.101562 C 130.320312 208.964844 130.320312 208.832031 130.320312 208.695312 L 72.644531 208.695312 C 72.628906 208.832031 72.644531 208.964844 72.660156 209.101562 Z M 72.660156 209.101562 "/>
<path style=" stroke:none;fill-rule:nonzero;fill:rgb(0%,65.490198%,61.56863%);fill-opacity:1;" d="M 73.589844 214.542969 L 129.390625 214.542969 L 129.734375 212.519531 L 73.246094 212.519531 Z M 73.589844 214.542969 "/>
<path style=" stroke:none;fill-rule:nonzero;fill:rgb(0%,65.490198%,61.56863%);fill-opacity:1;" d="M 74.113281 216.347656 C 74.460938 217.109375 74.957031 217.800781 75.539062 218.371094 L 127.425781 218.371094 C 128.011719 217.800781 128.503906 217.109375 128.851562 216.347656 Z M 74.113281 216.347656 "/>
<path style=" stroke:none;fill-rule:nonzero;fill:rgb(90.196079%,90.588236%,90.980393%);fill-opacity:1;" d="M 114.824219 225.511719 L 88.152344 225.511719 C 87.402344 225.511719 86.804688 224.910156 86.804688 224.160156 L 86.804688 218.984375 C 86.804688 218.234375 87.402344 217.636719 88.152344 217.636719 L 114.824219 217.636719 C 115.574219 217.636719 116.175781 218.234375 116.175781 218.984375 L 116.175781 224.160156 C 116.175781 224.894531 115.574219 225.511719 114.824219 225.511719 Z M 114.824219 225.511719 "/>
<path style=" stroke:none;fill-rule:nonzero;fill:rgb(0%,27.843139%,25.098041%);fill-opacity:1;" d="M 53.085938 212.519531 C 53.085938 214.632812 51.371094 216.347656 49.261719 216.347656 C 47.148438 216.347656 45.433594 214.632812 45.433594 212.519531 C 45.433594 210.40625 47.148438 208.695312 49.261719 208.695312 C 51.371094 208.695312 53.085938 210.40625 53.085938 212.519531 Z M 53.085938 212.519531 "/>
<path style=" stroke:none;fill-rule:nonzero;fill:rgb(98.431373%,69.01961%,25.098041%);fill-opacity:1;" d="M 49.261719 215.746094 C 47.476562 215.746094 46.035156 214.304688 46.035156 212.519531 C 46.035156 210.75 47.476562 209.292969 49.261719 209.292969 C 51.027344 209.292969 52.484375 210.734375 52.484375 212.519531 C 52.484375 214.289062 51.042969 215.746094 49.261719 215.746094 Z M 49.261719 215.746094 "/>
<path style=" stroke:none;fill-rule:nonzero;fill:rgb(0%,27.843139%,25.098041%);fill-opacity:1;" d="M 157.527344 212.519531 C 157.527344 214.632812 155.816406 216.347656 153.707031 216.347656 C 151.59375 216.347656 149.878906 214.632812 149.878906 212.519531 C 149.878906 210.40625 151.59375 208.695312 153.707031 208.695312 C 155.816406 208.695312 157.527344 210.40625 157.527344 212.519531 Z M 157.527344 212.519531 "/>
<path style=" stroke:none;fill-rule:nonzero;fill:rgb(98.431373%,69.01961%,25.098041%);fill-opacity:1;" d="M 153.707031 215.746094 C 151.917969 215.746094 150.480469 214.304688 150.480469 212.519531 C 150.480469 210.75 151.917969 209.292969 153.707031 209.292969 C 155.476562 209.292969 156.929688 210.734375 156.929688 212.519531 C 156.929688 214.289062 155.488281 215.746094 153.707031 215.746094 Z M 153.707031 215.746094 "/>
<path style=" stroke:none;fill-rule:nonzero;fill:rgb(100%,85.490197%,0%);fill-opacity:1;" d="M 54.914062 186 C 54.914062 188.675781 52.746094 190.847656 50.070312 190.847656 C 47.394531 190.847656 45.226562 188.675781 45.226562 186 C 45.226562 183.324219 47.394531 181.152344 50.070312 181.152344 C 52.746094 181.152344 54.914062 183.324219 54.914062 186 Z M 54.914062 186 "/>
<path style=" stroke:none;fill-rule:nonzero;fill:rgb(100%,85.490197%,0%);fill-opacity:1;" d="M 157.753906 186 C 157.753906 188.675781 155.585938 190.847656 152.910156 190.847656 C 150.234375 190.847656 148.066406 188.675781 148.066406 186 C 148.066406 183.324219 150.234375 181.152344 152.910156 181.152344 C 155.585938 181.152344 157.753906 183.324219 157.753906 186 Z M 157.753906 186 "/>
<path style=" stroke:none;fill-rule:nonzero;fill:rgb(0%,65.490198%,61.56863%);fill-opacity:1;" d="M 134.652344 185.550781 L 134.835938 184.363281 C 134.863281 184.140625 134.863281 183.929688 134.835938 183.722656 C 128.566406 184.515625 116.972656 185.476562 101.984375 185.476562 C 86.207031 185.476562 74.175781 184.394531 68.175781 183.585938 C 68.113281 183.824219 68.113281 184.097656 68.144531 184.363281 L 68.308594 185.429688 C 74.503906 186.238281 86.445312 187.273438 101.984375 187.273438 C 116.714844 187.273438 128.234375 186.347656 134.652344 185.550781 Z M 134.652344 185.550781 "/>
<path style=" stroke:none;fill-rule:nonzero;fill:rgb(0%,65.490198%,61.56863%);fill-opacity:1;" d="M 68.582031 187.320312 L 68.851562 189.164062 C 75.179688 189.960938 86.878906 190.949219 101.972656 190.949219 C 116.292969 190.949219 127.574219 190.066406 134.101562 189.285156 L 134.371094 187.441406 C 127.996094 188.222656 116.597656 189.148438 101.972656 189.148438 C 86.550781 189.148438 74.714844 188.113281 68.582031 187.320312 Z M 68.582031 187.320312 "/>
<path style=" stroke:none;fill-rule:nonzero;fill:rgb(0%,65.490198%,61.56863%);fill-opacity:1;" d="M 69.226562 191.070312 C 69.464844 191.789062 69.839844 192.449219 70.335938 193.019531 C 76.917969 193.785156 87.988281 194.625 101.972656 194.625 C 115.199219 194.625 125.835938 193.875 132.523438 193.140625 C 133.035156 192.585938 133.441406 191.925781 133.710938 191.191406 C 127.230469 191.957031 116.113281 192.808594 101.984375 192.808594 C 87.074219 192.824219 75.523438 191.863281 69.226562 191.070312 Z M 69.226562 191.070312 "/>
<path style=" stroke:none;fill-rule:nonzero;fill:rgb(90.196079%,90.588236%,90.980393%);fill-opacity:1;" d="M 103.125 202.363281 C 103.125 203.269531 102.394531 204 101.488281 204 C 100.589844 204 99.855469 203.269531 99.855469 202.363281 C 99.855469 201.464844 100.589844 200.730469 101.488281 200.730469 C 102.394531 200.730469 103.125 201.464844 103.125 202.363281 Z M 103.125 202.363281 "/>
<path style=" stroke:none;fill-rule:nonzero;fill:rgb(87.058824%,96.470588%,98.823529%);fill-opacity:1;" d="M 72.300781 169.902344 L 97.695312 140.207031 L 86.398438 140.207031 L 61.019531 169.902344 Z M 72.300781 169.902344 "/>
<path style=" stroke:none;fill-rule:nonzero;fill:rgb(87.058824%,96.470588%,98.823529%);fill-opacity:1;" d="M 83.113281 169.902344 L 108.511719 140.207031 L 101.175781 140.207031 L 75.777344 169.902344 Z M 83.113281 169.902344 "/>
<path style=" stroke:none;fill-rule:nonzero;fill:rgb(87.058824%,96.470588%,98.823529%);fill-opacity:1;" d="M 100.125 169.902344 L 125.519531 140.207031 L 121.695312 140.207031 L 96.316406 169.902344 Z M 100.125 169.902344 "/>
</g>
</svg>
