<?xml version="1.0" encoding="utf-8"?>
<!-- Generator: Adobe Illustrator 25.3.1, SVG Export Plug-In . SVG Version: 6.00 Build 0)  -->
<svg version="1.1" id="Layer_1" xmlns="http://www.w3.org/2000/svg" xmlns:xlink="http://www.w3.org/1999/xlink" x="0px" y="0px"
	 viewBox="0 0 367 367" style="enable-background:new 0 0 367 367;" xml:space="preserve">
<style type="text/css">
	.st0{fill:#0B0B0B;}
	.st1{fill:#008081;}
	.st2{fill:#FDFDFD;}
</style>
<path class="st0" d="M278.09,171.32c-6.04-3.77-13.61-3.15-19.57,1.67c-12.04,9.73-24.02,19.54-35.87,29.5
	c-2.55,2.14-4.27,3.1-6.8,0.05c-1.86-2.24-4.97-2.59-7.69-3.23c-13.4-3.15-26.87-6-40.21-9.35c-6.84-1.72-13.16,0.05-19.62,1.51
	c-6.62,1.5-13.23,3.08-19.87,4.63c-0.95-8.12-0.95-8.12-8.94-8.12c-6.33,0-12.67-0.18-18.99,0.08c-3.09,0.12-3.9-0.74-3.85-3.83
	c0.11-7.76-0.06-7.75-8.29-7.57c-23.83,0.52-47.67,0.95-71.5,1.62c-2.02,0.32-4.18,0.44-6.12,0.24c-0.11,0-0.21,0.01-0.32,0.01
	c-1.77,0.18-3.54,0.25-5.3,0.21c-0.24,0.02-0.47,0.03-0.71,0.05c-0.11,0.01-0.22,0-0.34,0c-0.08,0.05-0.17,0.1-0.25,0.14
	c-0.05,1.68-0.09,3.36-0.09,5.04c-0.04,33.53,9.21,64.71,25.18,91.34c2.67-0.03,5.33-0.04,7.99,0.07c13.65,0,27.22-0.04,40.79,0.03
	c4.31,0.02,8.63,0.2,12.92,0.6c4.41,0.41,6.87-0.95,6.09-5.77c-0.79-4.85,0.75-6.72,6.02-6.28c6.62,0.55,13.32-0.04,19.97,0.2
	c3.79,0.13,5.86-1.01,5.27-5.02c-0.57-3.85,1.24-4.21,4.52-3.99c16.09,1.07,32.19,2,48.3,2.77c7.54,0.36,14.89-0.38,21.58-4.62
	c3.92-2.48,8.11-4.57,12.34-6.49c25.58-11.67,44.81-31.95,66.48-48.92c2.95-2.31,4.39-5.8,4.84-9.56
	C286.96,181.01,284.34,175.22,278.09,171.32z M91.93,226.32c0,13.48-0.08,26.96,0.06,40.43c0.03,3.08-0.51,4.29-4.03,4.18
	c-17.28-0.54-34.57-0.86-51.86-1.03c-3.54-0.04-5.31-1.59-6.84-4.49C16.29,240.72,9.5,214.45,8.75,186.58
	c-0.07-2.48,0.56-3.48,3.29-3.53c20.94-0.37,41.87-0.89,62.81-1.38c4.32-0.1,8.65-0.07,12.95-0.4c3.23-0.25,4.25,0.8,4.2,4.11
	C91.83,199.03,91.93,212.68,91.93,226.32z M123.07,255.68c0.02,2.75-0.62,3.73-3.53,3.63c-6.48-0.22-12.98-0.19-19.47-0.01
	c-2.63,0.07-3.4-0.71-3.36-3.35c0.15-9.82,0.06-19.64,0.06-29.46c0-9.99,0.11-19.97-0.07-29.96c-0.05-2.84,0.76-3.67,3.59-3.58
	c6.48,0.2,12.98,0.19,19.47,0c2.61-0.07,3.33,0.68,3.32,3.31C122.96,216.07,122.96,235.87,123.07,255.68z M277.12,194.94
	c-14.5,11.98-28.44,24.77-43.8,35.53c-12.02,8.42-25.78,14.37-38.88,21.21c-3.12,1.63-6.84,1.4-10.33,1.23
	c-17.44-0.82-34.86-1.83-52.3-2.55c-3.08-0.13-3.93-0.99-3.83-4.03c0.23-6.99,0.07-13.99,0.07-20.99c0-7,0.12-14-0.06-20.99
	c-0.07-2.51,0.84-3.41,3.16-3.91c8.76-1.91,17.49-4.01,26.23-6c2.29-0.52,4.62-0.57,6.94-0.03c14.57,3.37,29.12,6.81,43.7,10.1
	c9.36,2.11,10.58,11,5.94,18.01c-2.3,3.48-5.88,4.54-10.1,3.56c-13.91-3.24-27.85-6.37-41.78-9.54c-0.81-0.18-1.6-0.51-2.42-0.59
	c-1.73-0.17-3.98-1.12-4.58,1.46c-0.59,2.56,1.73,2.92,3.45,3.32c9.06,2.14,18.13,4.2,27.21,6.28c5.02,1.15,10.06,2.24,15.07,3.44
	c12.02,2.87,20.53-3.59,20.38-16.03c-0.04-3.46,1.07-5.41,3.56-7.43c12.31-9.92,24.43-20.08,36.78-29.96
	c7.92-6.33,18.3-2.4,19.75,7.27C281.92,188.61,280.39,192.24,277.12,194.94z"/>
<path class="st1" d="M91.93,226.32c0,13.48-0.08,26.96,0.06,40.43c0.03,3.08-0.51,4.29-4.03,4.18c-17.28-0.54-34.57-0.86-51.86-1.03
	c-3.54-0.04-5.31-1.59-6.84-4.49C16.29,240.72,9.5,214.45,8.75,186.58c-0.07-2.48,0.56-3.48,3.29-3.53
	c20.94-0.37,41.87-0.89,62.81-1.38c4.32-0.1,8.65-0.07,12.95-0.4c3.23-0.25,4.25,0.8,4.2,4.11
	C91.83,199.03,91.93,212.68,91.93,226.32z"/>
<path class="st2" d="M128.05,225.34c0-7,0.12-14-0.07-20.99c-0.07-2.51,0.84-3.41,3.16-3.91c8.76-1.91,17.49-4.01,26.23-6
	c2.29-0.52,4.62-0.57,6.94-0.03c14.57,3.37,29.12,6.81,43.7,10.1c9.36,2.11,10.58,11,5.94,18.01c-2.3,3.48-5.88,4.54-10.1,3.56
	c-13.91-3.24-27.85-6.37-41.78-9.54c-0.81-0.18-1.6-0.51-2.42-0.59c-1.73-0.17-3.98-1.12-4.58,1.46c-0.59,2.56,1.73,2.92,3.45,3.32
	c9.06,2.14,18.13,4.2,27.21,6.28c5.02,1.15,10.06,2.24,15.07,3.44c12.02,2.87,20.53-3.59,20.38-16.03
	c-0.04-3.46,1.07-5.41,3.56-7.43c12.31-9.92,24.43-20.08,36.78-29.96c7.92-6.33,18.3-2.4,19.75,7.27c0.64,4.3-0.89,7.92-4.16,10.63
	c-14.5,11.98-28.44,24.77-43.8,35.53c-12.02,8.42-25.78,14.37-38.88,21.21c-3.12,1.63-6.84,1.4-10.33,1.23
	c-17.44-0.82-34.86-1.83-52.3-2.55c-3.08-0.13-3.93-0.99-3.83-4.03C128.21,239.34,128.05,232.34,128.05,225.34z"/>
<path class="st2" d="M96.76,226.49c0-9.99,0.11-19.97-0.07-29.96c-0.05-2.84,0.76-3.67,3.59-3.58c6.48,0.2,12.98,0.19,19.47,0
	c2.61-0.07,3.33,0.68,3.32,3.31c-0.11,19.8-0.11,39.61,0,59.42c0.02,2.75-0.62,3.73-3.53,3.63c-6.48-0.22-12.98-0.19-19.47-0.01
	c-2.63,0.07-3.4-0.71-3.36-3.35C96.85,246.13,96.76,236.31,96.76,226.49z M119.04,205.27c0.05-4.99-4.14-9.07-9.26-8.99
	c-4.93,0.07-8.81,3.95-8.85,8.83c-0.03,4.87,3.81,8.86,8.66,9.01C114.65,214.26,118.99,210.19,119.04,205.27z"/>
<path class="st0" d="M137.37,124.05c-4.83-0.06-8.29-3.62-8.28-9.24c0.01-3.09-0.6-4.18-4-4.18c-6.08,0-9.75-3.47-9.77-8.33
	c-0.02-5.17,3.6-8.33,10.13-8.32c2.78,0,3.61-0.71,3.63-3.57c0.05-6.33,3.51-10.11,8.57-10.01c4.91,0.1,8.28,3.75,8.26,9.86
	c-0.01,3.29,1.13,3.73,4,3.72c5.35-0.03,8.87,3.24,9.1,7.86c0.22,4.55-3.09,8.49-8.31,8.65c-3.83,0.12-4.81,1.25-4.86,5.02
	C145.79,120.82,142.07,124.1,137.37,124.05z M153.96,102.53c0-2.08-0.99-3.74-3.02-3.54c-7.78,0.78-11.52-1.84-10.08-10.17
	c0.35-2.04-1.44-3.51-3.44-3.46c-1.97,0.06-3.19,1.42-3.4,3.62c-0.28,2.92,1.31,6.4-0.98,8.64c-2.43,2.38-6.08,0.68-9.15,1.14
	c-2.02,0.31-3.61,1.32-3.61,3.44c0.01,2.05,1.57,3.77,3.48,3.52c8.02-1.06,11.9,1.56,10.4,10.2c-0.31,1.77,1.3,2.98,3.25,3.04
	c1.99,0.07,3.17-1.08,3.42-2.92c0.24-1.8,0.25-3.66,0.13-5.48c-0.23-3.33,0.92-5.07,4.54-4.68c1.64,0.18,3.34,0.13,4.98-0.09
	C152.47,105.53,153.89,104.47,153.96,102.53z"/>
<path class="st0" d="M156.81,181.67c-4.76,0.02-8.37-3.57-8.39-9.2c-0.01-3.44-0.85-4.53-4.4-4.43c-5.84,0.17-9.18-3.03-9.26-8.08
	c-0.08-5.08,3.25-8.34,9.03-8.22c3.24,0.07,4.66-0.47,4.64-4.23c-0.03-6.14,3.52-9.66,8.56-9.51c5.03,0.15,8.16,3.67,8.07,9.91
	c-0.05,3.23,1.06,3.84,4,3.82c6.04-0.03,9.11,2.92,9.09,8.09c-0.03,5.1-3.27,8.35-9.11,8.2c-3.61-0.1-3.97,1.39-3.96,4.36
	C165.11,177.89,161.55,181.65,156.81,181.67z M156.77,176.8c2.58-0.49,3.37-2.25,3.58-4.65c0.71-8.18,0.75-8.17,8.47-8.83
	c0.33-0.03,0.67-0.01,0.99-0.06c2.09-0.27,3.45-1.39,3.4-3.56c-0.06-2.18-1.51-3.18-3.59-3.39c-2.78-0.28-6.16,1.1-8.23-0.83
	c-2.3-2.14-0.72-5.71-1.09-8.62c-0.02-0.16-0.06-0.33-0.08-0.49c-0.27-1.83-1.13-3.1-3.11-3.3c-2.29-0.23-3.48,1.2-3.81,3.12
	c-0.33,1.94-0.28,3.98-0.14,5.97c0.21,3.04-1.12,4.3-4.08,4.14c-1.33-0.07-2.66,0.03-3.99-0.02c-2.69-0.09-5.42,0.24-5.37,3.61
	c0.05,3.43,2.94,3.39,5.53,3.45c7.63,0.17,7.63,0.19,7.87,7.83c0.03,0.83-0.08,1.7,0.15,2.48
	C153.77,175.37,154.92,176.49,156.77,176.8z"/>
<path class="st0" d="M264.09,104.57c-0.11,4.84-3.2,7.93-8.8,8.1c-2.98,0.09-4.43,0.42-4.3,4c0.2,5.7-3.16,9.28-7.97,9.38
	c-5.25,0.12-8.36-3.17-8.31-9.42c0.02-3.02-0.74-3.95-3.87-3.97c-6.84-0.05-10-2.94-9.99-8.39c0.01-5.4,3.28-8.34,10.06-8.26
	c3.27,0.04,3.8-1.13,3.79-4.03c-0.02-6.28,2.63-9.19,7.85-9.27c5.43-0.08,8.6,3.07,8.44,9.3c-0.09,3.58,1.34,3.96,4.33,3.98
	C260.98,96.03,264.21,99.42,264.09,104.57z M241.86,121.02c3.15-0.04,4.1-1.39,4.37-3.45c0.39-2.94-1.13-6.48,1.03-8.71
	c2.18-2.24,5.73-0.49,8.63-1c2.07-0.36,3.32-1.59,3.27-3.74c-0.05-1.96-1.36-3.39-3.17-3.15c-8.24,1.13-11-2.54-9.92-10.36
	c0.23-1.7-1.31-3.12-3.22-3.16c-1.88-0.04-3.65,1.28-3.4,2.96c1.31,8.62-2.41,11.63-10.66,10.54c-1.79-0.24-2.99,1.35-3.05,3.29
	c-0.06,1.95,1.1,3.14,2.9,3.51c1.29,0.26,2.65,0.17,3.98,0.18c6.57,0.04,6.57,0.04,6.63,6.57c0.01,1.33-0.07,2.7,0.24,3.97
	C239.87,120.02,240.95,121.05,241.86,121.02z"/>
<path class="st0" d="M253.1,161.69c0.09,5.03-3.04,8.48-8.3,8.36c-3.5-0.08-5.01,0.51-4.81,4.52c0.27,5.42-3.03,8.86-7.74,9.14
	c-4.82,0.28-8.86-3.15-8.81-8.65c0.04-4.35-1.39-5.2-5.36-5.01c-5,0.23-8.21-3.15-8.33-7.85c-0.13-4.99,3.05-8.59,8.3-8.4
	c4,0.14,5.42-0.78,5.39-5.05c-0.03-5.2,3.86-8.74,8.34-8.72c4.83,0.02,8.5,3.69,8.19,9.24c-0.23,4.13,1.45,4.52,4.84,4.51
	C249.93,153.74,253.02,156.98,253.1,161.69z M248.24,161.96c-0.39-3.58-3.05-3.65-5.85-3.68c-6.98-0.09-6.96-0.13-7.11-7.1
	c-0.05-2.63,0.38-5.95-3.45-5.98c-3.62-0.03-3.77,3.03-3.75,5.82c0.04,6.95,1.28,7.4-7.3,7.28c-0.5-0.01-1,0.01-1.5,0
	c-2.46-0.06-4.46,0.81-4.58,3.47c-0.12,2.77,1.9,3.59,4.36,3.57c1.33-0.01,2.67,0.08,3.99-0.01c3.82-0.27,5.36,1.28,5.12,5.26
	c-0.19,3.1-1.28,7.9,3.36,8.01c5.32,0.13,3.69-4.99,3.65-8.12c-0.05-3.99,1.58-5.44,5.35-5.15c1.49,0.11,3,0.09,4.49-0.05
	C246.91,165.1,248.04,164.02,248.24,161.96z"/>
<path class="st0" d="M215.24,76.99c-0.12,4.87-3.4,8.14-8.85,7.98c-3.52-0.1-4.48,0.89-4.36,4.39c0.19,5.73-3.13,9.06-8.23,9.02
	c-5.12-0.03-8.26-3.26-8.05-9.17c0.13-3.67-1.21-4.32-4.5-4.23c-6.06,0.16-9.44-3.11-9.38-8.43c0.06-4.97,3.42-8.26,9.23-8.1
	c3.81,0.11,4.79-1.02,4.65-4.73c-0.2-5.38,3.16-8.7,8-8.78c4.97-0.08,8.44,3.41,8.28,9.07c-0.1,3.47,0.85,4.49,4.38,4.44
	C212.07,68.38,215.36,71.9,215.24,76.99z M193.82,93.69c3.17-0.63,3.48-2.95,3.52-5.65c0.13-7.81,0.19-7.81,7.97-8.01
	c1.47-0.04,3.06,0.31,4.15-1.1c0.84-1.09,1.32-2.26,0.58-3.66c-0.91-1.71-2.42-2-4.17-2.13c-7.96-0.55-7.95-0.58-8.56-8.76
	c-0.01-0.17,0-0.33-0.01-0.5c-0.1-2.27-1.01-4.01-3.5-3.95c-2.43,0.06-3.37,1.82-3.49,4.06c-0.06,1-0.14,2.01,0,2.99
	c0.63,4.69-1.09,6.73-6.06,6.27c-2.89-0.26-7.33-1.29-7.3,3.48c0.04,4.99,4.63,3.27,7.38,3.18c4.56-0.16,6.56,1.45,5.99,6.07
	c-0.16,1.31-0.07,2.66,0.02,3.99C190.46,92.13,191.88,93.15,193.82,93.69z"/>
<path class="st0" d="M119.04,205.27c-0.05,4.92-4.39,8.99-9.44,8.84c-4.85-0.14-8.69-4.14-8.66-9.01c0.03-4.88,3.92-8.76,8.85-8.83
	C114.9,196.2,119.09,200.28,119.04,205.27z M109.83,209.25c2.39-0.32,4.11-1.48,4.1-4.06c-0.01-2.56-1.63-4.01-4.1-3.99
	c-2.23,0.02-3.69,1.35-3.82,3.72C105.87,207.55,107.41,208.78,109.83,209.25z"/>
<path class="st1" d="M153.96,102.53c-0.08,1.94-1.49,3-3.47,3.27c-1.64,0.22-3.34,0.27-4.98,0.09c-3.62-0.39-4.77,1.35-4.54,4.68
	c0.12,1.82,0.11,3.68-0.13,5.48c-0.25,1.84-1.43,2.99-3.42,2.92c-1.95-0.07-3.55-1.28-3.25-3.04c1.5-8.64-2.38-11.26-10.4-10.2
	c-1.91,0.25-3.48-1.47-3.48-3.52c-0.01-2.13,1.58-3.14,3.61-3.44c3.07-0.47,6.72,1.24,9.15-1.14c2.29-2.25,0.7-5.72,0.98-8.64
	c0.21-2.19,1.43-3.56,3.4-3.62c2-0.06,3.79,1.41,3.44,3.46c-1.44,8.33,2.3,10.95,10.08,10.17
	C152.97,98.79,153.97,100.45,153.96,102.53z"/>
<path class="st1" d="M156.77,176.8c-1.85-0.31-3-1.43-3.49-3.15c-0.22-0.78-0.12-1.65-0.15-2.48c-0.25-7.64-0.25-7.66-7.87-7.83
	c-2.58-0.06-5.48-0.02-5.53-3.45c-0.05-3.37,2.67-3.7,5.37-3.61c1.33,0.05,2.66-0.05,3.99,0.02c2.95,0.16,4.29-1.1,4.08-4.14
	c-0.14-1.98-0.19-4.02,0.14-5.97c0.33-1.92,1.52-3.34,3.81-3.12c1.98,0.2,2.84,1.47,3.11,3.3c0.02,0.16,0.06,0.33,0.08,0.49
	c0.37,2.92-1.21,6.48,1.09,8.62c2.07,1.93,5.45,0.54,8.23,0.83c2.08,0.21,3.53,1.21,3.59,3.39c0.06,2.17-1.31,3.29-3.4,3.56
	c-0.33,0.04-0.66,0.03-0.99,0.06c-7.72,0.65-7.76,0.65-8.47,8.83C160.14,174.56,159.35,176.32,156.77,176.8z"/>
<path class="st1" d="M241.86,121.02c-0.92,0.03-1.99-1-2.37-2.56c-0.3-1.27-0.22-2.64-0.24-3.97c-0.07-6.53-0.06-6.52-6.63-6.57
	c-1.33-0.01-2.69,0.09-3.98-0.18c-1.8-0.37-2.96-1.55-2.9-3.51c0.06-1.93,1.26-3.52,3.05-3.29c8.25,1.09,11.97-1.91,10.66-10.54
	c-0.26-1.68,1.52-3,3.4-2.96c1.91,0.04,3.45,1.46,3.22,3.16c-1.08,7.82,1.68,11.49,9.92,10.36c1.81-0.25,3.12,1.18,3.17,3.15
	c0.05,2.15-1.2,3.38-3.27,3.74c-2.9,0.51-6.45-1.24-8.63,1c-2.17,2.22-0.65,5.77-1.03,8.71
	C245.96,119.63,245.01,120.98,241.86,121.02z"/>
<path class="st1" d="M248.24,161.96c-0.2,2.06-1.33,3.13-3.21,3.3c-1.49,0.13-3,0.16-4.49,0.05c-3.77-0.29-5.4,1.16-5.35,5.15
	c0.04,3.13,1.67,8.24-3.65,8.12c-4.64-0.11-3.55-4.91-3.36-8.01c0.25-3.97-1.29-5.53-5.12-5.26c-1.32,0.09-2.66,0-3.99,0.01
	c-2.46,0.02-4.48-0.8-4.36-3.57c0.12-2.66,2.12-3.53,4.58-3.47c0.5,0.01,1-0.01,1.5,0c8.58,0.12,7.34-0.33,7.3-7.28
	c-0.02-2.8,0.13-5.85,3.75-5.82c3.82,0.03,3.39,3.35,3.45,5.98c0.14,6.97,0.13,7.01,7.11,7.1
	C245.19,158.32,247.85,158.38,248.24,161.96z"/>
<path class="st1" d="M193.82,93.69c-1.94-0.54-3.36-1.56-3.5-3.71c-0.09-1.33-0.18-2.68-0.02-3.99c0.58-4.62-1.43-6.23-5.99-6.07
	c-2.75,0.09-7.35,1.82-7.38-3.18c-0.03-4.76,4.41-3.74,7.3-3.48c4.97,0.45,6.7-1.58,6.06-6.27c-0.13-0.98-0.05-2,0-2.99
	c0.13-2.23,1.06-3.99,3.49-4.06c2.5-0.06,3.4,1.68,3.5,3.95c0.01,0.17,0,0.33,0.01,0.5c0.61,8.18,0.61,8.21,8.56,8.76
	c1.75,0.12,3.26,0.41,4.17,2.13c0.74,1.4,0.26,2.56-0.58,3.66c-1.08,1.41-2.68,1.06-4.15,1.1c-7.78,0.2-7.84,0.2-7.97,8.01
	C197.3,90.73,196.99,93.06,193.82,93.69z"/>
<path class="st2" d="M109.83,209.25c-2.42-0.47-3.95-1.7-3.81-4.33c0.13-2.37,1.59-3.7,3.82-3.72c2.46-0.02,4.09,1.43,4.1,3.99
	C113.94,207.78,112.22,208.93,109.83,209.25z"/>
</svg>
