<?xml version="1.0" encoding="utf-8"?>
<!-- Generator: Adobe Illustrator 25.3.1, SVG Export Plug-In . SVG Version: 6.00 Build 0)  -->
<svg version="1.1" id="Layer_1" xmlns="http://www.w3.org/2000/svg" xmlns:xlink="http://www.w3.org/1999/xlink" x="0px" y="0px"
	 viewBox="0 0 367 367" style="enable-background:new 0 0 367 367;" xml:space="preserve">
<style type="text/css">
	.st0{display:none;fill:#0D0D0D;}
	.st1{display:none;fill:#E56132;}
	.st2{fill:none;stroke:#000000;stroke-width:14;stroke-miterlimit:10;}
	.st3{fill:#008081;stroke:#000000;stroke-width:8;stroke-miterlimit:10;}
</style>
<path class="st0" d="M193.6,193.4c10.7-9.9,20.8-10.6,32.2-2.2c1.9,1.4,2.7,0.9,4-0.4c11.4-11.4,22.7-22.9,34.2-34.1
	c2.2-2.2,1-3.6,0-5.5c-4.4-8.2-3.9-16.4,1.4-23.9c5.2-7.3,12.7-10.6,21.7-9.2c9.6,1.5,16,7.1,18.4,16.6c2.4,9.2-0.2,17.2-7.5,23.2
	c-7.5,6.2-16.2,6.9-24.6,2.4c-3.5-1.9-5-1-7.3,1.3c-10.6,10.8-21.3,21.4-32.1,32c-2.2,2.1-3.1,3.7-1.8,7.1
	c3.6,9.2,0.2,19.6-7.5,25.4c-7.7,5.9-18.6,6.1-26.5,0.7c-8.3-5.7-11.8-15.6-8.7-25.4c0.9-2.7,0.5-4.6-1-6.8
	c-10-15.4-19.9-30.9-29.8-46.5c-1.6-2.5-2.6-3.4-5.7-1.9c-4.7,2.4-10,2.4-15,0.8c-2.3-0.8-3.4-0.4-4.5,2
	c-10.7,21.9-21.5,43.7-32.4,65.5c-1.2,2.4-0.7,3.5,1.2,5.2c8.6,7.5,10.2,20,4.1,29.3c-6,9.2-17.8,12.8-28.1,8.4
	c-10.2-4.4-15.5-15.8-12.7-26.8c2.7-10.5,12.9-17.7,24.2-16.1c4.8,0.7,6.4-0.9,8.3-4.8c10-20.9,20.3-41.7,30.7-62.4
	c1.2-2.5,1.5-3.9-0.7-6.3c-8.5-8.8-8.4-22.3-0.2-31c8.2-8.6,21.5-9.5,30.7-2.1c9.3,7.5,11.1,20.8,3.9,30.8c-1.8,2.5-1.6,4-0.1,6.4
	C172.9,161,183.1,177.1,193.6,193.4z M266,140.5c0.1,9.6,8.4,17.9,17.9,17.7c9.5-0.1,17.6-8.4,17.6-18c-0.1-9.7-8.1-17.6-17.9-17.5
	C273.8,122.8,265.9,130.8,266,140.5z M210.8,190.5c-9.7,0-17.7,7.9-17.7,17.7c0,9.5,8.3,17.9,17.7,17.8c9.5,0,17.7-8.4,17.7-17.9
	C228.5,198.4,220.6,190.5,210.8,190.5z M144.6,107.8c-9.8-0.1-17.8,7.7-17.9,17.5c-0.1,9.6,7.9,17.9,17.5,18.1
	c9.3,0.2,17.9-8.2,18-17.7C162.4,116.2,154.1,107.8,144.6,107.8z M69.9,236.1c-0.2,9.9,7.4,17.9,17.2,18.1
	c9.9,0.2,18.3-7.9,18.3-17.7c0-9.3-8.6-17.9-17.9-17.8C78.2,218.8,70.1,226.8,69.9,236.1z"/>
<path class="st1" d="M210.8,190.5c9.8,0,17.7,7.9,17.8,17.6c0.1,9.5-8.2,17.9-17.7,17.9c-9.5,0-17.7-8.3-17.7-17.8
	C193.2,198.4,201.1,190.5,210.8,190.5z"/>
<path class="st1" d="M144.6,107.8c9.6,0.1,17.9,8.4,17.7,17.8c-0.2,9.5-8.8,17.9-18,17.7c-9.6-0.2-17.6-8.4-17.5-18.1
	C126.8,115.5,134.8,107.7,144.6,107.8z"/>
<path class="st1" d="M69.9,236.1c0.2-9.3,8.3-17.4,17.6-17.4c9.3,0,17.9,8.6,17.9,17.8c0,9.8-8.4,17.9-18.3,17.7
	C77.3,254.1,69.8,246.1,69.9,236.1z"/>
<path class="st2" d="M291.1,199.3c0,0-47.8,65.8-106.1,65.8S79.8,199.3,79.8,199.3S126.7,132,185,132S291.1,199.3,291.1,199.3z"/>
<circle class="st3" cx="185.5" cy="198.6" r="53.5"/>
<path d="M185.5,220.7c-12.2,0-22.2-9.9-22.2-22.2c0-12.2,9.9-22.2,22.2-22.2s22.2,9.9,22.2,22.2
	C207.6,210.8,197.7,220.7,185.5,220.7z"/>
</svg>
