<?xml version="1.0" encoding="utf-8"?>
<!-- Generator: Adobe Illustrator 25.3.1, SVG Export Plug-In . SVG Version: 6.00 Build 0)  -->
<svg version="1.1" id="Layer_1" xmlns="http://www.w3.org/2000/svg" xmlns:xlink="http://www.w3.org/1999/xlink" x="0px" y="0px"
	 viewBox="0 0 367 367" style="enable-background:new 0 0 367 367;" xml:space="preserve">
<style type="text/css">
	.st0{fill:#0C0C08;}
	.st1{fill:#E56132;}
</style>
<path class="st0" d="M296.6,170.2c5.2-4.9,9.1-5.8,13.1-3.2c4.4,2.8,5.1,8.7,1.8,13.1c-3.7,4.9-7.8,9.4-12.3,13.5
	c-2,1.9-3.1,4-3.5,6.8c-6.9,46-31.8,78-75.7,93.8c-66,23.8-138.6-20.7-148.4-90.2c-0.3-2.1-0.7-4.2-1-6.4c-1.7,0-2.3,1.6-3.5,2.4
	c-3.8,2.3-8.5,1.8-11.4-1.2c-3-3.1-3.1-8.2-0.1-11.8c3.5-4.1,6.9-8.4,10.9-12.1c3.3-3,4.7-6.4,5.2-10.7c7.1-50.9,46.6-90,97.4-96.5
	c57.7-7.4,111.1,29.5,124.5,86.2C294.9,159.1,295.6,164.5,296.6,170.2z M88.6,197.7c0.2,2.1,0.2,3.6,0.4,5
	c9.4,55.6,63.4,91.1,117.9,77.5c37-9.2,65.5-40.8,71.1-78.6c0.5-3.4,0.4-6.3-2.7-8.8c-4.3-3.5-8.2-7.6-11.5-12.1
	c-2.7-3.7-2.9-7.5-0.2-11c2.7-3.6,6.6-4,10.7-2.6c1.4,0.5,2,2.1,3.9,2.1c-0.1-1.9-0.1-3.7-0.4-5.5c-10.4-56.7-65.7-91.2-121-75.6
	c-35.3,9.9-63.2,42.2-67.9,78.2c-0.5,3.6,0,6.2,3.1,8.6c4.3,3.3,7.8,7.6,11.2,11.8c2.7,3.4,2.9,7.1,0.6,10.6
	c-2.2,3.4-5.6,4.3-9.6,3.5C92.1,200.3,90.9,198.6,88.6,197.7z M183.4,79c41.1-0.1,78.4,25.1,93.7,63.2c4.1,10.2,6.5,20.9,7,31.9
	c0.1,1.8,0.3,3.9-1.8,4.7c-1.8,0.6-3.1-0.7-4.3-1.9c-1.4-1.4-2.9-2.7-4.3-4.1c-1.8-1.7-3.9-2.3-5.7-0.3c-1.8,1.9-0.9,3.9,0.8,5.7
	c5.1,5.4,10.1,10.9,15.5,16c2.7,2.6,4.7,2.4,7.2,0.3c6-5.2,10.7-11.7,16-17.6c1.4-1.6,1.8-3.6-0.3-5.2c-2-1.6-3.7-0.8-5.3,0.7
	c-1.6,1.6-3.1,3.5-4.9,5c-2.8,2.5-4.8,1.8-5.4-2c-0.6-4.1-0.7-8.3-1.3-12.4c-6.9-48.6-49.7-88-98.6-91
	c-55.9-3.4-103.4,33.3-114.4,88.3c-0.8,3.8-0.6,5.4,4,5.8c4.7,0.5,2.9-3.1,3.2-4.4C93.4,113.9,134.9,79,183.4,79z M183.8,295.6
	c3.7-0.2,7.9-0.2,12-0.7c48.4-6.5,84.3-40.2,94-88c0.7-3.6,0.9-5.4-4-5.8c-4.6-0.4-3,2.9-3.2,4.3c-8.6,45.1-42.9,77-89.8,82.2
	c-41.8,4.6-83.3-18.8-101.3-59.2c-5.1-11.3-7.9-23.2-8.5-35.6c-0.1-1.7-0.1-3.5,1.7-4.3c1.8-0.7,3.2,0.3,4.4,1.6
	c1.4,1.4,2.8,2.8,4.2,4.2c1.8,1.7,3.8,2.3,5.7,0.5c1.9-1.9,1.2-3.9-0.5-5.7c-5.4-5.6-10.8-11.1-16.1-16.8c-1.9-2.1-4-1.9-5.7-0.5
	c-6.5,5.7-11.7,12.5-17.3,19c-1.1,1.3-1.1,3.2,0.3,4.5c1.6,1.5,3.3,1.4,4.9,0c1.6-1.5,3-3.1,4.5-4.6c1.3-1.3,2.6-3,4.6-2.1
	c2,0.8,1.9,2.9,2,4.7C79,250.9,125.8,295.2,183.8,295.6z"/>
<path class="st1" d="M183.4,79c-48.4,0.1-90,34.9-98.9,82.7c-0.2,1.3,1.5,4.8-3.2,4.4c-4.6-0.4-4.8-2-4-5.8
	c11-55,58.5-91.8,114.4-88.3c48.9,3,91.7,42.5,98.6,91c0.6,4.1,0.7,8.3,1.3,12.4c0.5,3.8,2.5,4.5,5.4,2c1.8-1.5,3.2-3.3,4.9-5
	c1.6-1.6,3.3-2.3,5.3-0.7c2,1.6,1.7,3.7,0.3,5.2c-5.3,5.9-10,12.4-16,17.6c-2.5,2.2-4.5,2.3-7.2-0.3c-5.4-5.1-10.4-10.6-15.5-16
	c-1.7-1.8-2.6-3.7-0.8-5.7c1.8-1.9,3.9-1.4,5.7,0.3c1.5,1.4,2.9,2.7,4.3,4.1c1.2,1.2,2.5,2.5,4.3,1.9c2.1-0.8,1.9-2.9,1.8-4.7
	c-0.4-11.1-2.9-21.7-7-31.9C261.8,104.1,224.4,78.9,183.4,79z"/>
<path class="st1" d="M183.8,295.6c-58-0.3-104.8-44.7-108.1-102.1c-0.1-1.9,0-3.9-2-4.7c-2.1-0.9-3.3,0.8-4.6,2.1
	c-1.5,1.5-2.9,3.2-4.5,4.6c-1.6,1.4-3.3,1.5-4.9,0c-1.5-1.4-1.4-3.2-0.3-4.5c5.6-6.5,10.8-13.4,17.3-19c1.7-1.5,3.8-1.6,5.7,0.5
	c5.3,5.7,10.8,11.2,16.1,16.8c1.7,1.8,2.4,3.8,0.5,5.7c-1.9,1.8-3.9,1.3-5.7-0.5c-1.4-1.4-2.8-2.8-4.2-4.2c-1.2-1.3-2.6-2.3-4.4-1.6
	c-1.8,0.8-1.8,2.6-1.7,4.3c0.6,12.4,3.4,24.2,8.5,35.6c18,40.5,59.5,63.8,101.3,59.2c46.9-5.2,81.2-37.1,89.8-82.2
	c0.3-1.4-1.4-4.6,3.2-4.3c4.8,0.4,4.7,2.2,4,5.8c-9.6,47.7-45.6,81.4-94,88C191.7,295.4,187.5,295.4,183.8,295.6z"/>
<path class="st0" d="M142.9,209.6c-18.3-0.1-30.7-15.2-28.7-35.2c2-19.8,19.2-31.3,38.3-25.6c2.4,0.7,4.7,1.7,6.5,3.5
	c2.9,2.9,3.6,6.3,1.8,10s-5.1,4.4-8.9,3.4c-0.8-0.2-1.6-0.5-2.3-0.8c-10.9-3.9-18.3,1.4-18.6,13.1c-0.2,10.7,5.8,17.1,14.6,15.4
	c1.9-0.4,3.7-1.3,5.6-2c5.1-1.8,8.4-0.8,10.5,3.4c1.9,3.8,0.8,8.2-3.1,10.9C153.9,208.8,148.5,209.5,142.9,209.6z M144.8,152.5
	c-12.1-0.2-20.8,5.9-24.2,16.3c-1.6,4.9-1.6,9.8-1,14.7c1.7,16.2,19,26,33.7,19.1c2.2-1,5.2-2.1,3.7-5.3c-1.4-3.1-3.9-1.2-5.9-0.4
	c-8.7,3.5-16.8,1.6-21.4-4.9c-5.1-7.1-4.9-20.2,0.2-27.3c4.7-6.4,11.5-7.8,22-4.5c1.6,0.5,3.4,1.5,4.4-0.5c1.1-2.2-0.3-3.8-2.2-4.8
	C150.8,153.2,147.3,152.5,144.8,152.5z"/>
<path class="st0" d="M190.7,209.6c-17.1-0.2-28.6-13.2-28.4-32.2c0.2-17.6,12.3-30.2,29-30c16.3,0.2,28.6,13.4,28.6,30.7
	C219.9,196.9,207.9,209.8,190.7,209.6z M167.4,178.6c0.1,8.5,2.5,16.1,9.7,21.3c7.8,5.7,16.3,6.3,24.9,2c9.9-5,13.1-14.1,12.8-24.5
	c-0.3-10.1-4.4-18.3-14-22.8C184.2,146.9,167.1,159.3,167.4,178.6z"/>
<path class="st0" d="M242.9,207.1c2.3,0.4,4.2,0.6,6.1,1.1c2.8,0.7,4.1,3,4,5.6c-0.1,2.8-1.4,5.3-4.6,5.6c-7.2,0.8-14.6,1-21.8-0.1
	c-4.9-0.7-6.1-5.8-2.7-10.1c3.4-4.3,7.1-8.3,10.6-12.5c1.1-1.3,2-2.6,2.9-4c0.8-1.3,1.9-3,0.2-3.9c-2.1-1.2-2.2,1.3-2.6,2.5
	c-1.4,4.1-3.5,6.9-8.4,5.4c-3.9-1.2-5.1-4.8-3.7-9.9c2.2-7.9,8-12.3,15.5-11.8c10.6,0.7,16.2,10.4,12.2,20.6
	C248.8,199.9,245.6,203.2,242.9,207.1z M247.9,214.4c-1.7-2.3-3.3-1.6-4.7-1.9c-2.9-0.5-7.1,1.8-8.6-1.7c-1.4-3.3,2.7-5.2,4.5-7.6
	c2.7-3.7,6.3-6.9,7.3-11.6c0.9-4.1-0.4-7.7-3.7-10c-3.6-2.5-7.9-2.4-11,0.6c-2.4,2.3-5,5.3-3.9,9.8c2.8-1.3,2.2-3.8,3.4-5.2
	c2.2-2.6,4.1-6.1,8.3-3.6c4.2,2.5,5.2,7.4,2.6,11.7c-2.1,3.4-4.7,6.4-7.1,9.5c-2.5,3.2-5.8,5.9-8,10.1
	C234.1,214.4,240.7,214.4,247.9,214.4z"/>
<path class="st1" d="M144.8,152.5c2.4,0,6,0.7,9.3,2.4c1.9,1,3.3,2.6,2.2,4.8c-1,2-2.8,1-4.4,0.5c-10.5-3.3-17.3-1.9-22,4.5
	c-5.2,7.1-5.3,20.2-0.2,27.3c4.6,6.5,12.8,8.4,21.4,4.9c2.1-0.9,4.6-2.7,5.9,0.4c1.4,3.2-1.5,4.3-3.7,5.3
	c-14.8,6.9-32-2.9-33.7-19.1c-0.5-5-0.6-9.9,1-14.7C124,158.4,132.7,152.2,144.8,152.5z"/>
<path class="st1" d="M167.4,178.6c-0.3-19.4,16.8-31.8,33.3-24.1c9.6,4.5,13.7,12.7,14,22.8c0.3,10.4-2.9,19.5-12.8,24.5
	c-8.5,4.3-17.1,3.7-24.9-2C169.9,194.8,167.5,187.2,167.4,178.6z M174.3,179.5c0.1,0.8,0,2.7,0.3,4.5c1.1,8,6.6,13.9,13.8,14.9
	c9.6,1.3,17.4-4.5,19-14.1c2.3-14.3-3.1-24.9-13.4-26.6C182.4,156.3,174.2,164.7,174.3,179.5z"/>
<path class="st1" d="M247.9,214.4c-7.2,0-13.9,0-21,0c2.3-4.2,5.5-6.8,8-10.1c2.4-3.1,5.1-6.1,7.1-9.5c2.6-4.3,1.6-9.2-2.6-11.7
	c-4.1-2.5-6.1,1.1-8.3,3.6c-1.2,1.5-0.6,4-3.4,5.2c-1.1-4.5,1.5-7.6,3.9-9.8c3.1-2.9,7.5-3.1,11-0.6c3.3,2.3,4.6,5.9,3.7,10
	c-1,4.7-4.6,7.9-7.3,11.6c-1.8,2.4-5.9,4.3-4.5,7.6c1.5,3.4,5.6,1.2,8.6,1.7C244.6,212.8,246.2,212.2,247.9,214.4z"/>
<path class="st0" d="M174.3,179.5c-0.1-14.8,8-23.2,19.6-21.3c10.4,1.7,15.7,12.2,13.4,26.6c-1.5,9.6-9.3,15.4-19,14.1
	c-7.2-1-12.8-6.9-13.8-14.9C174.4,182.2,174.4,180.3,174.3,179.5z M179.4,178.1c-0.1,3.7,0.3,7.3,2.2,10.5c3.7,6.4,13,7.2,17.7,1.6
	c4.8-5.6,4.7-18.2-0.1-23.7c-1.9-2.2-4.4-3.4-7.4-3.5C184.1,162.7,179.4,168.5,179.4,178.1z"/>
</svg>
